<mxfile host="Electron" agent="Mozilla/5.0 (X11; Linux x86_64) AppleWebKit/537.36 (KHTML, like Gecko) draw.io/26.2.15 Chrome/134.0.6998.205 Electron/35.3.0 Safari/537.36" version="26.2.15">
  <diagram name="Page-1" id="fnGLRSGjn-lUswZtnkw-">
    <mxGraphModel dx="3080" dy="841" grid="0" gridSize="10" guides="0" tooltips="1" connect="1" arrows="1" fold="1" page="1" pageScale="1" pageWidth="1654" pageHeight="1169" math="1" shadow="0">
      <root>
        <mxCell id="0" />
        <mxCell id="1" parent="0" />
        <mxCell id="qrl5ms6JGWwzDxshBv7--4" value="" style="group" parent="1" vertex="1" connectable="0">
          <mxGeometry x="-340" y="500" width="98" height="100" as="geometry" />
        </mxCell>
        <mxCell id="qrl5ms6JGWwzDxshBv7--10" style="edgeStyle=orthogonalEdgeStyle;shape=connector;rounded=0;orthogonalLoop=1;jettySize=auto;html=1;exitX=0.612;exitY=0.11;exitDx=0;exitDy=0;exitPerimeter=0;strokeColor=default;align=center;verticalAlign=middle;fontFamily=Helvetica;fontSize=11;fontColor=default;labelBackgroundColor=default;startFill=0;endArrow=none;" parent="qrl5ms6JGWwzDxshBv7--4" source="qrl5ms6JGWwzDxshBv7--1" edge="1">
          <mxGeometry relative="1" as="geometry">
            <mxPoint x="110" y="89.1282051282052" as="targetPoint" />
          </mxGeometry>
        </mxCell>
        <mxCell id="qrl5ms6JGWwzDxshBv7--12" style="edgeStyle=orthogonalEdgeStyle;shape=connector;rounded=0;orthogonalLoop=1;jettySize=auto;html=1;exitX=0.612;exitY=0.89;exitDx=0;exitDy=0;exitPerimeter=0;strokeColor=default;align=center;verticalAlign=middle;fontFamily=Helvetica;fontSize=11;fontColor=default;labelBackgroundColor=default;startFill=0;endArrow=none;" parent="qrl5ms6JGWwzDxshBv7--4" source="qrl5ms6JGWwzDxshBv7--1" edge="1">
          <mxGeometry relative="1" as="geometry">
            <mxPoint x="110" y="10.923076923076906" as="targetPoint" />
          </mxGeometry>
        </mxCell>
        <mxCell id="qrl5ms6JGWwzDxshBv7--15" style="edgeStyle=orthogonalEdgeStyle;shape=connector;rounded=0;orthogonalLoop=1;jettySize=auto;html=1;exitX=0;exitY=0.165;exitDx=0;exitDy=0;exitPerimeter=0;strokeColor=default;align=center;verticalAlign=middle;fontFamily=Helvetica;fontSize=11;fontColor=default;labelBackgroundColor=default;startFill=0;endArrow=oval;endSize=4;endFill=0;" parent="qrl5ms6JGWwzDxshBv7--4" edge="1">
          <mxGeometry relative="1" as="geometry">
            <mxPoint x="-480" y="83" as="targetPoint" />
            <mxPoint y="83.5" as="sourcePoint" />
          </mxGeometry>
        </mxCell>
        <mxCell id="qrl5ms6JGWwzDxshBv7--17" style="edgeStyle=orthogonalEdgeStyle;shape=connector;rounded=0;orthogonalLoop=1;jettySize=auto;html=1;exitX=0;exitY=0.835;exitDx=0;exitDy=0;exitPerimeter=0;strokeColor=default;align=center;verticalAlign=middle;fontFamily=Helvetica;fontSize=11;fontColor=default;labelBackgroundColor=default;startFill=0;endArrow=oval;endFill=0;endSize=4;" parent="qrl5ms6JGWwzDxshBv7--4" source="qrl5ms6JGWwzDxshBv7--1" edge="1">
          <mxGeometry relative="1" as="geometry">
            <mxPoint x="-480" y="16" as="targetPoint" />
          </mxGeometry>
        </mxCell>
        <mxCell id="qrl5ms6JGWwzDxshBv7--1" value="" style="verticalLabelPosition=bottom;shadow=0;dashed=0;align=center;html=1;verticalAlign=top;shape=mxgraph.electrical.abstract.operational_amp_1;flipV=1;" parent="qrl5ms6JGWwzDxshBv7--4" vertex="1">
          <mxGeometry width="98" height="100" as="geometry" />
        </mxCell>
        <mxCell id="qrl5ms6JGWwzDxshBv7--2" value="" style="pointerEvents=1;verticalLabelPosition=bottom;shadow=0;dashed=0;align=center;html=1;verticalAlign=top;shape=mxgraph.electrical.waveforms.step_1;" parent="qrl5ms6JGWwzDxshBv7--4" vertex="1">
          <mxGeometry x="30" y="36.111111111111114" width="20" height="27.77777777777778" as="geometry" />
        </mxCell>
        <mxCell id="qrl5ms6JGWwzDxshBv7--3" value="" style="endArrow=none;html=1;rounded=0;" parent="qrl5ms6JGWwzDxshBv7--4" edge="1">
          <mxGeometry width="50" height="50" relative="1" as="geometry">
            <mxPoint x="35" y="49.84444444444446" as="sourcePoint" />
            <mxPoint x="45" y="49.84444444444446" as="targetPoint" />
          </mxGeometry>
        </mxCell>
        <mxCell id="qrl5ms6JGWwzDxshBv7--339" style="edgeStyle=orthogonalEdgeStyle;shape=connector;rounded=0;orthogonalLoop=1;jettySize=auto;html=1;exitX=0.5;exitY=0;exitDx=0;exitDy=0;entryX=1;entryY=0.5;entryDx=0;entryDy=0;strokeColor=default;align=center;verticalAlign=middle;fontFamily=Helvetica;fontSize=11;fontColor=default;labelBackgroundColor=default;startFill=0;endArrow=blockThin;endFill=1;" parent="1" source="qrl5ms6JGWwzDxshBv7--7" target="qrl5ms6JGWwzDxshBv7--337" edge="1">
          <mxGeometry relative="1" as="geometry" />
        </mxCell>
        <mxCell id="qrl5ms6JGWwzDxshBv7--468" style="edgeStyle=orthogonalEdgeStyle;shape=connector;rounded=0;orthogonalLoop=1;jettySize=auto;html=1;exitX=0.25;exitY=1;exitDx=0;exitDy=0;strokeColor=default;align=center;verticalAlign=middle;fontFamily=Helvetica;fontSize=11;fontColor=default;labelBackgroundColor=default;startFill=0;endArrow=blockThin;entryX=0.268;entryY=0.092;entryDx=0;entryDy=0;entryPerimeter=0;endFill=1;endSize=4;" parent="1" source="qrl5ms6JGWwzDxshBv7--7" target="qrl5ms6JGWwzDxshBv7--1" edge="1">
          <mxGeometry relative="1" as="geometry">
            <mxPoint x="-318.20000000000005" y="599.8" as="targetPoint" />
            <Array as="points">
              <mxPoint x="-202" y="611" />
              <mxPoint x="-314" y="611" />
            </Array>
          </mxGeometry>
        </mxCell>
        <mxCell id="qrl5ms6JGWwzDxshBv7--7" value="&lt;font face=&quot;Times New Roman&quot;&gt;&lt;span style=&quot;font-size: 14px;&quot;&gt;SAR Logic&lt;/span&gt;&lt;/font&gt;" style="rounded=0;whiteSpace=wrap;html=1;spacing=-2;" parent="1" vertex="1">
          <mxGeometry x="-222" y="500" width="80" height="100" as="geometry" />
        </mxCell>
        <mxCell id="qrl5ms6JGWwzDxshBv7--13" value="" style="shape=flexArrow;endArrow=classic;html=1;rounded=0;strokeColor=default;align=center;verticalAlign=middle;fontFamily=Helvetica;fontSize=11;fontColor=default;labelBackgroundColor=default;edgeStyle=orthogonalEdgeStyle;" parent="1" edge="1">
          <mxGeometry width="50" height="50" relative="1" as="geometry">
            <mxPoint x="-142" y="550" as="sourcePoint" />
            <mxPoint x="-100" y="550" as="targetPoint" />
          </mxGeometry>
        </mxCell>
        <mxCell id="qrl5ms6JGWwzDxshBv7--19" style="edgeStyle=orthogonalEdgeStyle;shape=connector;rounded=0;orthogonalLoop=1;jettySize=auto;html=1;exitX=1;exitY=0.5;exitDx=0;exitDy=0;exitPerimeter=0;strokeColor=default;align=center;verticalAlign=middle;fontFamily=Helvetica;fontSize=11;fontColor=default;labelBackgroundColor=default;startFill=0;endArrow=oval;entryX=0.4;entryY=0;entryDx=0;entryDy=0;entryPerimeter=0;endFill=1;endSize=4;" parent="1" source="qrl5ms6JGWwzDxshBv7--16" target="qrl5ms6JGWwzDxshBv7--463" edge="1">
          <mxGeometry relative="1" as="geometry">
            <mxPoint x="-360" y="514" as="targetPoint" />
            <Array as="points">
              <mxPoint x="-360" y="480" />
            </Array>
          </mxGeometry>
        </mxCell>
        <mxCell id="qrl5ms6JGWwzDxshBv7--44" style="edgeStyle=orthogonalEdgeStyle;shape=connector;rounded=0;orthogonalLoop=1;jettySize=auto;html=1;exitX=0;exitY=0.5;exitDx=0;exitDy=0;exitPerimeter=0;strokeColor=default;align=center;verticalAlign=middle;fontFamily=Helvetica;fontSize=11;fontColor=default;labelBackgroundColor=default;startFill=0;endArrow=oval;endFill=0;endSize=4;" parent="1" source="qrl5ms6JGWwzDxshBv7--16" edge="1">
          <mxGeometry relative="1" as="geometry">
            <mxPoint x="-400" y="420" as="targetPoint" />
          </mxGeometry>
        </mxCell>
        <mxCell id="qrl5ms6JGWwzDxshBv7--16" value="" style="pointerEvents=1;verticalLabelPosition=bottom;shadow=0;dashed=0;align=center;html=1;verticalAlign=top;shape=mxgraph.electrical.capacitors.capacitor_1;fontFamily=Helvetica;fontSize=11;fontColor=default;labelBackgroundColor=default;direction=south;" parent="1" vertex="1">
          <mxGeometry x="-410" y="430" width="20" height="50" as="geometry" />
        </mxCell>
        <mxCell id="qrl5ms6JGWwzDxshBv7--46" style="edgeStyle=orthogonalEdgeStyle;shape=connector;rounded=0;orthogonalLoop=1;jettySize=auto;html=1;exitX=0;exitY=0.5;exitDx=0;exitDy=0;exitPerimeter=0;strokeColor=default;align=center;verticalAlign=middle;fontFamily=Helvetica;fontSize=11;fontColor=default;labelBackgroundColor=default;startFill=0;endArrow=oval;endSize=4;endFill=0;" parent="1" source="qrl5ms6JGWwzDxshBv7--20" edge="1">
          <mxGeometry relative="1" as="geometry">
            <mxPoint x="-440.03999999999996" y="420" as="targetPoint" />
          </mxGeometry>
        </mxCell>
        <mxCell id="qrl5ms6JGWwzDxshBv7--20" value="" style="pointerEvents=1;verticalLabelPosition=bottom;shadow=0;dashed=0;align=center;html=1;verticalAlign=top;shape=mxgraph.electrical.capacitors.capacitor_1;fontFamily=Helvetica;fontSize=11;fontColor=default;labelBackgroundColor=default;direction=south;" parent="1" vertex="1">
          <mxGeometry x="-450" y="430" width="20" height="50" as="geometry" />
        </mxCell>
        <mxCell id="qrl5ms6JGWwzDxshBv7--47" style="edgeStyle=orthogonalEdgeStyle;shape=connector;rounded=0;orthogonalLoop=1;jettySize=auto;html=1;exitX=0;exitY=0.5;exitDx=0;exitDy=0;exitPerimeter=0;strokeColor=default;align=center;verticalAlign=middle;fontFamily=Helvetica;fontSize=11;fontColor=default;labelBackgroundColor=default;startFill=0;endArrow=oval;endSize=4;endFill=0;" parent="1" source="qrl5ms6JGWwzDxshBv7--21" edge="1">
          <mxGeometry relative="1" as="geometry">
            <mxPoint x="-480.03999999999996" y="420" as="targetPoint" />
          </mxGeometry>
        </mxCell>
        <mxCell id="qrl5ms6JGWwzDxshBv7--21" value="" style="pointerEvents=1;verticalLabelPosition=bottom;shadow=0;dashed=0;align=center;html=1;verticalAlign=top;shape=mxgraph.electrical.capacitors.capacitor_1;fontFamily=Helvetica;fontSize=11;fontColor=default;labelBackgroundColor=default;direction=south;" parent="1" vertex="1">
          <mxGeometry x="-490" y="430" width="20" height="50" as="geometry" />
        </mxCell>
        <mxCell id="qrl5ms6JGWwzDxshBv7--48" style="edgeStyle=orthogonalEdgeStyle;shape=connector;rounded=0;orthogonalLoop=1;jettySize=auto;html=1;exitX=0;exitY=0.5;exitDx=0;exitDy=0;exitPerimeter=0;strokeColor=default;align=center;verticalAlign=middle;fontFamily=Helvetica;fontSize=11;fontColor=default;labelBackgroundColor=default;startFill=0;endArrow=oval;endSize=4;endFill=0;" parent="1" source="qrl5ms6JGWwzDxshBv7--22" edge="1">
          <mxGeometry relative="1" as="geometry">
            <mxPoint x="-519.9615384615386" y="420" as="targetPoint" />
          </mxGeometry>
        </mxCell>
        <mxCell id="qrl5ms6JGWwzDxshBv7--22" value="" style="pointerEvents=1;verticalLabelPosition=bottom;shadow=0;dashed=0;align=center;html=1;verticalAlign=top;shape=mxgraph.electrical.capacitors.capacitor_1;fontFamily=Helvetica;fontSize=11;fontColor=default;labelBackgroundColor=default;direction=south;" parent="1" vertex="1">
          <mxGeometry x="-530" y="430" width="20" height="50" as="geometry" />
        </mxCell>
        <mxCell id="qrl5ms6JGWwzDxshBv7--49" style="edgeStyle=orthogonalEdgeStyle;shape=connector;rounded=0;orthogonalLoop=1;jettySize=auto;html=1;exitX=0;exitY=0.5;exitDx=0;exitDy=0;exitPerimeter=0;strokeColor=default;align=center;verticalAlign=middle;fontFamily=Helvetica;fontSize=11;fontColor=default;labelBackgroundColor=default;startFill=0;endArrow=oval;endSize=4;endFill=0;" parent="1" source="qrl5ms6JGWwzDxshBv7--23" edge="1">
          <mxGeometry relative="1" as="geometry">
            <mxPoint x="-559.9615384615386" y="420" as="targetPoint" />
          </mxGeometry>
        </mxCell>
        <mxCell id="qrl5ms6JGWwzDxshBv7--23" value="" style="pointerEvents=1;verticalLabelPosition=bottom;shadow=0;dashed=0;align=center;html=1;verticalAlign=top;shape=mxgraph.electrical.capacitors.capacitor_1;fontFamily=Helvetica;fontSize=11;fontColor=default;labelBackgroundColor=default;direction=south;" parent="1" vertex="1">
          <mxGeometry x="-570" y="430" width="20" height="50" as="geometry" />
        </mxCell>
        <mxCell id="qrl5ms6JGWwzDxshBv7--50" style="edgeStyle=orthogonalEdgeStyle;shape=connector;rounded=0;orthogonalLoop=1;jettySize=auto;html=1;exitX=0;exitY=0.5;exitDx=0;exitDy=0;exitPerimeter=0;strokeColor=default;align=center;verticalAlign=middle;fontFamily=Helvetica;fontSize=11;fontColor=default;labelBackgroundColor=default;startFill=0;endArrow=oval;endSize=4;endFill=0;" parent="1" source="qrl5ms6JGWwzDxshBv7--24" edge="1">
          <mxGeometry relative="1" as="geometry">
            <mxPoint x="-599.9615384615386" y="420" as="targetPoint" />
          </mxGeometry>
        </mxCell>
        <mxCell id="qrl5ms6JGWwzDxshBv7--24" value="" style="pointerEvents=1;verticalLabelPosition=bottom;shadow=0;dashed=0;align=center;html=1;verticalAlign=top;shape=mxgraph.electrical.capacitors.capacitor_1;fontFamily=Helvetica;fontSize=11;fontColor=default;labelBackgroundColor=default;direction=south;" parent="1" vertex="1">
          <mxGeometry x="-610" y="430" width="20" height="50" as="geometry" />
        </mxCell>
        <mxCell id="qrl5ms6JGWwzDxshBv7--51" style="edgeStyle=orthogonalEdgeStyle;shape=connector;rounded=0;orthogonalLoop=1;jettySize=auto;html=1;exitX=0;exitY=0.5;exitDx=0;exitDy=0;exitPerimeter=0;strokeColor=default;align=center;verticalAlign=middle;fontFamily=Helvetica;fontSize=11;fontColor=default;labelBackgroundColor=default;startFill=0;endArrow=oval;endSize=4;endFill=0;" parent="1" source="qrl5ms6JGWwzDxshBv7--25" edge="1">
          <mxGeometry relative="1" as="geometry">
            <mxPoint x="-639.9615384615386" y="420" as="targetPoint" />
          </mxGeometry>
        </mxCell>
        <mxCell id="qrl5ms6JGWwzDxshBv7--25" value="" style="pointerEvents=1;verticalLabelPosition=bottom;shadow=0;dashed=0;align=center;html=1;verticalAlign=top;shape=mxgraph.electrical.capacitors.capacitor_1;fontFamily=Helvetica;fontSize=11;fontColor=default;labelBackgroundColor=default;direction=south;" parent="1" vertex="1">
          <mxGeometry x="-650" y="430" width="20" height="50" as="geometry" />
        </mxCell>
        <mxCell id="qrl5ms6JGWwzDxshBv7--26" style="edgeStyle=orthogonalEdgeStyle;shape=connector;rounded=0;orthogonalLoop=1;jettySize=auto;html=1;exitX=1;exitY=0.5;exitDx=0;exitDy=0;exitPerimeter=0;entryX=1;entryY=0.5;entryDx=0;entryDy=0;entryPerimeter=0;strokeColor=default;align=center;verticalAlign=middle;fontFamily=Helvetica;fontSize=11;fontColor=default;labelBackgroundColor=default;startFill=1;endArrow=oval;startArrow=oval;endSize=4;endFill=1;startSize=4;" parent="1" source="qrl5ms6JGWwzDxshBv7--16" target="qrl5ms6JGWwzDxshBv7--20" edge="1">
          <mxGeometry relative="1" as="geometry">
            <Array as="points">
              <mxPoint x="-430" y="480" />
              <mxPoint x="-430" y="480" />
            </Array>
          </mxGeometry>
        </mxCell>
        <mxCell id="qrl5ms6JGWwzDxshBv7--27" style="edgeStyle=orthogonalEdgeStyle;shape=connector;rounded=0;orthogonalLoop=1;jettySize=auto;html=1;exitX=1;exitY=0.5;exitDx=0;exitDy=0;exitPerimeter=0;entryX=1;entryY=0.5;entryDx=0;entryDy=0;entryPerimeter=0;strokeColor=default;align=center;verticalAlign=middle;fontFamily=Helvetica;fontSize=11;fontColor=default;labelBackgroundColor=default;startFill=1;endArrow=oval;startArrow=oval;endSize=4;endFill=1;startSize=4;" parent="1" source="qrl5ms6JGWwzDxshBv7--20" target="qrl5ms6JGWwzDxshBv7--21" edge="1">
          <mxGeometry relative="1" as="geometry">
            <Array as="points">
              <mxPoint x="-460" y="480" />
              <mxPoint x="-460" y="480" />
            </Array>
          </mxGeometry>
        </mxCell>
        <mxCell id="qrl5ms6JGWwzDxshBv7--28" style="edgeStyle=orthogonalEdgeStyle;shape=connector;rounded=0;orthogonalLoop=1;jettySize=auto;html=1;exitX=1;exitY=0.5;exitDx=0;exitDy=0;exitPerimeter=0;entryX=1;entryY=0.5;entryDx=0;entryDy=0;entryPerimeter=0;strokeColor=default;align=center;verticalAlign=middle;fontFamily=Helvetica;fontSize=11;fontColor=default;labelBackgroundColor=default;startFill=1;endArrow=oval;startArrow=oval;endSize=4;endFill=1;startSize=4;" parent="1" source="qrl5ms6JGWwzDxshBv7--21" target="qrl5ms6JGWwzDxshBv7--22" edge="1">
          <mxGeometry relative="1" as="geometry">
            <Array as="points">
              <mxPoint x="-500" y="480" />
              <mxPoint x="-500" y="480" />
            </Array>
          </mxGeometry>
        </mxCell>
        <mxCell id="qrl5ms6JGWwzDxshBv7--29" style="edgeStyle=orthogonalEdgeStyle;shape=connector;rounded=0;orthogonalLoop=1;jettySize=auto;html=1;exitX=1;exitY=0.5;exitDx=0;exitDy=0;exitPerimeter=0;entryX=1;entryY=0.5;entryDx=0;entryDy=0;entryPerimeter=0;strokeColor=default;align=center;verticalAlign=middle;fontFamily=Helvetica;fontSize=11;fontColor=default;labelBackgroundColor=default;startFill=1;endArrow=oval;startArrow=oval;endSize=4;endFill=1;startSize=4;" parent="1" source="qrl5ms6JGWwzDxshBv7--22" target="qrl5ms6JGWwzDxshBv7--23" edge="1">
          <mxGeometry relative="1" as="geometry">
            <Array as="points">
              <mxPoint x="-540" y="480" />
              <mxPoint x="-540" y="480" />
            </Array>
          </mxGeometry>
        </mxCell>
        <mxCell id="qrl5ms6JGWwzDxshBv7--30" style="edgeStyle=orthogonalEdgeStyle;shape=connector;rounded=0;orthogonalLoop=1;jettySize=auto;html=1;exitX=1;exitY=0.5;exitDx=0;exitDy=0;exitPerimeter=0;entryX=1;entryY=0.5;entryDx=0;entryDy=0;entryPerimeter=0;strokeColor=default;align=center;verticalAlign=middle;fontFamily=Helvetica;fontSize=11;fontColor=default;labelBackgroundColor=default;startFill=1;endArrow=oval;startArrow=oval;endSize=4;endFill=1;startSize=4;" parent="1" source="qrl5ms6JGWwzDxshBv7--23" target="qrl5ms6JGWwzDxshBv7--24" edge="1">
          <mxGeometry relative="1" as="geometry">
            <Array as="points">
              <mxPoint x="-580" y="480" />
              <mxPoint x="-580" y="480" />
            </Array>
          </mxGeometry>
        </mxCell>
        <mxCell id="qrl5ms6JGWwzDxshBv7--31" style="edgeStyle=orthogonalEdgeStyle;shape=connector;rounded=0;orthogonalLoop=1;jettySize=auto;html=1;exitX=1;exitY=0.5;exitDx=0;exitDy=0;exitPerimeter=0;entryX=1;entryY=0.5;entryDx=0;entryDy=0;entryPerimeter=0;strokeColor=default;align=center;verticalAlign=middle;fontFamily=Helvetica;fontSize=11;fontColor=default;labelBackgroundColor=default;startFill=1;endArrow=oval;startArrow=oval;endSize=4;endFill=1;startSize=4;" parent="1" source="qrl5ms6JGWwzDxshBv7--24" target="qrl5ms6JGWwzDxshBv7--25" edge="1">
          <mxGeometry relative="1" as="geometry">
            <Array as="points">
              <mxPoint x="-620" y="480" />
              <mxPoint x="-620" y="480" />
            </Array>
          </mxGeometry>
        </mxCell>
        <mxCell id="qrl5ms6JGWwzDxshBv7--38" style="edgeStyle=orthogonalEdgeStyle;shape=connector;rounded=0;orthogonalLoop=1;jettySize=auto;html=1;exitX=0;exitY=0.5;exitDx=0;exitDy=0;exitPerimeter=0;strokeColor=default;align=center;verticalAlign=middle;fontFamily=Helvetica;fontSize=11;fontColor=default;labelBackgroundColor=default;startFill=0;endArrow=none;" parent="1" source="qrl5ms6JGWwzDxshBv7--32" edge="1">
          <mxGeometry relative="1" as="geometry">
            <mxPoint x="-640" y="480" as="targetPoint" />
          </mxGeometry>
        </mxCell>
        <mxCell id="qrl5ms6JGWwzDxshBv7--32" value="" style="pointerEvents=1;verticalLabelPosition=bottom;shadow=0;dashed=0;align=center;html=1;verticalAlign=top;shape=mxgraph.electrical.capacitors.capacitor_1;fontFamily=Helvetica;fontSize=11;fontColor=default;labelBackgroundColor=default;direction=west;" parent="1" vertex="1">
          <mxGeometry x="-700" y="470" width="50" height="20" as="geometry" />
        </mxCell>
        <mxCell id="qrl5ms6JGWwzDxshBv7--52" style="edgeStyle=orthogonalEdgeStyle;shape=connector;rounded=0;orthogonalLoop=1;jettySize=auto;html=1;exitX=1;exitY=0.5;exitDx=0;exitDy=0;exitPerimeter=0;strokeColor=default;align=center;verticalAlign=middle;fontFamily=Helvetica;fontSize=11;fontColor=default;labelBackgroundColor=default;startFill=0;endArrow=oval;endSize=4;endFill=0;" parent="1" source="qrl5ms6JGWwzDxshBv7--34" edge="1">
          <mxGeometry relative="1" as="geometry">
            <mxPoint x="-709.9615384615386" y="420" as="targetPoint" />
          </mxGeometry>
        </mxCell>
        <mxCell id="qrl5ms6JGWwzDxshBv7--34" value="" style="pointerEvents=1;verticalLabelPosition=bottom;shadow=0;dashed=0;align=center;html=1;verticalAlign=top;shape=mxgraph.electrical.capacitors.capacitor_1;fontFamily=Helvetica;fontSize=11;fontColor=default;labelBackgroundColor=default;direction=north;" parent="1" vertex="1">
          <mxGeometry x="-720" y="430" width="20" height="50" as="geometry" />
        </mxCell>
        <mxCell id="qrl5ms6JGWwzDxshBv7--41" style="edgeStyle=orthogonalEdgeStyle;shape=connector;rounded=0;orthogonalLoop=1;jettySize=auto;html=1;strokeColor=default;align=center;verticalAlign=middle;fontFamily=Helvetica;fontSize=11;fontColor=default;labelBackgroundColor=default;startFill=1;endArrow=oval;endSize=4;startSize=4;startArrow=oval;endFill=1;" parent="1" edge="1">
          <mxGeometry relative="1" as="geometry">
            <mxPoint x="-710" y="479" as="targetPoint" />
            <mxPoint x="-750" y="480" as="sourcePoint" />
            <Array as="points">
              <mxPoint x="-750" y="480" />
              <mxPoint x="-710" y="480" />
            </Array>
          </mxGeometry>
        </mxCell>
        <mxCell id="qrl5ms6JGWwzDxshBv7--53" style="edgeStyle=orthogonalEdgeStyle;shape=connector;rounded=0;orthogonalLoop=1;jettySize=auto;html=1;exitX=1;exitY=0.5;exitDx=0;exitDy=0;exitPerimeter=0;strokeColor=default;align=center;verticalAlign=middle;fontFamily=Helvetica;fontSize=11;fontColor=default;labelBackgroundColor=default;startFill=0;endArrow=oval;endSize=4;endFill=0;" parent="1" source="qrl5ms6JGWwzDxshBv7--35" edge="1">
          <mxGeometry relative="1" as="geometry">
            <mxPoint x="-749.9615384615385" y="420" as="targetPoint" />
          </mxGeometry>
        </mxCell>
        <mxCell id="qrl5ms6JGWwzDxshBv7--35" value="" style="pointerEvents=1;verticalLabelPosition=bottom;shadow=0;dashed=0;align=center;html=1;verticalAlign=top;shape=mxgraph.electrical.capacitors.capacitor_1;fontFamily=Helvetica;fontSize=11;fontColor=default;labelBackgroundColor=default;direction=north;" parent="1" vertex="1">
          <mxGeometry x="-760" y="430" width="20" height="50" as="geometry" />
        </mxCell>
        <mxCell id="qrl5ms6JGWwzDxshBv7--42" style="edgeStyle=orthogonalEdgeStyle;shape=connector;rounded=0;orthogonalLoop=1;jettySize=auto;html=1;exitX=0;exitY=0.5;exitDx=0;exitDy=0;exitPerimeter=0;strokeColor=default;align=center;verticalAlign=middle;fontFamily=Helvetica;fontSize=11;fontColor=default;labelBackgroundColor=default;startFill=1;endArrow=oval;endSize=4;startSize=4;startArrow=oval;endFill=1;" parent="1" source="qrl5ms6JGWwzDxshBv7--36" edge="1">
          <mxGeometry relative="1" as="geometry">
            <mxPoint x="-750.0000000000001" y="480.04651162790697" as="targetPoint" />
            <Array as="points">
              <mxPoint x="-750" y="480" />
            </Array>
          </mxGeometry>
        </mxCell>
        <mxCell id="qrl5ms6JGWwzDxshBv7--54" style="edgeStyle=orthogonalEdgeStyle;shape=connector;rounded=0;orthogonalLoop=1;jettySize=auto;html=1;exitX=1;exitY=0.5;exitDx=0;exitDy=0;exitPerimeter=0;strokeColor=default;align=center;verticalAlign=middle;fontFamily=Helvetica;fontSize=11;fontColor=default;labelBackgroundColor=default;startFill=0;endArrow=oval;endSize=4;endFill=0;" parent="1" source="qrl5ms6JGWwzDxshBv7--36" edge="1">
          <mxGeometry relative="1" as="geometry">
            <mxPoint x="-789.9615384615385" y="420" as="targetPoint" />
          </mxGeometry>
        </mxCell>
        <mxCell id="qrl5ms6JGWwzDxshBv7--36" value="" style="pointerEvents=1;verticalLabelPosition=bottom;shadow=0;dashed=0;align=center;html=1;verticalAlign=top;shape=mxgraph.electrical.capacitors.capacitor_1;fontFamily=Helvetica;fontSize=11;fontColor=default;labelBackgroundColor=default;direction=north;" parent="1" vertex="1">
          <mxGeometry x="-800" y="430" width="20" height="50" as="geometry" />
        </mxCell>
        <mxCell id="qrl5ms6JGWwzDxshBv7--99" style="edgeStyle=orthogonalEdgeStyle;shape=connector;rounded=0;orthogonalLoop=1;jettySize=auto;html=1;exitX=1;exitY=0.5;exitDx=0;exitDy=0;exitPerimeter=0;strokeColor=default;align=center;verticalAlign=middle;fontFamily=Helvetica;fontSize=11;fontColor=default;labelBackgroundColor=default;startFill=0;endArrow=oval;endSize=4;endFill=0;" parent="1" source="qrl5ms6JGWwzDxshBv7--37" edge="1">
          <mxGeometry relative="1" as="geometry">
            <mxPoint x="-829.8823529411765" y="420" as="targetPoint" />
          </mxGeometry>
        </mxCell>
        <mxCell id="qrl5ms6JGWwzDxshBv7--37" value="" style="pointerEvents=1;verticalLabelPosition=bottom;shadow=0;dashed=0;align=center;html=1;verticalAlign=top;shape=mxgraph.electrical.capacitors.capacitor_1;fontFamily=Helvetica;fontSize=11;fontColor=default;labelBackgroundColor=default;direction=north;" parent="1" vertex="1">
          <mxGeometry x="-840" y="430" width="20" height="50" as="geometry" />
        </mxCell>
        <mxCell id="qrl5ms6JGWwzDxshBv7--39" style="edgeStyle=orthogonalEdgeStyle;shape=connector;rounded=0;orthogonalLoop=1;jettySize=auto;html=1;exitX=1;exitY=0.5;exitDx=0;exitDy=0;exitPerimeter=0;entryX=0;entryY=0.5;entryDx=0;entryDy=0;entryPerimeter=0;strokeColor=default;align=center;verticalAlign=middle;fontFamily=Helvetica;fontSize=11;fontColor=default;labelBackgroundColor=default;startFill=0;endArrow=none;startArrow=none;" parent="1" source="qrl5ms6JGWwzDxshBv7--32" target="qrl5ms6JGWwzDxshBv7--34" edge="1">
          <mxGeometry relative="1" as="geometry" />
        </mxCell>
        <mxCell id="qrl5ms6JGWwzDxshBv7--56" value="" style="endArrow=oval;html=1;rounded=0;strokeColor=default;align=center;verticalAlign=middle;fontFamily=Helvetica;fontSize=11;fontColor=default;labelBackgroundColor=default;edgeStyle=orthogonalEdgeStyle;endSize=4;startSize=4;endFill=0;startArrow=oval;startFill=0;" parent="1" edge="1">
          <mxGeometry width="50" height="50" relative="1" as="geometry">
            <mxPoint x="-390" y="400" as="sourcePoint" />
            <mxPoint x="-390" y="370" as="targetPoint" />
          </mxGeometry>
        </mxCell>
        <mxCell id="qrl5ms6JGWwzDxshBv7--60" value="" style="endArrow=oval;html=1;rounded=0;strokeColor=default;align=center;verticalAlign=middle;fontFamily=Helvetica;fontSize=11;fontColor=default;labelBackgroundColor=default;edgeStyle=orthogonalEdgeStyle;endSize=4;startSize=4;endFill=0;startArrow=oval;startFill=0;" parent="1" edge="1">
          <mxGeometry width="50" height="50" relative="1" as="geometry">
            <mxPoint x="-430" y="400" as="sourcePoint" />
            <mxPoint x="-430" y="370" as="targetPoint" />
          </mxGeometry>
        </mxCell>
        <mxCell id="qrl5ms6JGWwzDxshBv7--61" value="" style="endArrow=oval;html=1;rounded=0;strokeColor=default;align=center;verticalAlign=middle;fontFamily=Helvetica;fontSize=11;fontColor=default;labelBackgroundColor=default;edgeStyle=orthogonalEdgeStyle;endSize=4;startSize=4;endFill=0;startArrow=oval;startFill=0;" parent="1" edge="1">
          <mxGeometry width="50" height="50" relative="1" as="geometry">
            <mxPoint x="-470" y="400" as="sourcePoint" />
            <mxPoint x="-470" y="370" as="targetPoint" />
          </mxGeometry>
        </mxCell>
        <mxCell id="qrl5ms6JGWwzDxshBv7--62" value="" style="endArrow=oval;html=1;rounded=0;strokeColor=default;align=center;verticalAlign=middle;fontFamily=Helvetica;fontSize=11;fontColor=default;labelBackgroundColor=default;edgeStyle=orthogonalEdgeStyle;endSize=4;startSize=4;endFill=0;startArrow=oval;startFill=0;" parent="1" edge="1">
          <mxGeometry width="50" height="50" relative="1" as="geometry">
            <mxPoint x="-510" y="400" as="sourcePoint" />
            <mxPoint x="-510" y="370" as="targetPoint" />
          </mxGeometry>
        </mxCell>
        <mxCell id="qrl5ms6JGWwzDxshBv7--63" value="" style="endArrow=oval;html=1;rounded=0;strokeColor=default;align=center;verticalAlign=middle;fontFamily=Helvetica;fontSize=11;fontColor=default;labelBackgroundColor=default;edgeStyle=orthogonalEdgeStyle;endSize=4;startSize=4;endFill=0;startArrow=oval;startFill=0;" parent="1" edge="1">
          <mxGeometry width="50" height="50" relative="1" as="geometry">
            <mxPoint x="-550" y="400" as="sourcePoint" />
            <mxPoint x="-550" y="370" as="targetPoint" />
          </mxGeometry>
        </mxCell>
        <mxCell id="qrl5ms6JGWwzDxshBv7--64" value="" style="endArrow=oval;html=1;rounded=0;strokeColor=default;align=center;verticalAlign=middle;fontFamily=Helvetica;fontSize=11;fontColor=default;labelBackgroundColor=default;edgeStyle=orthogonalEdgeStyle;endSize=4;startSize=4;endFill=0;startArrow=oval;startFill=0;" parent="1" edge="1">
          <mxGeometry width="50" height="50" relative="1" as="geometry">
            <mxPoint x="-590" y="400" as="sourcePoint" />
            <mxPoint x="-590" y="370" as="targetPoint" />
          </mxGeometry>
        </mxCell>
        <mxCell id="qrl5ms6JGWwzDxshBv7--67" value="" style="endArrow=oval;html=1;rounded=0;strokeColor=default;align=center;verticalAlign=middle;fontFamily=Helvetica;fontSize=11;fontColor=default;labelBackgroundColor=default;edgeStyle=orthogonalEdgeStyle;startSize=4;endSize=4;startArrow=oval;startFill=1;endFill=1;" parent="1" edge="1">
          <mxGeometry width="50" height="50" relative="1" as="geometry">
            <mxPoint x="-430" y="390" as="sourcePoint" />
            <mxPoint x="-390" y="390" as="targetPoint" />
            <Array as="points">
              <mxPoint x="-420" y="390" />
            </Array>
          </mxGeometry>
        </mxCell>
        <mxCell id="qrl5ms6JGWwzDxshBv7--68" value="" style="endArrow=oval;html=1;rounded=0;strokeColor=default;align=center;verticalAlign=middle;fontFamily=Helvetica;fontSize=11;fontColor=default;labelBackgroundColor=default;edgeStyle=orthogonalEdgeStyle;startSize=4;endSize=4;startArrow=oval;startFill=1;endFill=1;" parent="1" edge="1">
          <mxGeometry width="50" height="50" relative="1" as="geometry">
            <mxPoint x="-470" y="390" as="sourcePoint" />
            <mxPoint x="-430" y="390" as="targetPoint" />
            <Array as="points">
              <mxPoint x="-460" y="390" />
            </Array>
          </mxGeometry>
        </mxCell>
        <mxCell id="qrl5ms6JGWwzDxshBv7--69" value="" style="endArrow=oval;html=1;rounded=0;strokeColor=default;align=center;verticalAlign=middle;fontFamily=Helvetica;fontSize=11;fontColor=default;labelBackgroundColor=default;edgeStyle=orthogonalEdgeStyle;startSize=4;endSize=4;startArrow=oval;startFill=1;endFill=1;" parent="1" edge="1">
          <mxGeometry width="50" height="50" relative="1" as="geometry">
            <mxPoint x="-510" y="390" as="sourcePoint" />
            <mxPoint x="-470" y="390" as="targetPoint" />
            <Array as="points">
              <mxPoint x="-500" y="390" />
            </Array>
          </mxGeometry>
        </mxCell>
        <mxCell id="qrl5ms6JGWwzDxshBv7--70" value="" style="endArrow=oval;html=1;rounded=0;strokeColor=default;align=center;verticalAlign=middle;fontFamily=Helvetica;fontSize=11;fontColor=default;labelBackgroundColor=default;edgeStyle=orthogonalEdgeStyle;startSize=4;endSize=4;startArrow=oval;startFill=1;endFill=1;" parent="1" edge="1">
          <mxGeometry width="50" height="50" relative="1" as="geometry">
            <mxPoint x="-550" y="390" as="sourcePoint" />
            <mxPoint x="-510" y="390" as="targetPoint" />
            <Array as="points">
              <mxPoint x="-540" y="390" />
            </Array>
          </mxGeometry>
        </mxCell>
        <mxCell id="qrl5ms6JGWwzDxshBv7--71" value="" style="endArrow=oval;html=1;rounded=0;strokeColor=default;align=center;verticalAlign=middle;fontFamily=Helvetica;fontSize=11;fontColor=default;labelBackgroundColor=default;edgeStyle=orthogonalEdgeStyle;startSize=4;endSize=4;startArrow=oval;startFill=1;endFill=1;" parent="1" edge="1">
          <mxGeometry width="50" height="50" relative="1" as="geometry">
            <mxPoint x="-590" y="390" as="sourcePoint" />
            <mxPoint x="-550" y="390" as="targetPoint" />
            <Array as="points">
              <mxPoint x="-580" y="390" />
            </Array>
          </mxGeometry>
        </mxCell>
        <mxCell id="qrl5ms6JGWwzDxshBv7--72" value="" style="endArrow=oval;html=1;rounded=0;strokeColor=default;align=center;verticalAlign=middle;fontFamily=Helvetica;fontSize=11;fontColor=default;labelBackgroundColor=default;edgeStyle=orthogonalEdgeStyle;endSize=4;startSize=4;endFill=0;startArrow=oval;startFill=0;" parent="1" edge="1">
          <mxGeometry width="50" height="50" relative="1" as="geometry">
            <mxPoint x="-410" y="400" as="sourcePoint" />
            <mxPoint x="-410" y="370" as="targetPoint" />
          </mxGeometry>
        </mxCell>
        <mxCell id="qrl5ms6JGWwzDxshBv7--73" value="" style="endArrow=oval;html=1;rounded=0;strokeColor=default;align=center;verticalAlign=middle;fontFamily=Helvetica;fontSize=11;fontColor=default;labelBackgroundColor=default;edgeStyle=orthogonalEdgeStyle;endSize=4;startSize=4;endFill=0;startArrow=oval;startFill=0;" parent="1" edge="1">
          <mxGeometry width="50" height="50" relative="1" as="geometry">
            <mxPoint x="-450" y="400" as="sourcePoint" />
            <mxPoint x="-450" y="370" as="targetPoint" />
          </mxGeometry>
        </mxCell>
        <mxCell id="qrl5ms6JGWwzDxshBv7--74" value="" style="endArrow=oval;html=1;rounded=0;strokeColor=default;align=center;verticalAlign=middle;fontFamily=Helvetica;fontSize=11;fontColor=default;labelBackgroundColor=default;edgeStyle=orthogonalEdgeStyle;endSize=4;startSize=4;endFill=0;startArrow=oval;startFill=0;" parent="1" edge="1">
          <mxGeometry width="50" height="50" relative="1" as="geometry">
            <mxPoint x="-490" y="400" as="sourcePoint" />
            <mxPoint x="-490" y="370" as="targetPoint" />
          </mxGeometry>
        </mxCell>
        <mxCell id="qrl5ms6JGWwzDxshBv7--75" value="" style="endArrow=oval;html=1;rounded=0;strokeColor=default;align=center;verticalAlign=middle;fontFamily=Helvetica;fontSize=11;fontColor=default;labelBackgroundColor=default;edgeStyle=orthogonalEdgeStyle;endSize=4;startSize=4;endFill=0;startArrow=oval;startFill=0;" parent="1" edge="1">
          <mxGeometry width="50" height="50" relative="1" as="geometry">
            <mxPoint x="-530" y="400" as="sourcePoint" />
            <mxPoint x="-530" y="370" as="targetPoint" />
          </mxGeometry>
        </mxCell>
        <mxCell id="qrl5ms6JGWwzDxshBv7--76" value="" style="endArrow=oval;html=1;rounded=0;strokeColor=default;align=center;verticalAlign=middle;fontFamily=Helvetica;fontSize=11;fontColor=default;labelBackgroundColor=default;edgeStyle=orthogonalEdgeStyle;endSize=4;startSize=4;endFill=0;startArrow=oval;startFill=0;" parent="1" edge="1">
          <mxGeometry width="50" height="50" relative="1" as="geometry">
            <mxPoint x="-570" y="400" as="sourcePoint" />
            <mxPoint x="-570" y="370" as="targetPoint" />
          </mxGeometry>
        </mxCell>
        <mxCell id="qrl5ms6JGWwzDxshBv7--77" value="" style="endArrow=oval;html=1;rounded=0;strokeColor=default;align=center;verticalAlign=middle;fontFamily=Helvetica;fontSize=11;fontColor=default;labelBackgroundColor=default;edgeStyle=orthogonalEdgeStyle;endSize=4;startSize=4;endFill=0;startArrow=oval;startFill=0;" parent="1" edge="1">
          <mxGeometry width="50" height="50" relative="1" as="geometry">
            <mxPoint x="-610" y="400" as="sourcePoint" />
            <mxPoint x="-610" y="370" as="targetPoint" />
          </mxGeometry>
        </mxCell>
        <mxCell id="qrl5ms6JGWwzDxshBv7--78" value="" style="endArrow=oval;html=1;rounded=0;strokeColor=default;align=center;verticalAlign=middle;fontFamily=Helvetica;fontSize=11;fontColor=default;labelBackgroundColor=default;edgeStyle=orthogonalEdgeStyle;startSize=4;endSize=4;startArrow=oval;startFill=1;endFill=1;" parent="1" edge="1">
          <mxGeometry width="50" height="50" relative="1" as="geometry">
            <mxPoint x="-449.86" y="380" as="sourcePoint" />
            <mxPoint x="-409.86" y="380" as="targetPoint" />
            <Array as="points">
              <mxPoint x="-439.86" y="380" />
            </Array>
          </mxGeometry>
        </mxCell>
        <mxCell id="qrl5ms6JGWwzDxshBv7--79" value="" style="endArrow=oval;html=1;rounded=0;strokeColor=default;align=center;verticalAlign=middle;fontFamily=Helvetica;fontSize=11;fontColor=default;labelBackgroundColor=default;edgeStyle=orthogonalEdgeStyle;startSize=4;endSize=4;startArrow=oval;startFill=1;endFill=1;" parent="1" edge="1">
          <mxGeometry width="50" height="50" relative="1" as="geometry">
            <mxPoint x="-489.86" y="380" as="sourcePoint" />
            <mxPoint x="-449.86" y="380" as="targetPoint" />
            <Array as="points">
              <mxPoint x="-479.86" y="380" />
            </Array>
          </mxGeometry>
        </mxCell>
        <mxCell id="qrl5ms6JGWwzDxshBv7--80" value="" style="endArrow=oval;html=1;rounded=0;strokeColor=default;align=center;verticalAlign=middle;fontFamily=Helvetica;fontSize=11;fontColor=default;labelBackgroundColor=default;edgeStyle=orthogonalEdgeStyle;startSize=4;endSize=4;startArrow=oval;startFill=1;endFill=1;" parent="1" edge="1">
          <mxGeometry width="50" height="50" relative="1" as="geometry">
            <mxPoint x="-529.86" y="380" as="sourcePoint" />
            <mxPoint x="-489.86" y="380" as="targetPoint" />
            <Array as="points">
              <mxPoint x="-519.86" y="380" />
            </Array>
          </mxGeometry>
        </mxCell>
        <mxCell id="qrl5ms6JGWwzDxshBv7--81" value="" style="endArrow=oval;html=1;rounded=0;strokeColor=default;align=center;verticalAlign=middle;fontFamily=Helvetica;fontSize=11;fontColor=default;labelBackgroundColor=default;edgeStyle=orthogonalEdgeStyle;startSize=4;endSize=4;startArrow=oval;startFill=1;endFill=1;" parent="1" edge="1">
          <mxGeometry width="50" height="50" relative="1" as="geometry">
            <mxPoint x="-569.86" y="380" as="sourcePoint" />
            <mxPoint x="-529.86" y="380" as="targetPoint" />
            <Array as="points">
              <mxPoint x="-559.86" y="380" />
            </Array>
          </mxGeometry>
        </mxCell>
        <mxCell id="qrl5ms6JGWwzDxshBv7--82" value="" style="endArrow=oval;html=1;rounded=0;strokeColor=default;align=center;verticalAlign=middle;fontFamily=Helvetica;fontSize=11;fontColor=default;labelBackgroundColor=default;edgeStyle=orthogonalEdgeStyle;startSize=4;endSize=4;startArrow=oval;startFill=1;endFill=1;" parent="1" edge="1">
          <mxGeometry width="50" height="50" relative="1" as="geometry">
            <mxPoint x="-609.86" y="380" as="sourcePoint" />
            <mxPoint x="-569.86" y="380" as="targetPoint" />
            <Array as="points">
              <mxPoint x="-599.86" y="380" />
            </Array>
          </mxGeometry>
        </mxCell>
        <mxCell id="qrl5ms6JGWwzDxshBv7--83" value="" style="endArrow=oval;html=1;rounded=0;strokeColor=default;align=center;verticalAlign=middle;fontFamily=Helvetica;fontSize=11;fontColor=default;labelBackgroundColor=default;edgeStyle=orthogonalEdgeStyle;startSize=4;endSize=4;startArrow=oval;startFill=1;endFill=1;" parent="1" edge="1">
          <mxGeometry width="50" height="50" relative="1" as="geometry">
            <mxPoint x="-630" y="390" as="sourcePoint" />
            <mxPoint x="-590" y="390" as="targetPoint" />
            <Array as="points">
              <mxPoint x="-620" y="390" />
            </Array>
          </mxGeometry>
        </mxCell>
        <mxCell id="qrl5ms6JGWwzDxshBv7--84" value="" style="endArrow=oval;html=1;rounded=0;strokeColor=default;align=center;verticalAlign=middle;fontFamily=Helvetica;fontSize=11;fontColor=default;labelBackgroundColor=default;edgeStyle=orthogonalEdgeStyle;startSize=4;endSize=4;startArrow=oval;startFill=1;endFill=1;" parent="1" edge="1">
          <mxGeometry width="50" height="50" relative="1" as="geometry">
            <mxPoint x="-650" y="380" as="sourcePoint" />
            <mxPoint x="-610" y="380" as="targetPoint" />
            <Array as="points">
              <mxPoint x="-640" y="380" />
            </Array>
          </mxGeometry>
        </mxCell>
        <mxCell id="qrl5ms6JGWwzDxshBv7--85" value="" style="endArrow=none;html=1;rounded=0;strokeColor=default;align=center;verticalAlign=middle;fontFamily=Helvetica;fontSize=11;fontColor=default;labelBackgroundColor=default;edgeStyle=orthogonalEdgeStyle;endSize=4;startSize=4;endFill=0;startArrow=oval;startFill=0;" parent="1" edge="1">
          <mxGeometry width="50" height="50" relative="1" as="geometry">
            <mxPoint x="-630" y="400" as="sourcePoint" />
            <mxPoint x="-630" y="390" as="targetPoint" />
          </mxGeometry>
        </mxCell>
        <mxCell id="qrl5ms6JGWwzDxshBv7--86" value="" style="endArrow=none;html=1;rounded=0;strokeColor=default;align=center;verticalAlign=middle;fontFamily=Helvetica;fontSize=11;fontColor=default;labelBackgroundColor=default;edgeStyle=orthogonalEdgeStyle;endSize=4;startSize=4;endFill=0;startArrow=oval;startFill=0;" parent="1" edge="1">
          <mxGeometry width="50" height="50" relative="1" as="geometry">
            <mxPoint x="-650" y="400" as="sourcePoint" />
            <mxPoint x="-650" y="380" as="targetPoint" />
            <Array as="points">
              <mxPoint x="-650" y="390" />
              <mxPoint x="-650" y="390" />
            </Array>
          </mxGeometry>
        </mxCell>
        <mxCell id="qrl5ms6JGWwzDxshBv7--87" value="" style="endArrow=oval;html=1;rounded=0;strokeColor=default;align=center;verticalAlign=middle;fontFamily=Helvetica;fontSize=11;fontColor=default;labelBackgroundColor=default;edgeStyle=orthogonalEdgeStyle;startSize=4;endSize=4;startArrow=oval;startFill=1;endFill=1;" parent="1" edge="1">
          <mxGeometry width="50" height="50" relative="1" as="geometry">
            <mxPoint x="-700" y="390" as="sourcePoint" />
            <mxPoint x="-630" y="390" as="targetPoint" />
            <Array as="points">
              <mxPoint x="-660" y="390" />
            </Array>
          </mxGeometry>
        </mxCell>
        <mxCell id="qrl5ms6JGWwzDxshBv7--88" value="" style="endArrow=oval;html=1;rounded=0;strokeColor=default;align=center;verticalAlign=middle;fontFamily=Helvetica;fontSize=11;fontColor=default;labelBackgroundColor=default;edgeStyle=orthogonalEdgeStyle;startSize=4;endSize=4;startArrow=oval;startFill=1;endFill=1;" parent="1" edge="1">
          <mxGeometry width="50" height="50" relative="1" as="geometry">
            <mxPoint x="-720" y="380" as="sourcePoint" />
            <mxPoint x="-650" y="380" as="targetPoint" />
            <Array as="points">
              <mxPoint x="-680" y="380" />
            </Array>
          </mxGeometry>
        </mxCell>
        <mxCell id="qrl5ms6JGWwzDxshBv7--89" value="" style="endArrow=none;html=1;rounded=0;strokeColor=default;align=center;verticalAlign=middle;fontFamily=Helvetica;fontSize=11;fontColor=default;labelBackgroundColor=default;edgeStyle=orthogonalEdgeStyle;endSize=4;startSize=4;endFill=0;startArrow=oval;startFill=0;" parent="1" edge="1">
          <mxGeometry width="50" height="50" relative="1" as="geometry">
            <mxPoint x="-700.11" y="400" as="sourcePoint" />
            <mxPoint x="-700.11" y="390" as="targetPoint" />
          </mxGeometry>
        </mxCell>
        <mxCell id="qrl5ms6JGWwzDxshBv7--90" value="" style="endArrow=none;html=1;rounded=0;strokeColor=default;align=center;verticalAlign=middle;fontFamily=Helvetica;fontSize=11;fontColor=default;labelBackgroundColor=default;edgeStyle=orthogonalEdgeStyle;endSize=4;startSize=4;endFill=0;startArrow=oval;startFill=0;" parent="1" edge="1">
          <mxGeometry width="50" height="50" relative="1" as="geometry">
            <mxPoint x="-720" y="400" as="sourcePoint" />
            <mxPoint x="-720" y="380" as="targetPoint" />
            <Array as="points">
              <mxPoint x="-720" y="390" />
              <mxPoint x="-720" y="390" />
            </Array>
          </mxGeometry>
        </mxCell>
        <mxCell id="qrl5ms6JGWwzDxshBv7--91" value="" style="endArrow=none;html=1;rounded=0;strokeColor=default;align=center;verticalAlign=middle;fontFamily=Helvetica;fontSize=11;fontColor=default;labelBackgroundColor=default;edgeStyle=orthogonalEdgeStyle;endSize=4;startSize=4;endFill=0;startArrow=oval;startFill=0;" parent="1" edge="1">
          <mxGeometry width="50" height="50" relative="1" as="geometry">
            <mxPoint x="-740.11" y="400" as="sourcePoint" />
            <mxPoint x="-740.11" y="390" as="targetPoint" />
          </mxGeometry>
        </mxCell>
        <mxCell id="qrl5ms6JGWwzDxshBv7--92" value="" style="endArrow=none;html=1;rounded=0;strokeColor=default;align=center;verticalAlign=middle;fontFamily=Helvetica;fontSize=11;fontColor=default;labelBackgroundColor=default;edgeStyle=orthogonalEdgeStyle;endSize=4;startSize=4;endFill=0;startArrow=oval;startFill=0;" parent="1" edge="1">
          <mxGeometry width="50" height="50" relative="1" as="geometry">
            <mxPoint x="-760" y="400" as="sourcePoint" />
            <mxPoint x="-760" y="380" as="targetPoint" />
            <Array as="points">
              <mxPoint x="-760" y="390" />
              <mxPoint x="-760" y="390" />
            </Array>
          </mxGeometry>
        </mxCell>
        <mxCell id="qrl5ms6JGWwzDxshBv7--93" value="" style="endArrow=none;html=1;rounded=0;strokeColor=default;align=center;verticalAlign=middle;fontFamily=Helvetica;fontSize=11;fontColor=default;labelBackgroundColor=default;edgeStyle=orthogonalEdgeStyle;endSize=4;startSize=4;endFill=0;startArrow=oval;startFill=0;" parent="1" edge="1">
          <mxGeometry width="50" height="50" relative="1" as="geometry">
            <mxPoint x="-780.23" y="400" as="sourcePoint" />
            <mxPoint x="-780.23" y="390" as="targetPoint" />
          </mxGeometry>
        </mxCell>
        <mxCell id="qrl5ms6JGWwzDxshBv7--94" value="" style="endArrow=none;html=1;rounded=0;strokeColor=default;align=center;verticalAlign=middle;fontFamily=Helvetica;fontSize=11;fontColor=default;labelBackgroundColor=default;edgeStyle=orthogonalEdgeStyle;endSize=4;startSize=4;endFill=0;startArrow=oval;startFill=0;" parent="1" edge="1">
          <mxGeometry width="50" height="50" relative="1" as="geometry">
            <mxPoint x="-800.12" y="400" as="sourcePoint" />
            <mxPoint x="-800.12" y="380" as="targetPoint" />
            <Array as="points">
              <mxPoint x="-800.12" y="390" />
              <mxPoint x="-800.12" y="390" />
            </Array>
          </mxGeometry>
        </mxCell>
        <mxCell id="qrl5ms6JGWwzDxshBv7--95" value="" style="endArrow=none;html=1;rounded=0;strokeColor=default;align=center;verticalAlign=middle;fontFamily=Helvetica;fontSize=11;fontColor=default;labelBackgroundColor=default;edgeStyle=orthogonalEdgeStyle;endSize=4;startSize=4;endFill=0;startArrow=oval;startFill=0;" parent="1" edge="1">
          <mxGeometry width="50" height="50" relative="1" as="geometry">
            <mxPoint x="-820.11" y="400" as="sourcePoint" />
            <mxPoint x="-820.11" y="390" as="targetPoint" />
          </mxGeometry>
        </mxCell>
        <mxCell id="qrl5ms6JGWwzDxshBv7--96" value="" style="endArrow=none;html=1;rounded=0;strokeColor=default;align=center;verticalAlign=middle;fontFamily=Helvetica;fontSize=11;fontColor=default;labelBackgroundColor=default;edgeStyle=orthogonalEdgeStyle;endSize=4;startSize=4;endFill=0;startArrow=oval;startFill=0;" parent="1" edge="1">
          <mxGeometry width="50" height="50" relative="1" as="geometry">
            <mxPoint x="-840" y="400" as="sourcePoint" />
            <mxPoint x="-840" y="380" as="targetPoint" />
            <Array as="points">
              <mxPoint x="-840" y="390" />
              <mxPoint x="-840" y="390" />
            </Array>
          </mxGeometry>
        </mxCell>
        <mxCell id="qrl5ms6JGWwzDxshBv7--97" style="edgeStyle=orthogonalEdgeStyle;shape=connector;rounded=0;orthogonalLoop=1;jettySize=auto;html=1;exitX=0;exitY=0.5;exitDx=0;exitDy=0;exitPerimeter=0;strokeColor=default;align=center;verticalAlign=middle;fontFamily=Helvetica;fontSize=11;fontColor=default;labelBackgroundColor=default;startFill=1;endArrow=oval;endSize=4;startSize=4;startArrow=oval;endFill=1;" parent="1" edge="1">
          <mxGeometry relative="1" as="geometry">
            <mxPoint x="-790.0000000000001" y="479.80651162790696" as="targetPoint" />
            <mxPoint x="-830" y="479.76" as="sourcePoint" />
            <Array as="points">
              <mxPoint x="-790" y="479.76" />
            </Array>
          </mxGeometry>
        </mxCell>
        <mxCell id="qrl5ms6JGWwzDxshBv7--100" value="" style="endArrow=oval;html=1;rounded=0;strokeColor=default;align=center;verticalAlign=middle;fontFamily=Helvetica;fontSize=11;fontColor=default;labelBackgroundColor=default;edgeStyle=orthogonalEdgeStyle;startSize=4;endSize=4;startArrow=oval;startFill=1;endFill=1;" parent="1" edge="1">
          <mxGeometry width="50" height="50" relative="1" as="geometry">
            <mxPoint x="-740" y="390" as="sourcePoint" />
            <mxPoint x="-700" y="390" as="targetPoint" />
            <Array as="points">
              <mxPoint x="-730" y="390" />
            </Array>
          </mxGeometry>
        </mxCell>
        <mxCell id="qrl5ms6JGWwzDxshBv7--101" value="" style="endArrow=oval;html=1;rounded=0;strokeColor=default;align=center;verticalAlign=middle;fontFamily=Helvetica;fontSize=11;fontColor=default;labelBackgroundColor=default;edgeStyle=orthogonalEdgeStyle;startSize=4;endSize=4;startArrow=oval;startFill=1;endFill=1;" parent="1" edge="1">
          <mxGeometry width="50" height="50" relative="1" as="geometry">
            <mxPoint x="-760" y="380" as="sourcePoint" />
            <mxPoint x="-720" y="380" as="targetPoint" />
            <Array as="points">
              <mxPoint x="-750" y="380" />
            </Array>
          </mxGeometry>
        </mxCell>
        <mxCell id="qrl5ms6JGWwzDxshBv7--102" value="" style="endArrow=oval;html=1;rounded=0;strokeColor=default;align=center;verticalAlign=middle;fontFamily=Helvetica;fontSize=11;fontColor=default;labelBackgroundColor=default;edgeStyle=orthogonalEdgeStyle;startSize=4;endSize=4;startArrow=oval;startFill=1;endFill=1;" parent="1" edge="1">
          <mxGeometry width="50" height="50" relative="1" as="geometry">
            <mxPoint x="-780" y="390" as="sourcePoint" />
            <mxPoint x="-740" y="390" as="targetPoint" />
            <Array as="points">
              <mxPoint x="-770" y="390" />
            </Array>
          </mxGeometry>
        </mxCell>
        <mxCell id="qrl5ms6JGWwzDxshBv7--103" value="" style="endArrow=oval;html=1;rounded=0;strokeColor=default;align=center;verticalAlign=middle;fontFamily=Helvetica;fontSize=11;fontColor=default;labelBackgroundColor=default;edgeStyle=orthogonalEdgeStyle;startSize=4;endSize=4;startArrow=oval;startFill=1;endFill=1;" parent="1" edge="1">
          <mxGeometry width="50" height="50" relative="1" as="geometry">
            <mxPoint x="-800" y="380" as="sourcePoint" />
            <mxPoint x="-760" y="380" as="targetPoint" />
            <Array as="points">
              <mxPoint x="-790" y="380" />
            </Array>
          </mxGeometry>
        </mxCell>
        <mxCell id="qrl5ms6JGWwzDxshBv7--104" value="" style="endArrow=oval;html=1;rounded=0;strokeColor=default;align=center;verticalAlign=middle;fontFamily=Helvetica;fontSize=11;fontColor=default;labelBackgroundColor=default;edgeStyle=orthogonalEdgeStyle;startSize=4;endSize=4;startArrow=oval;startFill=1;endFill=1;" parent="1" edge="1">
          <mxGeometry width="50" height="50" relative="1" as="geometry">
            <mxPoint x="-820" y="390" as="sourcePoint" />
            <mxPoint x="-780" y="390" as="targetPoint" />
            <Array as="points">
              <mxPoint x="-810" y="390" />
            </Array>
          </mxGeometry>
        </mxCell>
        <mxCell id="qrl5ms6JGWwzDxshBv7--105" value="" style="endArrow=oval;html=1;rounded=0;strokeColor=default;align=center;verticalAlign=middle;fontFamily=Helvetica;fontSize=11;fontColor=default;labelBackgroundColor=default;edgeStyle=orthogonalEdgeStyle;startSize=4;endSize=4;startArrow=oval;startFill=1;endFill=1;" parent="1" edge="1">
          <mxGeometry width="50" height="50" relative="1" as="geometry">
            <mxPoint x="-840" y="380" as="sourcePoint" />
            <mxPoint x="-800" y="380" as="targetPoint" />
            <Array as="points">
              <mxPoint x="-830" y="380" />
            </Array>
          </mxGeometry>
        </mxCell>
        <mxCell id="qrl5ms6JGWwzDxshBv7--106" value="" style="endArrow=oval;html=1;rounded=0;strokeColor=default;align=center;verticalAlign=middle;fontFamily=Helvetica;fontSize=11;fontColor=default;labelBackgroundColor=default;edgeStyle=orthogonalEdgeStyle;startSize=4;endSize=4;startArrow=none;startFill=0;endFill=1;" parent="1" edge="1">
          <mxGeometry width="50" height="50" relative="1" as="geometry">
            <mxPoint x="-910" y="380" as="sourcePoint" />
            <mxPoint x="-840" y="380" as="targetPoint" />
            <Array as="points">
              <mxPoint x="-870" y="380" />
            </Array>
          </mxGeometry>
        </mxCell>
        <mxCell id="qrl5ms6JGWwzDxshBv7--107" value="" style="endArrow=oval;html=1;rounded=0;strokeColor=default;align=center;verticalAlign=middle;fontFamily=Helvetica;fontSize=11;fontColor=default;labelBackgroundColor=default;edgeStyle=orthogonalEdgeStyle;startSize=4;endSize=4;startArrow=none;startFill=0;endFill=1;" parent="1" edge="1">
          <mxGeometry width="50" height="50" relative="1" as="geometry">
            <mxPoint x="-910" y="390" as="sourcePoint" />
            <mxPoint x="-820" y="390" as="targetPoint" />
            <Array as="points">
              <mxPoint x="-850" y="390" />
            </Array>
          </mxGeometry>
        </mxCell>
        <mxCell id="qrl5ms6JGWwzDxshBv7--110" style="edgeStyle=orthogonalEdgeStyle;shape=connector;rounded=0;orthogonalLoop=1;jettySize=auto;html=1;exitX=1;exitY=0.5;exitDx=0;exitDy=0;exitPerimeter=0;strokeColor=default;align=center;verticalAlign=middle;fontFamily=Helvetica;fontSize=11;fontColor=default;labelBackgroundColor=default;startFill=0;endArrow=oval;endSize=4;endFill=1;" parent="1" source="qrl5ms6JGWwzDxshBv7--108" edge="1">
          <mxGeometry relative="1" as="geometry">
            <mxPoint x="-870" y="390" as="targetPoint" />
          </mxGeometry>
        </mxCell>
        <mxCell id="qrl5ms6JGWwzDxshBv7--108" value="" style="pointerEvents=1;verticalLabelPosition=bottom;shadow=0;dashed=0;align=center;html=1;verticalAlign=top;shape=mxgraph.electrical.capacitors.variable_capacitor_1;fontFamily=Helvetica;fontSize=11;fontColor=default;labelBackgroundColor=default;direction=south;flipV=1;" parent="1" vertex="1">
          <mxGeometry x="-880" y="430" width="20" height="50" as="geometry" />
        </mxCell>
        <mxCell id="qrl5ms6JGWwzDxshBv7--109" style="edgeStyle=orthogonalEdgeStyle;shape=connector;rounded=0;orthogonalLoop=1;jettySize=auto;html=1;exitX=0;exitY=0.5;exitDx=0;exitDy=0;exitPerimeter=0;strokeColor=default;align=center;verticalAlign=middle;fontFamily=Helvetica;fontSize=11;fontColor=default;labelBackgroundColor=default;startFill=1;endArrow=oval;endSize=4;startSize=4;startArrow=oval;endFill=1;" parent="1" edge="1">
          <mxGeometry relative="1" as="geometry">
            <mxPoint x="-830.0000000000001" y="480.04651162790697" as="targetPoint" />
            <mxPoint x="-870" y="480" as="sourcePoint" />
            <Array as="points">
              <mxPoint x="-830" y="480" />
            </Array>
          </mxGeometry>
        </mxCell>
        <mxCell id="qrl5ms6JGWwzDxshBv7--182" style="edgeStyle=orthogonalEdgeStyle;shape=connector;rounded=0;orthogonalLoop=1;jettySize=auto;html=1;exitX=0;exitY=0.5;exitDx=0;exitDy=0;exitPerimeter=0;strokeColor=default;align=center;verticalAlign=middle;fontFamily=Helvetica;fontSize=11;fontColor=default;labelBackgroundColor=default;startFill=0;endArrow=oval;endFill=1;endSize=4;" parent="1" source="qrl5ms6JGWwzDxshBv7--174" edge="1">
          <mxGeometry relative="1" as="geometry">
            <mxPoint x="-360" y="584" as="targetPoint" />
            <Array as="points">
              <mxPoint x="-360" y="620" />
            </Array>
          </mxGeometry>
        </mxCell>
        <mxCell id="qrl5ms6JGWwzDxshBv7--202" style="edgeStyle=orthogonalEdgeStyle;shape=connector;rounded=0;orthogonalLoop=1;jettySize=auto;html=1;exitX=1;exitY=0.5;exitDx=0;exitDy=0;exitPerimeter=0;strokeColor=default;align=center;verticalAlign=middle;fontFamily=Helvetica;fontSize=11;fontColor=default;labelBackgroundColor=default;startFill=0;endArrow=oval;endSize=4;endFill=0;" parent="1" source="qrl5ms6JGWwzDxshBv7--174" edge="1">
          <mxGeometry relative="1" as="geometry">
            <mxPoint x="-400" y="680" as="targetPoint" />
          </mxGeometry>
        </mxCell>
        <mxCell id="qrl5ms6JGWwzDxshBv7--174" value="" style="pointerEvents=1;verticalLabelPosition=bottom;shadow=0;dashed=0;align=center;html=1;verticalAlign=top;shape=mxgraph.electrical.capacitors.capacitor_1;fontFamily=Helvetica;fontSize=11;fontColor=default;labelBackgroundColor=default;direction=south;" parent="1" vertex="1">
          <mxGeometry x="-410" y="620" width="20" height="50" as="geometry" />
        </mxCell>
        <mxCell id="qrl5ms6JGWwzDxshBv7--203" style="edgeStyle=orthogonalEdgeStyle;shape=connector;rounded=0;orthogonalLoop=1;jettySize=auto;html=1;exitX=1;exitY=0.5;exitDx=0;exitDy=0;exitPerimeter=0;strokeColor=default;align=center;verticalAlign=middle;fontFamily=Helvetica;fontSize=11;fontColor=default;labelBackgroundColor=default;startFill=0;endArrow=oval;endSize=4;endFill=0;" parent="1" source="qrl5ms6JGWwzDxshBv7--175" edge="1">
          <mxGeometry relative="1" as="geometry">
            <mxPoint x="-440" y="680" as="targetPoint" />
          </mxGeometry>
        </mxCell>
        <mxCell id="qrl5ms6JGWwzDxshBv7--175" value="" style="pointerEvents=1;verticalLabelPosition=bottom;shadow=0;dashed=0;align=center;html=1;verticalAlign=top;shape=mxgraph.electrical.capacitors.capacitor_1;fontFamily=Helvetica;fontSize=11;fontColor=default;labelBackgroundColor=default;direction=south;" parent="1" vertex="1">
          <mxGeometry x="-450" y="620" width="20" height="50" as="geometry" />
        </mxCell>
        <mxCell id="qrl5ms6JGWwzDxshBv7--204" style="edgeStyle=orthogonalEdgeStyle;shape=connector;rounded=0;orthogonalLoop=1;jettySize=auto;html=1;exitX=1;exitY=0.5;exitDx=0;exitDy=0;exitPerimeter=0;strokeColor=default;align=center;verticalAlign=middle;fontFamily=Helvetica;fontSize=11;fontColor=default;labelBackgroundColor=default;startFill=0;endArrow=oval;endSize=4;endFill=0;" parent="1" source="qrl5ms6JGWwzDxshBv7--176" edge="1">
          <mxGeometry relative="1" as="geometry">
            <mxPoint x="-480" y="680" as="targetPoint" />
          </mxGeometry>
        </mxCell>
        <mxCell id="qrl5ms6JGWwzDxshBv7--176" value="" style="pointerEvents=1;verticalLabelPosition=bottom;shadow=0;dashed=0;align=center;html=1;verticalAlign=top;shape=mxgraph.electrical.capacitors.capacitor_1;fontFamily=Helvetica;fontSize=11;fontColor=default;labelBackgroundColor=default;direction=south;" parent="1" vertex="1">
          <mxGeometry x="-490" y="620" width="20" height="50" as="geometry" />
        </mxCell>
        <mxCell id="qrl5ms6JGWwzDxshBv7--205" style="edgeStyle=orthogonalEdgeStyle;shape=connector;rounded=0;orthogonalLoop=1;jettySize=auto;html=1;exitX=1;exitY=0.5;exitDx=0;exitDy=0;exitPerimeter=0;strokeColor=default;align=center;verticalAlign=middle;fontFamily=Helvetica;fontSize=11;fontColor=default;labelBackgroundColor=default;startFill=0;endArrow=oval;endSize=4;endFill=0;" parent="1" source="qrl5ms6JGWwzDxshBv7--177" edge="1">
          <mxGeometry relative="1" as="geometry">
            <mxPoint x="-520" y="680" as="targetPoint" />
          </mxGeometry>
        </mxCell>
        <mxCell id="qrl5ms6JGWwzDxshBv7--177" value="" style="pointerEvents=1;verticalLabelPosition=bottom;shadow=0;dashed=0;align=center;html=1;verticalAlign=top;shape=mxgraph.electrical.capacitors.capacitor_1;fontFamily=Helvetica;fontSize=11;fontColor=default;labelBackgroundColor=default;direction=south;" parent="1" vertex="1">
          <mxGeometry x="-530" y="620" width="20" height="50" as="geometry" />
        </mxCell>
        <mxCell id="qrl5ms6JGWwzDxshBv7--186" style="edgeStyle=orthogonalEdgeStyle;shape=connector;rounded=0;orthogonalLoop=1;jettySize=auto;html=1;exitX=0;exitY=0.5;exitDx=0;exitDy=0;exitPerimeter=0;strokeColor=default;align=center;verticalAlign=middle;fontFamily=Helvetica;fontSize=11;fontColor=default;labelBackgroundColor=default;startFill=1;endArrow=oval;endSize=4;startSize=4;startArrow=oval;endFill=1;" parent="1" source="qrl5ms6JGWwzDxshBv7--178" edge="1">
          <mxGeometry relative="1" as="geometry">
            <mxPoint x="-520" y="620" as="targetPoint" />
            <Array as="points">
              <mxPoint x="-520" y="620" />
              <mxPoint x="-520" y="620" />
            </Array>
          </mxGeometry>
        </mxCell>
        <mxCell id="qrl5ms6JGWwzDxshBv7--206" style="edgeStyle=orthogonalEdgeStyle;shape=connector;rounded=0;orthogonalLoop=1;jettySize=auto;html=1;exitX=1;exitY=0.5;exitDx=0;exitDy=0;exitPerimeter=0;strokeColor=default;align=center;verticalAlign=middle;fontFamily=Helvetica;fontSize=11;fontColor=default;labelBackgroundColor=default;startFill=0;endArrow=oval;endSize=4;endFill=0;" parent="1" source="qrl5ms6JGWwzDxshBv7--178" edge="1">
          <mxGeometry relative="1" as="geometry">
            <mxPoint x="-560" y="680" as="targetPoint" />
          </mxGeometry>
        </mxCell>
        <mxCell id="qrl5ms6JGWwzDxshBv7--178" value="" style="pointerEvents=1;verticalLabelPosition=bottom;shadow=0;dashed=0;align=center;html=1;verticalAlign=top;shape=mxgraph.electrical.capacitors.capacitor_1;fontFamily=Helvetica;fontSize=11;fontColor=default;labelBackgroundColor=default;direction=south;" parent="1" vertex="1">
          <mxGeometry x="-570" y="620" width="20" height="50" as="geometry" />
        </mxCell>
        <mxCell id="qrl5ms6JGWwzDxshBv7--187" style="edgeStyle=orthogonalEdgeStyle;shape=connector;rounded=0;orthogonalLoop=1;jettySize=auto;html=1;exitX=0;exitY=0.5;exitDx=0;exitDy=0;exitPerimeter=0;strokeColor=default;align=center;verticalAlign=middle;fontFamily=Helvetica;fontSize=11;fontColor=default;labelBackgroundColor=default;startFill=1;endArrow=oval;endSize=4;startSize=4;startArrow=oval;endFill=1;" parent="1" source="qrl5ms6JGWwzDxshBv7--179" edge="1">
          <mxGeometry relative="1" as="geometry">
            <mxPoint x="-560" y="620" as="targetPoint" />
            <Array as="points">
              <mxPoint x="-560" y="620" />
              <mxPoint x="-560" y="620" />
            </Array>
          </mxGeometry>
        </mxCell>
        <mxCell id="qrl5ms6JGWwzDxshBv7--207" style="edgeStyle=orthogonalEdgeStyle;shape=connector;rounded=0;orthogonalLoop=1;jettySize=auto;html=1;exitX=1;exitY=0.5;exitDx=0;exitDy=0;exitPerimeter=0;strokeColor=default;align=center;verticalAlign=middle;fontFamily=Helvetica;fontSize=11;fontColor=default;labelBackgroundColor=default;startFill=0;endArrow=oval;endSize=4;endFill=0;" parent="1" source="qrl5ms6JGWwzDxshBv7--179" edge="1">
          <mxGeometry relative="1" as="geometry">
            <mxPoint x="-600" y="680" as="targetPoint" />
          </mxGeometry>
        </mxCell>
        <mxCell id="qrl5ms6JGWwzDxshBv7--179" value="" style="pointerEvents=1;verticalLabelPosition=bottom;shadow=0;dashed=0;align=center;html=1;verticalAlign=top;shape=mxgraph.electrical.capacitors.capacitor_1;fontFamily=Helvetica;fontSize=11;fontColor=default;labelBackgroundColor=default;direction=south;" parent="1" vertex="1">
          <mxGeometry x="-610" y="620" width="20" height="50" as="geometry" />
        </mxCell>
        <mxCell id="qrl5ms6JGWwzDxshBv7--188" style="edgeStyle=orthogonalEdgeStyle;shape=connector;rounded=0;orthogonalLoop=1;jettySize=auto;html=1;exitX=0;exitY=0.5;exitDx=0;exitDy=0;exitPerimeter=0;strokeColor=default;align=center;verticalAlign=middle;fontFamily=Helvetica;fontSize=11;fontColor=default;labelBackgroundColor=default;startFill=1;endArrow=oval;endSize=4;startSize=4;startArrow=oval;endFill=1;" parent="1" source="qrl5ms6JGWwzDxshBv7--180" edge="1">
          <mxGeometry relative="1" as="geometry">
            <mxPoint x="-600" y="620" as="targetPoint" />
            <Array as="points">
              <mxPoint x="-600" y="620" />
              <mxPoint x="-600" y="620" />
            </Array>
          </mxGeometry>
        </mxCell>
        <mxCell id="qrl5ms6JGWwzDxshBv7--208" style="edgeStyle=orthogonalEdgeStyle;shape=connector;rounded=0;orthogonalLoop=1;jettySize=auto;html=1;exitX=1;exitY=0.5;exitDx=0;exitDy=0;exitPerimeter=0;strokeColor=default;align=center;verticalAlign=middle;fontFamily=Helvetica;fontSize=11;fontColor=default;labelBackgroundColor=default;startFill=0;endArrow=oval;endSize=4;endFill=0;" parent="1" source="qrl5ms6JGWwzDxshBv7--180" edge="1">
          <mxGeometry relative="1" as="geometry">
            <mxPoint x="-640" y="680" as="targetPoint" />
          </mxGeometry>
        </mxCell>
        <mxCell id="qrl5ms6JGWwzDxshBv7--180" value="" style="pointerEvents=1;verticalLabelPosition=bottom;shadow=0;dashed=0;align=center;html=1;verticalAlign=top;shape=mxgraph.electrical.capacitors.capacitor_1;fontFamily=Helvetica;fontSize=11;fontColor=default;labelBackgroundColor=default;direction=south;" parent="1" vertex="1">
          <mxGeometry x="-650" y="620" width="20" height="50" as="geometry" />
        </mxCell>
        <mxCell id="qrl5ms6JGWwzDxshBv7--183" style="edgeStyle=orthogonalEdgeStyle;shape=connector;rounded=0;orthogonalLoop=1;jettySize=auto;html=1;exitX=0;exitY=0.5;exitDx=0;exitDy=0;exitPerimeter=0;entryX=0;entryY=0.5;entryDx=0;entryDy=0;entryPerimeter=0;strokeColor=default;align=center;verticalAlign=middle;fontFamily=Helvetica;fontSize=11;fontColor=default;labelBackgroundColor=default;startFill=1;endArrow=oval;endSize=4;startSize=4;startArrow=oval;endFill=1;" parent="1" source="qrl5ms6JGWwzDxshBv7--174" target="qrl5ms6JGWwzDxshBv7--175" edge="1">
          <mxGeometry relative="1" as="geometry">
            <Array as="points">
              <mxPoint x="-420" y="620" />
              <mxPoint x="-420" y="620" />
            </Array>
          </mxGeometry>
        </mxCell>
        <mxCell id="qrl5ms6JGWwzDxshBv7--184" style="edgeStyle=orthogonalEdgeStyle;shape=connector;rounded=0;orthogonalLoop=1;jettySize=auto;html=1;exitX=0;exitY=0.5;exitDx=0;exitDy=0;exitPerimeter=0;entryX=0;entryY=0.5;entryDx=0;entryDy=0;entryPerimeter=0;strokeColor=default;align=center;verticalAlign=middle;fontFamily=Helvetica;fontSize=11;fontColor=default;labelBackgroundColor=default;startFill=1;endArrow=oval;endSize=4;startSize=4;startArrow=oval;endFill=1;" parent="1" source="qrl5ms6JGWwzDxshBv7--176" target="qrl5ms6JGWwzDxshBv7--175" edge="1">
          <mxGeometry relative="1" as="geometry">
            <Array as="points">
              <mxPoint x="-460" y="620" />
              <mxPoint x="-460" y="620" />
            </Array>
          </mxGeometry>
        </mxCell>
        <mxCell id="qrl5ms6JGWwzDxshBv7--185" style="edgeStyle=orthogonalEdgeStyle;shape=connector;rounded=0;orthogonalLoop=1;jettySize=auto;html=1;exitX=0;exitY=0.5;exitDx=0;exitDy=0;exitPerimeter=0;entryX=0;entryY=0.5;entryDx=0;entryDy=0;entryPerimeter=0;strokeColor=default;align=center;verticalAlign=middle;fontFamily=Helvetica;fontSize=11;fontColor=default;labelBackgroundColor=default;startFill=1;endArrow=oval;endSize=4;startSize=4;startArrow=oval;endFill=1;" parent="1" source="qrl5ms6JGWwzDxshBv7--177" target="qrl5ms6JGWwzDxshBv7--176" edge="1">
          <mxGeometry relative="1" as="geometry">
            <Array as="points">
              <mxPoint x="-500" y="620" />
              <mxPoint x="-500" y="620" />
            </Array>
          </mxGeometry>
        </mxCell>
        <mxCell id="qrl5ms6JGWwzDxshBv7--197" style="edgeStyle=orthogonalEdgeStyle;shape=connector;rounded=0;orthogonalLoop=1;jettySize=auto;html=1;exitX=1;exitY=0.5;exitDx=0;exitDy=0;exitPerimeter=0;strokeColor=default;align=center;verticalAlign=middle;fontFamily=Helvetica;fontSize=11;fontColor=default;labelBackgroundColor=default;startFill=0;endArrow=none;" parent="1" source="qrl5ms6JGWwzDxshBv7--189" edge="1">
          <mxGeometry relative="1" as="geometry">
            <mxPoint x="-710" y="619.8888888888889" as="targetPoint" />
          </mxGeometry>
        </mxCell>
        <mxCell id="qrl5ms6JGWwzDxshBv7--189" value="" style="pointerEvents=1;verticalLabelPosition=bottom;shadow=0;dashed=0;align=center;html=1;verticalAlign=top;shape=mxgraph.electrical.capacitors.capacitor_1;fontFamily=Helvetica;fontSize=11;fontColor=default;labelBackgroundColor=default;direction=west;" parent="1" vertex="1">
          <mxGeometry x="-700" y="610" width="50" height="20" as="geometry" />
        </mxCell>
        <mxCell id="qrl5ms6JGWwzDxshBv7--267" style="edgeStyle=orthogonalEdgeStyle;shape=connector;rounded=0;orthogonalLoop=1;jettySize=auto;html=1;exitX=1;exitY=0.5;exitDx=0;exitDy=0;exitPerimeter=0;strokeColor=default;align=center;verticalAlign=middle;fontFamily=Helvetica;fontSize=11;fontColor=default;labelBackgroundColor=default;startFill=0;endArrow=oval;endSize=4;endFill=0;" parent="1" source="qrl5ms6JGWwzDxshBv7--190" edge="1">
          <mxGeometry relative="1" as="geometry">
            <mxPoint x="-710" y="680" as="targetPoint" />
          </mxGeometry>
        </mxCell>
        <mxCell id="qrl5ms6JGWwzDxshBv7--190" value="" style="pointerEvents=1;verticalLabelPosition=bottom;shadow=0;dashed=0;align=center;html=1;verticalAlign=top;shape=mxgraph.electrical.capacitors.capacitor_1;fontFamily=Helvetica;fontSize=11;fontColor=default;labelBackgroundColor=default;direction=south;" parent="1" vertex="1">
          <mxGeometry x="-720" y="620" width="20" height="50" as="geometry" />
        </mxCell>
        <mxCell id="qrl5ms6JGWwzDxshBv7--266" style="edgeStyle=orthogonalEdgeStyle;shape=connector;rounded=0;orthogonalLoop=1;jettySize=auto;html=1;exitX=1;exitY=0.5;exitDx=0;exitDy=0;exitPerimeter=0;strokeColor=default;align=center;verticalAlign=middle;fontFamily=Helvetica;fontSize=11;fontColor=default;labelBackgroundColor=default;startFill=0;endArrow=oval;endSize=4;endFill=0;" parent="1" source="qrl5ms6JGWwzDxshBv7--191" edge="1">
          <mxGeometry relative="1" as="geometry">
            <mxPoint x="-750" y="680" as="targetPoint" />
          </mxGeometry>
        </mxCell>
        <mxCell id="qrl5ms6JGWwzDxshBv7--191" value="" style="pointerEvents=1;verticalLabelPosition=bottom;shadow=0;dashed=0;align=center;html=1;verticalAlign=top;shape=mxgraph.electrical.capacitors.capacitor_1;fontFamily=Helvetica;fontSize=11;fontColor=default;labelBackgroundColor=default;direction=south;" parent="1" vertex="1">
          <mxGeometry x="-760" y="620" width="20" height="50" as="geometry" />
        </mxCell>
        <mxCell id="qrl5ms6JGWwzDxshBv7--265" style="edgeStyle=orthogonalEdgeStyle;shape=connector;rounded=0;orthogonalLoop=1;jettySize=auto;html=1;exitX=1;exitY=0.5;exitDx=0;exitDy=0;exitPerimeter=0;strokeColor=default;align=center;verticalAlign=middle;fontFamily=Helvetica;fontSize=11;fontColor=default;labelBackgroundColor=default;startFill=0;endArrow=oval;endSize=4;endFill=0;" parent="1" source="qrl5ms6JGWwzDxshBv7--192" edge="1">
          <mxGeometry relative="1" as="geometry">
            <mxPoint x="-790" y="680" as="targetPoint" />
          </mxGeometry>
        </mxCell>
        <mxCell id="qrl5ms6JGWwzDxshBv7--192" value="" style="pointerEvents=1;verticalLabelPosition=bottom;shadow=0;dashed=0;align=center;html=1;verticalAlign=top;shape=mxgraph.electrical.capacitors.capacitor_1;fontFamily=Helvetica;fontSize=11;fontColor=default;labelBackgroundColor=default;direction=south;" parent="1" vertex="1">
          <mxGeometry x="-800" y="620" width="20" height="50" as="geometry" />
        </mxCell>
        <mxCell id="qrl5ms6JGWwzDxshBv7--264" style="edgeStyle=orthogonalEdgeStyle;shape=connector;rounded=0;orthogonalLoop=1;jettySize=auto;html=1;exitX=1;exitY=0.5;exitDx=0;exitDy=0;exitPerimeter=0;strokeColor=default;align=center;verticalAlign=middle;fontFamily=Helvetica;fontSize=11;fontColor=default;labelBackgroundColor=default;startFill=0;endArrow=oval;endSize=4;endFill=0;" parent="1" source="qrl5ms6JGWwzDxshBv7--193" edge="1">
          <mxGeometry relative="1" as="geometry">
            <mxPoint x="-830" y="680" as="targetPoint" />
          </mxGeometry>
        </mxCell>
        <mxCell id="qrl5ms6JGWwzDxshBv7--193" value="" style="pointerEvents=1;verticalLabelPosition=bottom;shadow=0;dashed=0;align=center;html=1;verticalAlign=top;shape=mxgraph.electrical.capacitors.capacitor_1;fontFamily=Helvetica;fontSize=11;fontColor=default;labelBackgroundColor=default;direction=south;" parent="1" vertex="1">
          <mxGeometry x="-840" y="620" width="20" height="50" as="geometry" />
        </mxCell>
        <mxCell id="qrl5ms6JGWwzDxshBv7--194" style="edgeStyle=orthogonalEdgeStyle;shape=connector;rounded=0;orthogonalLoop=1;jettySize=auto;html=1;exitX=0;exitY=0.5;exitDx=0;exitDy=0;exitPerimeter=0;entryX=0;entryY=0.5;entryDx=0;entryDy=0;entryPerimeter=0;strokeColor=default;align=center;verticalAlign=middle;fontFamily=Helvetica;fontSize=11;fontColor=default;labelBackgroundColor=default;startFill=1;endArrow=oval;endSize=4;startSize=4;startArrow=oval;endFill=1;" parent="1" source="qrl5ms6JGWwzDxshBv7--190" target="qrl5ms6JGWwzDxshBv7--191" edge="1">
          <mxGeometry relative="1" as="geometry">
            <Array as="points">
              <mxPoint x="-730" y="620" />
              <mxPoint x="-730" y="620" />
            </Array>
          </mxGeometry>
        </mxCell>
        <mxCell id="qrl5ms6JGWwzDxshBv7--195" style="edgeStyle=orthogonalEdgeStyle;shape=connector;rounded=0;orthogonalLoop=1;jettySize=auto;html=1;exitX=0;exitY=0.5;exitDx=0;exitDy=0;exitPerimeter=0;entryX=0;entryY=0.5;entryDx=0;entryDy=0;entryPerimeter=0;strokeColor=default;align=center;verticalAlign=middle;fontFamily=Helvetica;fontSize=11;fontColor=default;labelBackgroundColor=default;startFill=1;endArrow=oval;endSize=4;startSize=4;startArrow=oval;endFill=1;" parent="1" source="qrl5ms6JGWwzDxshBv7--192" target="qrl5ms6JGWwzDxshBv7--191" edge="1">
          <mxGeometry relative="1" as="geometry">
            <Array as="points">
              <mxPoint x="-770" y="620" />
              <mxPoint x="-770" y="620" />
            </Array>
          </mxGeometry>
        </mxCell>
        <mxCell id="qrl5ms6JGWwzDxshBv7--196" style="edgeStyle=orthogonalEdgeStyle;shape=connector;rounded=0;orthogonalLoop=1;jettySize=auto;html=1;exitX=0;exitY=0.5;exitDx=0;exitDy=0;exitPerimeter=0;entryX=0;entryY=0.5;entryDx=0;entryDy=0;entryPerimeter=0;strokeColor=default;align=center;verticalAlign=middle;fontFamily=Helvetica;fontSize=11;fontColor=default;labelBackgroundColor=default;startFill=1;endArrow=oval;endSize=4;startSize=4;startArrow=oval;endFill=1;" parent="1" source="qrl5ms6JGWwzDxshBv7--193" target="qrl5ms6JGWwzDxshBv7--192" edge="1">
          <mxGeometry relative="1" as="geometry">
            <Array as="points">
              <mxPoint x="-810" y="620" />
              <mxPoint x="-810" y="620" />
            </Array>
          </mxGeometry>
        </mxCell>
        <mxCell id="qrl5ms6JGWwzDxshBv7--198" style="edgeStyle=orthogonalEdgeStyle;shape=connector;rounded=0;orthogonalLoop=1;jettySize=auto;html=1;exitX=0;exitY=0.5;exitDx=0;exitDy=0;exitPerimeter=0;entryX=0;entryY=0.5;entryDx=0;entryDy=0;entryPerimeter=0;strokeColor=default;align=center;verticalAlign=middle;fontFamily=Helvetica;fontSize=11;fontColor=default;labelBackgroundColor=default;startFill=0;endArrow=none;" parent="1" source="qrl5ms6JGWwzDxshBv7--189" target="qrl5ms6JGWwzDxshBv7--180" edge="1">
          <mxGeometry relative="1" as="geometry" />
        </mxCell>
        <mxCell id="qrl5ms6JGWwzDxshBv7--262" style="edgeStyle=orthogonalEdgeStyle;shape=connector;rounded=0;orthogonalLoop=1;jettySize=auto;html=1;exitX=1;exitY=0.5;exitDx=0;exitDy=0;exitPerimeter=0;strokeColor=default;align=center;verticalAlign=middle;fontFamily=Helvetica;fontSize=11;fontColor=default;labelBackgroundColor=default;startFill=0;endArrow=none;" parent="1" source="qrl5ms6JGWwzDxshBv7--199" edge="1">
          <mxGeometry relative="1" as="geometry">
            <mxPoint x="-870.1428571428571" y="710" as="targetPoint" />
          </mxGeometry>
        </mxCell>
        <mxCell id="qrl5ms6JGWwzDxshBv7--199" value="" style="pointerEvents=1;verticalLabelPosition=bottom;shadow=0;dashed=0;align=center;html=1;verticalAlign=top;shape=mxgraph.electrical.capacitors.variable_capacitor_1;fontFamily=Helvetica;fontSize=11;fontColor=default;labelBackgroundColor=default;direction=south;flipV=0;" parent="1" vertex="1">
          <mxGeometry x="-880" y="620" width="20" height="50" as="geometry" />
        </mxCell>
        <mxCell id="qrl5ms6JGWwzDxshBv7--200" style="edgeStyle=orthogonalEdgeStyle;shape=connector;rounded=0;orthogonalLoop=1;jettySize=auto;html=1;exitX=0;exitY=0.5;exitDx=0;exitDy=0;exitPerimeter=0;entryX=0;entryY=0.5;entryDx=0;entryDy=0;entryPerimeter=0;strokeColor=default;align=center;verticalAlign=middle;fontFamily=Helvetica;fontSize=11;fontColor=default;labelBackgroundColor=default;startFill=1;endArrow=oval;endSize=4;startSize=4;startArrow=oval;endFill=1;" parent="1" edge="1">
          <mxGeometry relative="1" as="geometry">
            <Array as="points">
              <mxPoint x="-850" y="620" />
              <mxPoint x="-850" y="620" />
            </Array>
            <mxPoint x="-870" y="620" as="sourcePoint" />
            <mxPoint x="-830" y="620" as="targetPoint" />
          </mxGeometry>
        </mxCell>
        <mxCell id="qrl5ms6JGWwzDxshBv7--216" value="" style="endArrow=oval;html=1;rounded=0;strokeColor=default;align=center;verticalAlign=middle;fontFamily=Helvetica;fontSize=11;fontColor=default;labelBackgroundColor=default;edgeStyle=orthogonalEdgeStyle;endSize=4;startSize=4;endFill=0;startArrow=oval;startFill=0;" parent="1" edge="1">
          <mxGeometry width="50" height="50" relative="1" as="geometry">
            <mxPoint x="-390.33" y="730" as="sourcePoint" />
            <mxPoint x="-390.33" y="700" as="targetPoint" />
          </mxGeometry>
        </mxCell>
        <mxCell id="qrl5ms6JGWwzDxshBv7--217" value="" style="endArrow=oval;html=1;rounded=0;strokeColor=default;align=center;verticalAlign=middle;fontFamily=Helvetica;fontSize=11;fontColor=default;labelBackgroundColor=default;edgeStyle=orthogonalEdgeStyle;endSize=4;startSize=4;endFill=0;startArrow=oval;startFill=0;" parent="1" edge="1">
          <mxGeometry width="50" height="50" relative="1" as="geometry">
            <mxPoint x="-430.33" y="730" as="sourcePoint" />
            <mxPoint x="-430.33" y="700" as="targetPoint" />
          </mxGeometry>
        </mxCell>
        <mxCell id="qrl5ms6JGWwzDxshBv7--218" value="" style="endArrow=oval;html=1;rounded=0;strokeColor=default;align=center;verticalAlign=middle;fontFamily=Helvetica;fontSize=11;fontColor=default;labelBackgroundColor=default;edgeStyle=orthogonalEdgeStyle;endSize=4;startSize=4;endFill=0;startArrow=oval;startFill=0;" parent="1" edge="1">
          <mxGeometry width="50" height="50" relative="1" as="geometry">
            <mxPoint x="-470.33" y="730" as="sourcePoint" />
            <mxPoint x="-470.33" y="700" as="targetPoint" />
          </mxGeometry>
        </mxCell>
        <mxCell id="qrl5ms6JGWwzDxshBv7--219" value="" style="endArrow=oval;html=1;rounded=0;strokeColor=default;align=center;verticalAlign=middle;fontFamily=Helvetica;fontSize=11;fontColor=default;labelBackgroundColor=default;edgeStyle=orthogonalEdgeStyle;endSize=4;startSize=4;endFill=0;startArrow=oval;startFill=0;" parent="1" edge="1">
          <mxGeometry width="50" height="50" relative="1" as="geometry">
            <mxPoint x="-510.33" y="730" as="sourcePoint" />
            <mxPoint x="-510.33" y="700" as="targetPoint" />
          </mxGeometry>
        </mxCell>
        <mxCell id="qrl5ms6JGWwzDxshBv7--220" value="" style="endArrow=oval;html=1;rounded=0;strokeColor=default;align=center;verticalAlign=middle;fontFamily=Helvetica;fontSize=11;fontColor=default;labelBackgroundColor=default;edgeStyle=orthogonalEdgeStyle;endSize=4;startSize=4;endFill=0;startArrow=oval;startFill=0;" parent="1" edge="1">
          <mxGeometry width="50" height="50" relative="1" as="geometry">
            <mxPoint x="-550" y="730" as="sourcePoint" />
            <mxPoint x="-550" y="700" as="targetPoint" />
          </mxGeometry>
        </mxCell>
        <mxCell id="qrl5ms6JGWwzDxshBv7--221" value="" style="endArrow=oval;html=1;rounded=0;strokeColor=default;align=center;verticalAlign=middle;fontFamily=Helvetica;fontSize=11;fontColor=default;labelBackgroundColor=default;edgeStyle=orthogonalEdgeStyle;endSize=4;startSize=4;endFill=0;startArrow=oval;startFill=0;" parent="1" edge="1">
          <mxGeometry width="50" height="50" relative="1" as="geometry">
            <mxPoint x="-590" y="730" as="sourcePoint" />
            <mxPoint x="-590" y="700" as="targetPoint" />
          </mxGeometry>
        </mxCell>
        <mxCell id="qrl5ms6JGWwzDxshBv7--223" value="" style="endArrow=oval;html=1;rounded=0;strokeColor=default;align=center;verticalAlign=middle;fontFamily=Helvetica;fontSize=11;fontColor=default;labelBackgroundColor=default;edgeStyle=orthogonalEdgeStyle;startSize=4;endSize=4;startArrow=oval;startFill=1;endFill=1;" parent="1" edge="1">
          <mxGeometry width="50" height="50" relative="1" as="geometry">
            <mxPoint x="-430" y="710" as="sourcePoint" />
            <mxPoint x="-390" y="710" as="targetPoint" />
            <Array as="points">
              <mxPoint x="-420" y="710" />
            </Array>
          </mxGeometry>
        </mxCell>
        <mxCell id="qrl5ms6JGWwzDxshBv7--224" value="" style="endArrow=oval;html=1;rounded=0;strokeColor=default;align=center;verticalAlign=middle;fontFamily=Helvetica;fontSize=11;fontColor=default;labelBackgroundColor=default;edgeStyle=orthogonalEdgeStyle;startSize=4;endSize=4;startArrow=oval;startFill=1;endFill=1;" parent="1" edge="1">
          <mxGeometry width="50" height="50" relative="1" as="geometry">
            <mxPoint x="-470" y="710" as="sourcePoint" />
            <mxPoint x="-430" y="710" as="targetPoint" />
            <Array as="points">
              <mxPoint x="-460" y="710" />
            </Array>
          </mxGeometry>
        </mxCell>
        <mxCell id="qrl5ms6JGWwzDxshBv7--225" value="" style="endArrow=oval;html=1;rounded=0;strokeColor=default;align=center;verticalAlign=middle;fontFamily=Helvetica;fontSize=11;fontColor=default;labelBackgroundColor=default;edgeStyle=orthogonalEdgeStyle;startSize=4;endSize=4;startArrow=oval;startFill=1;endFill=1;" parent="1" edge="1">
          <mxGeometry width="50" height="50" relative="1" as="geometry">
            <mxPoint x="-510" y="710" as="sourcePoint" />
            <mxPoint x="-470" y="710" as="targetPoint" />
            <Array as="points">
              <mxPoint x="-500" y="710" />
            </Array>
          </mxGeometry>
        </mxCell>
        <mxCell id="qrl5ms6JGWwzDxshBv7--226" value="" style="endArrow=oval;html=1;rounded=0;strokeColor=default;align=center;verticalAlign=middle;fontFamily=Helvetica;fontSize=11;fontColor=default;labelBackgroundColor=default;edgeStyle=orthogonalEdgeStyle;startSize=4;endSize=4;startArrow=oval;startFill=1;endFill=1;" parent="1" edge="1">
          <mxGeometry width="50" height="50" relative="1" as="geometry">
            <mxPoint x="-550" y="710" as="sourcePoint" />
            <mxPoint x="-510" y="710" as="targetPoint" />
            <Array as="points">
              <mxPoint x="-540" y="710" />
            </Array>
          </mxGeometry>
        </mxCell>
        <mxCell id="qrl5ms6JGWwzDxshBv7--227" value="" style="endArrow=oval;html=1;rounded=0;strokeColor=default;align=center;verticalAlign=middle;fontFamily=Helvetica;fontSize=11;fontColor=default;labelBackgroundColor=default;edgeStyle=orthogonalEdgeStyle;startSize=4;endSize=4;startArrow=oval;startFill=1;endFill=1;" parent="1" edge="1">
          <mxGeometry width="50" height="50" relative="1" as="geometry">
            <mxPoint x="-590" y="710" as="sourcePoint" />
            <mxPoint x="-550" y="710" as="targetPoint" />
            <Array as="points">
              <mxPoint x="-580" y="710" />
            </Array>
          </mxGeometry>
        </mxCell>
        <mxCell id="qrl5ms6JGWwzDxshBv7--228" value="" style="endArrow=oval;html=1;rounded=0;strokeColor=default;align=center;verticalAlign=middle;fontFamily=Helvetica;fontSize=11;fontColor=default;labelBackgroundColor=default;edgeStyle=orthogonalEdgeStyle;startSize=4;endSize=4;startArrow=oval;startFill=1;endFill=1;" parent="1" edge="1">
          <mxGeometry width="50" height="50" relative="1" as="geometry">
            <mxPoint x="-630" y="710" as="sourcePoint" />
            <mxPoint x="-590" y="710" as="targetPoint" />
            <Array as="points">
              <mxPoint x="-620" y="710" />
            </Array>
          </mxGeometry>
        </mxCell>
        <mxCell id="qrl5ms6JGWwzDxshBv7--229" value="" style="endArrow=oval;html=1;rounded=0;strokeColor=default;align=center;verticalAlign=middle;fontFamily=Helvetica;fontSize=11;fontColor=default;labelBackgroundColor=default;edgeStyle=orthogonalEdgeStyle;endSize=4;startSize=4;endFill=0;startArrow=oval;startFill=0;" parent="1" edge="1">
          <mxGeometry width="50" height="50" relative="1" as="geometry">
            <mxPoint x="-410.33" y="730" as="sourcePoint" />
            <mxPoint x="-410.33" y="700" as="targetPoint" />
          </mxGeometry>
        </mxCell>
        <mxCell id="qrl5ms6JGWwzDxshBv7--230" value="" style="endArrow=oval;html=1;rounded=0;strokeColor=default;align=center;verticalAlign=middle;fontFamily=Helvetica;fontSize=11;fontColor=default;labelBackgroundColor=default;edgeStyle=orthogonalEdgeStyle;endSize=4;startSize=4;endFill=0;startArrow=oval;startFill=0;" parent="1" edge="1">
          <mxGeometry width="50" height="50" relative="1" as="geometry">
            <mxPoint x="-450.33" y="730" as="sourcePoint" />
            <mxPoint x="-450.33" y="700" as="targetPoint" />
          </mxGeometry>
        </mxCell>
        <mxCell id="qrl5ms6JGWwzDxshBv7--231" value="" style="endArrow=oval;html=1;rounded=0;strokeColor=default;align=center;verticalAlign=middle;fontFamily=Helvetica;fontSize=11;fontColor=default;labelBackgroundColor=default;edgeStyle=orthogonalEdgeStyle;endSize=4;startSize=4;endFill=0;startArrow=oval;startFill=0;" parent="1" edge="1">
          <mxGeometry width="50" height="50" relative="1" as="geometry">
            <mxPoint x="-490.33" y="730" as="sourcePoint" />
            <mxPoint x="-490.33" y="700" as="targetPoint" />
          </mxGeometry>
        </mxCell>
        <mxCell id="qrl5ms6JGWwzDxshBv7--232" value="" style="endArrow=oval;html=1;rounded=0;strokeColor=default;align=center;verticalAlign=middle;fontFamily=Helvetica;fontSize=11;fontColor=default;labelBackgroundColor=default;edgeStyle=orthogonalEdgeStyle;endSize=4;startSize=4;endFill=0;startArrow=oval;startFill=0;" parent="1" edge="1">
          <mxGeometry width="50" height="50" relative="1" as="geometry">
            <mxPoint x="-530.3299999999999" y="730" as="sourcePoint" />
            <mxPoint x="-530.3299999999999" y="700" as="targetPoint" />
          </mxGeometry>
        </mxCell>
        <mxCell id="qrl5ms6JGWwzDxshBv7--233" value="" style="endArrow=oval;html=1;rounded=0;strokeColor=default;align=center;verticalAlign=middle;fontFamily=Helvetica;fontSize=11;fontColor=default;labelBackgroundColor=default;edgeStyle=orthogonalEdgeStyle;endSize=4;startSize=4;endFill=0;startArrow=oval;startFill=0;" parent="1" edge="1">
          <mxGeometry width="50" height="50" relative="1" as="geometry">
            <mxPoint x="-570" y="730" as="sourcePoint" />
            <mxPoint x="-570" y="700" as="targetPoint" />
          </mxGeometry>
        </mxCell>
        <mxCell id="qrl5ms6JGWwzDxshBv7--234" value="" style="endArrow=oval;html=1;rounded=0;strokeColor=default;align=center;verticalAlign=middle;fontFamily=Helvetica;fontSize=11;fontColor=default;labelBackgroundColor=default;edgeStyle=orthogonalEdgeStyle;endSize=4;startSize=4;endFill=0;startArrow=oval;startFill=0;" parent="1" edge="1">
          <mxGeometry width="50" height="50" relative="1" as="geometry">
            <mxPoint x="-610" y="730" as="sourcePoint" />
            <mxPoint x="-610" y="700" as="targetPoint" />
          </mxGeometry>
        </mxCell>
        <mxCell id="qrl5ms6JGWwzDxshBv7--236" value="" style="endArrow=oval;html=1;rounded=0;strokeColor=default;align=center;verticalAlign=middle;fontFamily=Helvetica;fontSize=11;fontColor=default;labelBackgroundColor=default;edgeStyle=orthogonalEdgeStyle;startSize=4;endSize=4;startArrow=oval;startFill=1;endFill=1;" parent="1" edge="1">
          <mxGeometry width="50" height="50" relative="1" as="geometry">
            <mxPoint x="-450" y="720" as="sourcePoint" />
            <mxPoint x="-410" y="720" as="targetPoint" />
            <Array as="points">
              <mxPoint x="-440" y="720" />
            </Array>
          </mxGeometry>
        </mxCell>
        <mxCell id="qrl5ms6JGWwzDxshBv7--237" value="" style="endArrow=oval;html=1;rounded=0;strokeColor=default;align=center;verticalAlign=middle;fontFamily=Helvetica;fontSize=11;fontColor=default;labelBackgroundColor=default;edgeStyle=orthogonalEdgeStyle;startSize=4;endSize=4;startArrow=oval;startFill=1;endFill=1;" parent="1" edge="1">
          <mxGeometry width="50" height="50" relative="1" as="geometry">
            <mxPoint x="-490" y="720" as="sourcePoint" />
            <mxPoint x="-450" y="720" as="targetPoint" />
            <Array as="points">
              <mxPoint x="-480" y="720" />
            </Array>
          </mxGeometry>
        </mxCell>
        <mxCell id="qrl5ms6JGWwzDxshBv7--238" value="" style="endArrow=oval;html=1;rounded=0;strokeColor=default;align=center;verticalAlign=middle;fontFamily=Helvetica;fontSize=11;fontColor=default;labelBackgroundColor=default;edgeStyle=orthogonalEdgeStyle;startSize=4;endSize=4;startArrow=oval;startFill=1;endFill=1;" parent="1" edge="1">
          <mxGeometry width="50" height="50" relative="1" as="geometry">
            <mxPoint x="-530" y="720" as="sourcePoint" />
            <mxPoint x="-490" y="720" as="targetPoint" />
            <Array as="points">
              <mxPoint x="-520" y="720" />
            </Array>
          </mxGeometry>
        </mxCell>
        <mxCell id="qrl5ms6JGWwzDxshBv7--239" value="" style="endArrow=oval;html=1;rounded=0;strokeColor=default;align=center;verticalAlign=middle;fontFamily=Helvetica;fontSize=11;fontColor=default;labelBackgroundColor=default;edgeStyle=orthogonalEdgeStyle;startSize=4;endSize=4;startArrow=oval;startFill=1;endFill=1;" parent="1" edge="1">
          <mxGeometry width="50" height="50" relative="1" as="geometry">
            <mxPoint x="-570" y="720" as="sourcePoint" />
            <mxPoint x="-530" y="720" as="targetPoint" />
            <Array as="points">
              <mxPoint x="-560" y="720" />
            </Array>
          </mxGeometry>
        </mxCell>
        <mxCell id="qrl5ms6JGWwzDxshBv7--240" value="" style="endArrow=oval;html=1;rounded=0;strokeColor=default;align=center;verticalAlign=middle;fontFamily=Helvetica;fontSize=11;fontColor=default;labelBackgroundColor=default;edgeStyle=orthogonalEdgeStyle;startSize=4;endSize=4;startArrow=oval;startFill=1;endFill=1;" parent="1" edge="1">
          <mxGeometry width="50" height="50" relative="1" as="geometry">
            <mxPoint x="-610" y="720" as="sourcePoint" />
            <mxPoint x="-570" y="720" as="targetPoint" />
            <Array as="points">
              <mxPoint x="-600" y="720" />
            </Array>
          </mxGeometry>
        </mxCell>
        <mxCell id="qrl5ms6JGWwzDxshBv7--241" value="" style="endArrow=oval;html=1;rounded=0;strokeColor=default;align=center;verticalAlign=middle;fontFamily=Helvetica;fontSize=11;fontColor=default;labelBackgroundColor=default;edgeStyle=orthogonalEdgeStyle;startSize=4;endSize=4;startArrow=oval;startFill=1;endFill=1;" parent="1" edge="1">
          <mxGeometry width="50" height="50" relative="1" as="geometry">
            <mxPoint x="-650" y="720" as="sourcePoint" />
            <mxPoint x="-610" y="720" as="targetPoint" />
            <Array as="points">
              <mxPoint x="-640" y="720" />
            </Array>
          </mxGeometry>
        </mxCell>
        <mxCell id="qrl5ms6JGWwzDxshBv7--242" value="" style="endArrow=none;html=1;rounded=0;strokeColor=default;align=center;verticalAlign=middle;fontFamily=Helvetica;fontSize=11;fontColor=default;labelBackgroundColor=default;edgeStyle=orthogonalEdgeStyle;endSize=4;startSize=4;endFill=0;startArrow=oval;startFill=0;" parent="1" edge="1">
          <mxGeometry width="50" height="50" relative="1" as="geometry">
            <mxPoint x="-630.19" y="700" as="sourcePoint" />
            <mxPoint x="-630.19" y="710" as="targetPoint" />
          </mxGeometry>
        </mxCell>
        <mxCell id="qrl5ms6JGWwzDxshBv7--243" value="" style="endArrow=none;html=1;rounded=0;strokeColor=default;align=center;verticalAlign=middle;fontFamily=Helvetica;fontSize=11;fontColor=default;labelBackgroundColor=default;edgeStyle=orthogonalEdgeStyle;endSize=4;startSize=4;endFill=0;startArrow=oval;startFill=0;" parent="1" edge="1">
          <mxGeometry width="50" height="50" relative="1" as="geometry">
            <mxPoint x="-650.15" y="700" as="sourcePoint" />
            <mxPoint x="-650.15" y="720" as="targetPoint" />
            <Array as="points">
              <mxPoint x="-650.15" y="710" />
              <mxPoint x="-650.15" y="710" />
            </Array>
          </mxGeometry>
        </mxCell>
        <mxCell id="qrl5ms6JGWwzDxshBv7--244" value="" style="endArrow=oval;html=1;rounded=0;strokeColor=default;align=center;verticalAlign=middle;fontFamily=Helvetica;fontSize=11;fontColor=default;labelBackgroundColor=default;edgeStyle=orthogonalEdgeStyle;startSize=4;endSize=4;startArrow=oval;startFill=1;endFill=1;" parent="1" edge="1">
          <mxGeometry width="50" height="50" relative="1" as="geometry">
            <mxPoint x="-720" y="720" as="sourcePoint" />
            <mxPoint x="-650" y="720" as="targetPoint" />
            <Array as="points">
              <mxPoint x="-680" y="720" />
            </Array>
          </mxGeometry>
        </mxCell>
        <mxCell id="qrl5ms6JGWwzDxshBv7--245" value="" style="endArrow=oval;html=1;rounded=0;strokeColor=default;align=center;verticalAlign=middle;fontFamily=Helvetica;fontSize=11;fontColor=default;labelBackgroundColor=default;edgeStyle=orthogonalEdgeStyle;startSize=4;endSize=4;startArrow=oval;startFill=1;endFill=1;" parent="1" edge="1">
          <mxGeometry width="50" height="50" relative="1" as="geometry">
            <mxPoint x="-700" y="710" as="sourcePoint" />
            <mxPoint x="-630" y="710" as="targetPoint" />
            <Array as="points">
              <mxPoint x="-660" y="710" />
            </Array>
          </mxGeometry>
        </mxCell>
        <mxCell id="qrl5ms6JGWwzDxshBv7--246" value="" style="endArrow=none;html=1;rounded=0;strokeColor=default;align=center;verticalAlign=middle;fontFamily=Helvetica;fontSize=11;fontColor=default;labelBackgroundColor=default;edgeStyle=orthogonalEdgeStyle;endSize=4;startSize=4;endFill=0;startArrow=oval;startFill=0;" parent="1" edge="1">
          <mxGeometry width="50" height="50" relative="1" as="geometry">
            <mxPoint x="-700" y="700" as="sourcePoint" />
            <mxPoint x="-700" y="710" as="targetPoint" />
          </mxGeometry>
        </mxCell>
        <mxCell id="qrl5ms6JGWwzDxshBv7--247" value="" style="endArrow=none;html=1;rounded=0;strokeColor=default;align=center;verticalAlign=middle;fontFamily=Helvetica;fontSize=11;fontColor=default;labelBackgroundColor=default;edgeStyle=orthogonalEdgeStyle;endSize=4;startSize=4;endFill=0;startArrow=oval;startFill=0;" parent="1" edge="1">
          <mxGeometry width="50" height="50" relative="1" as="geometry">
            <mxPoint x="-740" y="700" as="sourcePoint" />
            <mxPoint x="-740" y="710" as="targetPoint" />
          </mxGeometry>
        </mxCell>
        <mxCell id="qrl5ms6JGWwzDxshBv7--248" value="" style="endArrow=none;html=1;rounded=0;strokeColor=default;align=center;verticalAlign=middle;fontFamily=Helvetica;fontSize=11;fontColor=default;labelBackgroundColor=default;edgeStyle=orthogonalEdgeStyle;endSize=4;startSize=4;endFill=0;startArrow=oval;startFill=0;" parent="1" edge="1">
          <mxGeometry width="50" height="50" relative="1" as="geometry">
            <mxPoint x="-780.19" y="700" as="sourcePoint" />
            <mxPoint x="-780.19" y="710" as="targetPoint" />
          </mxGeometry>
        </mxCell>
        <mxCell id="qrl5ms6JGWwzDxshBv7--249" value="" style="endArrow=none;html=1;rounded=0;strokeColor=default;align=center;verticalAlign=middle;fontFamily=Helvetica;fontSize=11;fontColor=default;labelBackgroundColor=default;edgeStyle=orthogonalEdgeStyle;endSize=4;startSize=4;endFill=0;startArrow=oval;startFill=0;" parent="1" edge="1">
          <mxGeometry width="50" height="50" relative="1" as="geometry">
            <mxPoint x="-820" y="700" as="sourcePoint" />
            <mxPoint x="-820" y="710" as="targetPoint" />
          </mxGeometry>
        </mxCell>
        <mxCell id="qrl5ms6JGWwzDxshBv7--250" value="" style="endArrow=oval;html=1;rounded=0;strokeColor=default;align=center;verticalAlign=middle;fontFamily=Helvetica;fontSize=11;fontColor=default;labelBackgroundColor=default;edgeStyle=orthogonalEdgeStyle;startSize=4;endSize=4;startArrow=oval;startFill=1;endFill=1;" parent="1" edge="1">
          <mxGeometry width="50" height="50" relative="1" as="geometry">
            <mxPoint x="-740" y="710" as="sourcePoint" />
            <mxPoint x="-700" y="710" as="targetPoint" />
            <Array as="points">
              <mxPoint x="-730" y="710" />
            </Array>
          </mxGeometry>
        </mxCell>
        <mxCell id="qrl5ms6JGWwzDxshBv7--251" value="" style="endArrow=oval;html=1;rounded=0;strokeColor=default;align=center;verticalAlign=middle;fontFamily=Helvetica;fontSize=11;fontColor=default;labelBackgroundColor=default;edgeStyle=orthogonalEdgeStyle;startSize=4;endSize=4;startArrow=oval;startFill=1;endFill=1;" parent="1" edge="1">
          <mxGeometry width="50" height="50" relative="1" as="geometry">
            <mxPoint x="-780" y="710" as="sourcePoint" />
            <mxPoint x="-740" y="710" as="targetPoint" />
            <Array as="points">
              <mxPoint x="-770" y="710" />
            </Array>
          </mxGeometry>
        </mxCell>
        <mxCell id="qrl5ms6JGWwzDxshBv7--252" value="" style="endArrow=oval;html=1;rounded=0;strokeColor=default;align=center;verticalAlign=middle;fontFamily=Helvetica;fontSize=11;fontColor=default;labelBackgroundColor=default;edgeStyle=orthogonalEdgeStyle;startSize=4;endSize=4;startArrow=oval;startFill=1;endFill=1;" parent="1" edge="1">
          <mxGeometry width="50" height="50" relative="1" as="geometry">
            <mxPoint x="-820" y="710" as="sourcePoint" />
            <mxPoint x="-780" y="710" as="targetPoint" />
            <Array as="points">
              <mxPoint x="-810" y="710" />
            </Array>
          </mxGeometry>
        </mxCell>
        <mxCell id="qrl5ms6JGWwzDxshBv7--253" value="" style="endArrow=none;html=1;rounded=0;strokeColor=default;align=center;verticalAlign=middle;fontFamily=Helvetica;fontSize=11;fontColor=default;labelBackgroundColor=default;edgeStyle=orthogonalEdgeStyle;endSize=4;startSize=4;endFill=0;startArrow=oval;startFill=0;" parent="1" edge="1">
          <mxGeometry width="50" height="50" relative="1" as="geometry">
            <mxPoint x="-720" y="700" as="sourcePoint" />
            <mxPoint x="-720" y="720" as="targetPoint" />
            <Array as="points">
              <mxPoint x="-720" y="710" />
              <mxPoint x="-720" y="710" />
            </Array>
          </mxGeometry>
        </mxCell>
        <mxCell id="qrl5ms6JGWwzDxshBv7--254" value="" style="endArrow=none;html=1;rounded=0;strokeColor=default;align=center;verticalAlign=middle;fontFamily=Helvetica;fontSize=11;fontColor=default;labelBackgroundColor=default;edgeStyle=orthogonalEdgeStyle;endSize=4;startSize=4;endFill=0;startArrow=oval;startFill=0;" parent="1" edge="1">
          <mxGeometry width="50" height="50" relative="1" as="geometry">
            <mxPoint x="-760" y="700" as="sourcePoint" />
            <mxPoint x="-760" y="720" as="targetPoint" />
            <Array as="points">
              <mxPoint x="-760" y="710" />
              <mxPoint x="-760" y="710" />
            </Array>
          </mxGeometry>
        </mxCell>
        <mxCell id="qrl5ms6JGWwzDxshBv7--255" value="" style="endArrow=none;html=1;rounded=0;strokeColor=default;align=center;verticalAlign=middle;fontFamily=Helvetica;fontSize=11;fontColor=default;labelBackgroundColor=default;edgeStyle=orthogonalEdgeStyle;endSize=4;startSize=4;endFill=0;startArrow=oval;startFill=0;" parent="1" edge="1">
          <mxGeometry width="50" height="50" relative="1" as="geometry">
            <mxPoint x="-800" y="700" as="sourcePoint" />
            <mxPoint x="-800" y="720" as="targetPoint" />
            <Array as="points">
              <mxPoint x="-800" y="710" />
              <mxPoint x="-800" y="710" />
            </Array>
          </mxGeometry>
        </mxCell>
        <mxCell id="qrl5ms6JGWwzDxshBv7--256" value="" style="endArrow=none;html=1;rounded=0;strokeColor=default;align=center;verticalAlign=middle;fontFamily=Helvetica;fontSize=11;fontColor=default;labelBackgroundColor=default;edgeStyle=orthogonalEdgeStyle;endSize=4;startSize=4;endFill=0;startArrow=oval;startFill=0;" parent="1" edge="1">
          <mxGeometry width="50" height="50" relative="1" as="geometry">
            <mxPoint x="-840" y="700" as="sourcePoint" />
            <mxPoint x="-840" y="720" as="targetPoint" />
            <Array as="points">
              <mxPoint x="-840" y="710" />
              <mxPoint x="-840" y="710" />
            </Array>
          </mxGeometry>
        </mxCell>
        <mxCell id="qrl5ms6JGWwzDxshBv7--257" value="" style="endArrow=oval;html=1;rounded=0;strokeColor=default;align=center;verticalAlign=middle;fontFamily=Helvetica;fontSize=11;fontColor=default;labelBackgroundColor=default;edgeStyle=orthogonalEdgeStyle;startSize=4;endSize=4;startArrow=oval;startFill=1;endFill=1;" parent="1" edge="1">
          <mxGeometry width="50" height="50" relative="1" as="geometry">
            <mxPoint x="-760" y="720" as="sourcePoint" />
            <mxPoint x="-720" y="720" as="targetPoint" />
            <Array as="points">
              <mxPoint x="-750" y="720" />
            </Array>
          </mxGeometry>
        </mxCell>
        <mxCell id="qrl5ms6JGWwzDxshBv7--258" value="" style="endArrow=oval;html=1;rounded=0;strokeColor=default;align=center;verticalAlign=middle;fontFamily=Helvetica;fontSize=11;fontColor=default;labelBackgroundColor=default;edgeStyle=orthogonalEdgeStyle;startSize=4;endSize=4;startArrow=oval;startFill=1;endFill=1;" parent="1" edge="1">
          <mxGeometry width="50" height="50" relative="1" as="geometry">
            <mxPoint x="-800" y="720" as="sourcePoint" />
            <mxPoint x="-760" y="720" as="targetPoint" />
            <Array as="points">
              <mxPoint x="-790" y="720" />
            </Array>
          </mxGeometry>
        </mxCell>
        <mxCell id="qrl5ms6JGWwzDxshBv7--259" value="" style="endArrow=oval;html=1;rounded=0;strokeColor=default;align=center;verticalAlign=middle;fontFamily=Helvetica;fontSize=11;fontColor=default;labelBackgroundColor=default;edgeStyle=orthogonalEdgeStyle;startSize=4;endSize=4;startArrow=oval;startFill=1;endFill=1;" parent="1" edge="1">
          <mxGeometry width="50" height="50" relative="1" as="geometry">
            <mxPoint x="-840" y="720" as="sourcePoint" />
            <mxPoint x="-800" y="720" as="targetPoint" />
            <Array as="points">
              <mxPoint x="-830" y="720" />
            </Array>
          </mxGeometry>
        </mxCell>
        <mxCell id="qrl5ms6JGWwzDxshBv7--260" value="" style="endArrow=oval;html=1;rounded=0;strokeColor=default;align=center;verticalAlign=middle;fontFamily=Helvetica;fontSize=11;fontColor=default;labelBackgroundColor=default;edgeStyle=orthogonalEdgeStyle;startSize=4;endSize=4;startArrow=oval;startFill=1;endFill=1;" parent="1" edge="1">
          <mxGeometry width="50" height="50" relative="1" as="geometry">
            <mxPoint x="-870" y="710" as="sourcePoint" />
            <mxPoint x="-820" y="710" as="targetPoint" />
            <Array as="points">
              <mxPoint x="-850" y="710" />
            </Array>
          </mxGeometry>
        </mxCell>
        <mxCell id="qrl5ms6JGWwzDxshBv7--261" value="" style="endArrow=oval;html=1;rounded=0;strokeColor=default;align=center;verticalAlign=middle;fontFamily=Helvetica;fontSize=11;fontColor=default;labelBackgroundColor=default;edgeStyle=orthogonalEdgeStyle;startSize=4;endSize=4;startArrow=none;startFill=0;endFill=1;" parent="1" edge="1">
          <mxGeometry width="50" height="50" relative="1" as="geometry">
            <mxPoint x="-910" y="720" as="sourcePoint" />
            <mxPoint x="-840" y="720" as="targetPoint" />
            <Array as="points">
              <mxPoint x="-870" y="720" />
            </Array>
          </mxGeometry>
        </mxCell>
        <mxCell id="qrl5ms6JGWwzDxshBv7--263" value="" style="endArrow=oval;html=1;rounded=0;strokeColor=default;align=center;verticalAlign=middle;fontFamily=Helvetica;fontSize=11;fontColor=default;labelBackgroundColor=default;edgeStyle=orthogonalEdgeStyle;startSize=4;endSize=4;startArrow=none;startFill=0;endFill=1;" parent="1" edge="1">
          <mxGeometry width="50" height="50" relative="1" as="geometry">
            <mxPoint x="-910" y="710" as="sourcePoint" />
            <mxPoint x="-870" y="710" as="targetPoint" />
            <Array as="points">
              <mxPoint x="-900" y="710" />
            </Array>
          </mxGeometry>
        </mxCell>
        <mxCell id="qrl5ms6JGWwzDxshBv7--270" value="" style="endArrow=none;html=1;rounded=0;strokeColor=default;align=center;verticalAlign=middle;fontFamily=Helvetica;fontSize=11;fontColor=default;labelBackgroundColor=default;" parent="1" edge="1">
          <mxGeometry width="50" height="50" relative="1" as="geometry">
            <mxPoint x="-399" y="418" as="sourcePoint" />
            <mxPoint x="-391" y="402" as="targetPoint" />
          </mxGeometry>
        </mxCell>
        <mxCell id="qrl5ms6JGWwzDxshBv7--271" value="" style="endArrow=none;html=1;rounded=0;strokeColor=default;align=center;verticalAlign=middle;fontFamily=Helvetica;fontSize=11;fontColor=default;labelBackgroundColor=default;" parent="1" edge="1">
          <mxGeometry width="50" height="50" relative="1" as="geometry">
            <mxPoint x="-439" y="418" as="sourcePoint" />
            <mxPoint x="-431" y="402" as="targetPoint" />
          </mxGeometry>
        </mxCell>
        <mxCell id="qrl5ms6JGWwzDxshBv7--272" value="" style="endArrow=none;html=1;rounded=0;strokeColor=default;align=center;verticalAlign=middle;fontFamily=Helvetica;fontSize=11;fontColor=default;labelBackgroundColor=default;" parent="1" edge="1">
          <mxGeometry width="50" height="50" relative="1" as="geometry">
            <mxPoint x="-479" y="418" as="sourcePoint" />
            <mxPoint x="-471" y="402" as="targetPoint" />
          </mxGeometry>
        </mxCell>
        <mxCell id="qrl5ms6JGWwzDxshBv7--273" value="" style="endArrow=none;html=1;rounded=0;strokeColor=default;align=center;verticalAlign=middle;fontFamily=Helvetica;fontSize=11;fontColor=default;labelBackgroundColor=default;" parent="1" edge="1">
          <mxGeometry width="50" height="50" relative="1" as="geometry">
            <mxPoint x="-519" y="418" as="sourcePoint" />
            <mxPoint x="-511" y="402" as="targetPoint" />
          </mxGeometry>
        </mxCell>
        <mxCell id="qrl5ms6JGWwzDxshBv7--274" value="" style="endArrow=none;html=1;rounded=0;strokeColor=default;align=center;verticalAlign=middle;fontFamily=Helvetica;fontSize=11;fontColor=default;labelBackgroundColor=default;" parent="1" edge="1">
          <mxGeometry width="50" height="50" relative="1" as="geometry">
            <mxPoint x="-559" y="418" as="sourcePoint" />
            <mxPoint x="-551" y="402" as="targetPoint" />
          </mxGeometry>
        </mxCell>
        <mxCell id="qrl5ms6JGWwzDxshBv7--275" value="" style="endArrow=none;html=1;rounded=0;strokeColor=default;align=center;verticalAlign=middle;fontFamily=Helvetica;fontSize=11;fontColor=default;labelBackgroundColor=default;" parent="1" edge="1">
          <mxGeometry width="50" height="50" relative="1" as="geometry">
            <mxPoint x="-599" y="418" as="sourcePoint" />
            <mxPoint x="-591" y="402" as="targetPoint" />
          </mxGeometry>
        </mxCell>
        <mxCell id="qrl5ms6JGWwzDxshBv7--276" value="" style="endArrow=none;html=1;rounded=0;strokeColor=default;align=center;verticalAlign=middle;fontFamily=Helvetica;fontSize=11;fontColor=default;labelBackgroundColor=default;" parent="1" edge="1">
          <mxGeometry width="50" height="50" relative="1" as="geometry">
            <mxPoint x="-639" y="418" as="sourcePoint" />
            <mxPoint x="-631" y="402" as="targetPoint" />
          </mxGeometry>
        </mxCell>
        <mxCell id="qrl5ms6JGWwzDxshBv7--277" value="" style="endArrow=none;html=1;rounded=0;strokeColor=default;align=center;verticalAlign=middle;fontFamily=Helvetica;fontSize=11;fontColor=default;labelBackgroundColor=default;" parent="1" edge="1">
          <mxGeometry width="50" height="50" relative="1" as="geometry">
            <mxPoint x="-709" y="418" as="sourcePoint" />
            <mxPoint x="-701" y="402" as="targetPoint" />
          </mxGeometry>
        </mxCell>
        <mxCell id="qrl5ms6JGWwzDxshBv7--278" value="" style="endArrow=none;html=1;rounded=0;strokeColor=default;align=center;verticalAlign=middle;fontFamily=Helvetica;fontSize=11;fontColor=default;labelBackgroundColor=default;" parent="1" edge="1">
          <mxGeometry width="50" height="50" relative="1" as="geometry">
            <mxPoint x="-749" y="418" as="sourcePoint" />
            <mxPoint x="-741" y="402" as="targetPoint" />
          </mxGeometry>
        </mxCell>
        <mxCell id="qrl5ms6JGWwzDxshBv7--279" value="" style="endArrow=none;html=1;rounded=0;strokeColor=default;align=center;verticalAlign=middle;fontFamily=Helvetica;fontSize=11;fontColor=default;labelBackgroundColor=default;" parent="1" edge="1">
          <mxGeometry width="50" height="50" relative="1" as="geometry">
            <mxPoint x="-789" y="418" as="sourcePoint" />
            <mxPoint x="-781" y="402" as="targetPoint" />
          </mxGeometry>
        </mxCell>
        <mxCell id="qrl5ms6JGWwzDxshBv7--280" value="" style="endArrow=none;html=1;rounded=0;strokeColor=default;align=center;verticalAlign=middle;fontFamily=Helvetica;fontSize=11;fontColor=default;labelBackgroundColor=default;" parent="1" edge="1">
          <mxGeometry width="50" height="50" relative="1" as="geometry">
            <mxPoint x="-829" y="418" as="sourcePoint" />
            <mxPoint x="-821" y="402" as="targetPoint" />
          </mxGeometry>
        </mxCell>
        <mxCell id="qrl5ms6JGWwzDxshBv7--281" value="" style="endArrow=none;html=1;rounded=0;strokeColor=default;align=center;verticalAlign=middle;fontFamily=Helvetica;fontSize=11;fontColor=default;labelBackgroundColor=default;" parent="1" edge="1">
          <mxGeometry width="50" height="50" relative="1" as="geometry">
            <mxPoint x="-391.00000000000045" y="698" as="sourcePoint" />
            <mxPoint x="-399.00000000000045" y="682" as="targetPoint" />
          </mxGeometry>
        </mxCell>
        <mxCell id="qrl5ms6JGWwzDxshBv7--292" value="" style="endArrow=none;html=1;rounded=0;strokeColor=default;align=center;verticalAlign=middle;fontFamily=Helvetica;fontSize=11;fontColor=default;labelBackgroundColor=default;" parent="1" edge="1">
          <mxGeometry width="50" height="50" relative="1" as="geometry">
            <mxPoint x="-431.00000000000045" y="698" as="sourcePoint" />
            <mxPoint x="-439.00000000000045" y="682" as="targetPoint" />
          </mxGeometry>
        </mxCell>
        <mxCell id="qrl5ms6JGWwzDxshBv7--293" value="" style="endArrow=none;html=1;rounded=0;strokeColor=default;align=center;verticalAlign=middle;fontFamily=Helvetica;fontSize=11;fontColor=default;labelBackgroundColor=default;" parent="1" edge="1">
          <mxGeometry width="50" height="50" relative="1" as="geometry">
            <mxPoint x="-471.00000000000045" y="698" as="sourcePoint" />
            <mxPoint x="-479.00000000000045" y="682" as="targetPoint" />
          </mxGeometry>
        </mxCell>
        <mxCell id="qrl5ms6JGWwzDxshBv7--294" value="" style="endArrow=none;html=1;rounded=0;strokeColor=default;align=center;verticalAlign=middle;fontFamily=Helvetica;fontSize=11;fontColor=default;labelBackgroundColor=default;" parent="1" edge="1">
          <mxGeometry width="50" height="50" relative="1" as="geometry">
            <mxPoint x="-511.00000000000045" y="698" as="sourcePoint" />
            <mxPoint x="-519.0000000000005" y="682" as="targetPoint" />
          </mxGeometry>
        </mxCell>
        <mxCell id="qrl5ms6JGWwzDxshBv7--295" value="" style="endArrow=none;html=1;rounded=0;strokeColor=default;align=center;verticalAlign=middle;fontFamily=Helvetica;fontSize=11;fontColor=default;labelBackgroundColor=default;" parent="1" edge="1">
          <mxGeometry width="50" height="50" relative="1" as="geometry">
            <mxPoint x="-551.0000000000005" y="698" as="sourcePoint" />
            <mxPoint x="-559.0000000000005" y="682" as="targetPoint" />
          </mxGeometry>
        </mxCell>
        <mxCell id="qrl5ms6JGWwzDxshBv7--296" value="" style="endArrow=none;html=1;rounded=0;strokeColor=default;align=center;verticalAlign=middle;fontFamily=Helvetica;fontSize=11;fontColor=default;labelBackgroundColor=default;" parent="1" edge="1">
          <mxGeometry width="50" height="50" relative="1" as="geometry">
            <mxPoint x="-591.0000000000005" y="698" as="sourcePoint" />
            <mxPoint x="-599.0000000000005" y="682" as="targetPoint" />
          </mxGeometry>
        </mxCell>
        <mxCell id="qrl5ms6JGWwzDxshBv7--297" value="" style="endArrow=none;html=1;rounded=0;strokeColor=default;align=center;verticalAlign=middle;fontFamily=Helvetica;fontSize=11;fontColor=default;labelBackgroundColor=default;" parent="1" edge="1">
          <mxGeometry width="50" height="50" relative="1" as="geometry">
            <mxPoint x="-631.0000000000005" y="698" as="sourcePoint" />
            <mxPoint x="-639.0000000000005" y="682" as="targetPoint" />
          </mxGeometry>
        </mxCell>
        <mxCell id="qrl5ms6JGWwzDxshBv7--298" value="" style="endArrow=none;html=1;rounded=0;strokeColor=default;align=center;verticalAlign=middle;fontFamily=Helvetica;fontSize=11;fontColor=default;labelBackgroundColor=default;" parent="1" edge="1">
          <mxGeometry width="50" height="50" relative="1" as="geometry">
            <mxPoint x="-701.0000000000005" y="698" as="sourcePoint" />
            <mxPoint x="-709.0000000000005" y="682" as="targetPoint" />
          </mxGeometry>
        </mxCell>
        <mxCell id="qrl5ms6JGWwzDxshBv7--299" value="" style="endArrow=none;html=1;rounded=0;strokeColor=default;align=center;verticalAlign=middle;fontFamily=Helvetica;fontSize=11;fontColor=default;labelBackgroundColor=default;" parent="1" edge="1">
          <mxGeometry width="50" height="50" relative="1" as="geometry">
            <mxPoint x="-741.0000000000005" y="698" as="sourcePoint" />
            <mxPoint x="-749.0000000000005" y="682" as="targetPoint" />
          </mxGeometry>
        </mxCell>
        <mxCell id="qrl5ms6JGWwzDxshBv7--300" value="" style="endArrow=none;html=1;rounded=0;strokeColor=default;align=center;verticalAlign=middle;fontFamily=Helvetica;fontSize=11;fontColor=default;labelBackgroundColor=default;" parent="1" edge="1">
          <mxGeometry width="50" height="50" relative="1" as="geometry">
            <mxPoint x="-781.0000000000005" y="698" as="sourcePoint" />
            <mxPoint x="-789.0000000000005" y="682" as="targetPoint" />
          </mxGeometry>
        </mxCell>
        <mxCell id="qrl5ms6JGWwzDxshBv7--301" value="" style="endArrow=none;html=1;rounded=0;strokeColor=default;align=center;verticalAlign=middle;fontFamily=Helvetica;fontSize=11;fontColor=default;labelBackgroundColor=default;" parent="1" edge="1">
          <mxGeometry width="50" height="50" relative="1" as="geometry">
            <mxPoint x="-821.0000000000005" y="698" as="sourcePoint" />
            <mxPoint x="-829.0000000000005" y="682" as="targetPoint" />
          </mxGeometry>
        </mxCell>
        <mxCell id="qrl5ms6JGWwzDxshBv7--307" value="" style="group" parent="1" vertex="1" connectable="0">
          <mxGeometry x="-410" y="290" width="20" height="60" as="geometry" />
        </mxCell>
        <mxCell id="qrl5ms6JGWwzDxshBv7--303" value="" style="pointerEvents=1;verticalLabelPosition=bottom;shadow=0;dashed=0;align=center;html=1;verticalAlign=top;shape=mxgraph.electrical.capacitors.capacitor_1;fontFamily=Helvetica;fontSize=11;fontColor=default;labelBackgroundColor=default;direction=south;" parent="qrl5ms6JGWwzDxshBv7--307" vertex="1">
          <mxGeometry width="20" height="50" as="geometry" />
        </mxCell>
        <mxCell id="qrl5ms6JGWwzDxshBv7--306" style="edgeStyle=orthogonalEdgeStyle;shape=connector;rounded=0;orthogonalLoop=1;jettySize=auto;html=1;exitX=0;exitY=0.5;exitDx=0;exitDy=0;exitPerimeter=0;strokeColor=default;align=center;verticalAlign=middle;fontFamily=Helvetica;fontSize=11;fontColor=default;labelBackgroundColor=default;startFill=0;endArrow=oval;endFill=0;endSize=4;" parent="qrl5ms6JGWwzDxshBv7--307" edge="1">
          <mxGeometry relative="1" as="geometry">
            <mxPoint x="10" y="60" as="targetPoint" />
            <mxPoint x="10" y="50" as="sourcePoint" />
          </mxGeometry>
        </mxCell>
        <mxCell id="qrl5ms6JGWwzDxshBv7--308" value="" style="group" parent="1" vertex="1" connectable="0">
          <mxGeometry x="-450" y="290" width="20" height="60" as="geometry" />
        </mxCell>
        <mxCell id="qrl5ms6JGWwzDxshBv7--330" style="edgeStyle=orthogonalEdgeStyle;shape=connector;rounded=0;orthogonalLoop=1;jettySize=auto;html=1;exitX=0;exitY=0.5;exitDx=0;exitDy=0;exitPerimeter=0;strokeColor=default;align=center;verticalAlign=middle;fontFamily=Helvetica;fontSize=11;fontColor=default;labelBackgroundColor=default;startFill=0;endArrow=none;" parent="qrl5ms6JGWwzDxshBv7--308" source="qrl5ms6JGWwzDxshBv7--309" edge="1">
          <mxGeometry relative="1" as="geometry">
            <mxPoint x="50" y="-0.10344827586203564" as="targetPoint" />
            <Array as="points">
              <mxPoint x="40" />
            </Array>
          </mxGeometry>
        </mxCell>
        <mxCell id="qrl5ms6JGWwzDxshBv7--309" value="" style="pointerEvents=1;verticalLabelPosition=bottom;shadow=0;dashed=0;align=center;html=1;verticalAlign=top;shape=mxgraph.electrical.capacitors.capacitor_1;fontFamily=Helvetica;fontSize=11;fontColor=default;labelBackgroundColor=default;direction=south;" parent="qrl5ms6JGWwzDxshBv7--308" vertex="1">
          <mxGeometry width="20" height="50" as="geometry" />
        </mxCell>
        <mxCell id="qrl5ms6JGWwzDxshBv7--310" style="edgeStyle=orthogonalEdgeStyle;shape=connector;rounded=0;orthogonalLoop=1;jettySize=auto;html=1;exitX=0;exitY=0.5;exitDx=0;exitDy=0;exitPerimeter=0;strokeColor=default;align=center;verticalAlign=middle;fontFamily=Helvetica;fontSize=11;fontColor=default;labelBackgroundColor=default;startFill=0;endArrow=oval;endFill=0;endSize=4;" parent="qrl5ms6JGWwzDxshBv7--308" edge="1">
          <mxGeometry relative="1" as="geometry">
            <mxPoint x="10" y="60" as="targetPoint" />
            <mxPoint x="10" y="50" as="sourcePoint" />
          </mxGeometry>
        </mxCell>
        <mxCell id="qrl5ms6JGWwzDxshBv7--311" value="" style="group" parent="1" vertex="1" connectable="0">
          <mxGeometry x="-490" y="290" width="20" height="60" as="geometry" />
        </mxCell>
        <mxCell id="qrl5ms6JGWwzDxshBv7--312" value="" style="pointerEvents=1;verticalLabelPosition=bottom;shadow=0;dashed=0;align=center;html=1;verticalAlign=top;shape=mxgraph.electrical.capacitors.capacitor_1;fontFamily=Helvetica;fontSize=11;fontColor=default;labelBackgroundColor=default;direction=south;" parent="qrl5ms6JGWwzDxshBv7--311" vertex="1">
          <mxGeometry width="20" height="50" as="geometry" />
        </mxCell>
        <mxCell id="qrl5ms6JGWwzDxshBv7--313" style="edgeStyle=orthogonalEdgeStyle;shape=connector;rounded=0;orthogonalLoop=1;jettySize=auto;html=1;exitX=0;exitY=0.5;exitDx=0;exitDy=0;exitPerimeter=0;strokeColor=default;align=center;verticalAlign=middle;fontFamily=Helvetica;fontSize=11;fontColor=default;labelBackgroundColor=default;startFill=0;endArrow=oval;endFill=0;endSize=4;" parent="qrl5ms6JGWwzDxshBv7--311" edge="1">
          <mxGeometry relative="1" as="geometry">
            <mxPoint x="10" y="60" as="targetPoint" />
            <mxPoint x="10" y="50" as="sourcePoint" />
          </mxGeometry>
        </mxCell>
        <mxCell id="qrl5ms6JGWwzDxshBv7--314" value="" style="group" parent="1" vertex="1" connectable="0">
          <mxGeometry x="-530" y="290" width="180" height="66" as="geometry" />
        </mxCell>
        <mxCell id="qrl5ms6JGWwzDxshBv7--315" value="" style="pointerEvents=1;verticalLabelPosition=bottom;shadow=0;dashed=0;align=center;html=1;verticalAlign=top;shape=mxgraph.electrical.capacitors.capacitor_1;fontFamily=Helvetica;fontSize=11;fontColor=default;labelBackgroundColor=default;direction=south;" parent="qrl5ms6JGWwzDxshBv7--314" vertex="1">
          <mxGeometry width="20" height="50" as="geometry" />
        </mxCell>
        <mxCell id="qrl5ms6JGWwzDxshBv7--316" style="edgeStyle=orthogonalEdgeStyle;shape=connector;rounded=0;orthogonalLoop=1;jettySize=auto;html=1;exitX=0;exitY=0.5;exitDx=0;exitDy=0;exitPerimeter=0;strokeColor=default;align=center;verticalAlign=middle;fontFamily=Helvetica;fontSize=11;fontColor=default;labelBackgroundColor=default;startFill=0;endArrow=oval;endFill=0;endSize=4;" parent="qrl5ms6JGWwzDxshBv7--314" edge="1">
          <mxGeometry relative="1" as="geometry">
            <mxPoint x="10" y="60" as="targetPoint" />
            <mxPoint x="10" y="50" as="sourcePoint" />
          </mxGeometry>
        </mxCell>
        <mxCell id="qrl5ms6JGWwzDxshBv7--437" value="$$C_{6b}$$" style="text;html=1;align=center;verticalAlign=middle;whiteSpace=wrap;rounded=0;fontFamily=Helvetica;fontSize=11;fontColor=default;labelBackgroundColor=none;" parent="qrl5ms6JGWwzDxshBv7--314" vertex="1">
          <mxGeometry x="-115" y="-6" width="60" height="30" as="geometry" />
        </mxCell>
        <mxCell id="qrl5ms6JGWwzDxshBv7--438" value="$$C_{7b}$$" style="text;html=1;align=center;verticalAlign=middle;whiteSpace=wrap;rounded=0;fontFamily=Helvetica;fontSize=11;fontColor=default;labelBackgroundColor=none;" parent="qrl5ms6JGWwzDxshBv7--314" vertex="1">
          <mxGeometry x="-76" y="-6" width="60" height="30" as="geometry" />
        </mxCell>
        <mxCell id="qrl5ms6JGWwzDxshBv7--439" value="$$C_{8b}$$" style="text;html=1;align=center;verticalAlign=middle;whiteSpace=wrap;rounded=0;fontFamily=Helvetica;fontSize=11;fontColor=default;labelBackgroundColor=none;" parent="qrl5ms6JGWwzDxshBv7--314" vertex="1">
          <mxGeometry x="-36" y="-6" width="60" height="30" as="geometry" />
        </mxCell>
        <mxCell id="qrl5ms6JGWwzDxshBv7--440" value="$$C_{9b}$$" style="text;html=1;align=center;verticalAlign=middle;whiteSpace=wrap;rounded=0;fontFamily=Helvetica;fontSize=11;fontColor=default;labelBackgroundColor=none;" parent="qrl5ms6JGWwzDxshBv7--314" vertex="1">
          <mxGeometry x="4" y="-6" width="60" height="30" as="geometry" />
        </mxCell>
        <mxCell id="qrl5ms6JGWwzDxshBv7--441" value="$$C_{10b}$$" style="text;html=1;align=center;verticalAlign=middle;whiteSpace=wrap;rounded=0;fontFamily=Helvetica;fontSize=11;fontColor=default;labelBackgroundColor=none;" parent="qrl5ms6JGWwzDxshBv7--314" vertex="1">
          <mxGeometry x="42" y="-6" width="60" height="30" as="geometry" />
        </mxCell>
        <mxCell id="qrl5ms6JGWwzDxshBv7--442" value="$$C_{11b}$$" style="text;html=1;align=center;verticalAlign=middle;whiteSpace=wrap;rounded=0;fontFamily=Helvetica;fontSize=11;fontColor=default;labelBackgroundColor=none;" parent="qrl5ms6JGWwzDxshBv7--314" vertex="1">
          <mxGeometry x="81" y="-6" width="60" height="30" as="geometry" />
        </mxCell>
        <mxCell id="qrl5ms6JGWwzDxshBv7--443" value="$$S_{6b}$$" style="text;html=1;align=center;verticalAlign=middle;whiteSpace=wrap;rounded=0;fontFamily=Helvetica;fontSize=11;fontColor=default;labelBackgroundColor=none;" parent="qrl5ms6JGWwzDxshBv7--314" vertex="1">
          <mxGeometry x="-86" y="36" width="60" height="30" as="geometry" />
        </mxCell>
        <mxCell id="qrl5ms6JGWwzDxshBv7--444" value="$$S_{7b}$$" style="text;html=1;align=center;verticalAlign=middle;whiteSpace=wrap;rounded=0;fontFamily=Helvetica;fontSize=11;fontColor=default;labelBackgroundColor=none;" parent="qrl5ms6JGWwzDxshBv7--314" vertex="1">
          <mxGeometry x="-43" y="36" width="60" height="30" as="geometry" />
        </mxCell>
        <mxCell id="qrl5ms6JGWwzDxshBv7--445" value="$$S_{8b}$$" style="text;html=1;align=center;verticalAlign=middle;whiteSpace=wrap;rounded=0;fontFamily=Helvetica;fontSize=11;fontColor=default;labelBackgroundColor=none;" parent="qrl5ms6JGWwzDxshBv7--314" vertex="1">
          <mxGeometry x="-2" y="36" width="60" height="30" as="geometry" />
        </mxCell>
        <mxCell id="qrl5ms6JGWwzDxshBv7--446" value="$$S_{9b}$$" style="text;html=1;align=center;verticalAlign=middle;whiteSpace=wrap;rounded=0;fontFamily=Helvetica;fontSize=11;fontColor=default;labelBackgroundColor=none;" parent="qrl5ms6JGWwzDxshBv7--314" vertex="1">
          <mxGeometry x="37" y="36" width="60" height="30" as="geometry" />
        </mxCell>
        <mxCell id="qrl5ms6JGWwzDxshBv7--447" value="$$S_{10b}$$" style="text;html=1;align=center;verticalAlign=middle;whiteSpace=wrap;rounded=0;fontFamily=Helvetica;fontSize=11;fontColor=default;labelBackgroundColor=none;" parent="qrl5ms6JGWwzDxshBv7--314" vertex="1">
          <mxGeometry x="77" y="36" width="60" height="30" as="geometry" />
        </mxCell>
        <mxCell id="qrl5ms6JGWwzDxshBv7--448" value="$$S_{11b}$$" style="text;html=1;align=center;verticalAlign=middle;whiteSpace=wrap;rounded=0;fontFamily=Helvetica;fontSize=11;fontColor=default;labelBackgroundColor=none;" parent="qrl5ms6JGWwzDxshBv7--314" vertex="1">
          <mxGeometry x="120" y="36" width="60" height="30" as="geometry" />
        </mxCell>
        <mxCell id="qrl5ms6JGWwzDxshBv7--317" value="" style="group" parent="1" vertex="1" connectable="0">
          <mxGeometry x="-570" y="290" width="20" height="60" as="geometry" />
        </mxCell>
        <mxCell id="qrl5ms6JGWwzDxshBv7--335" style="edgeStyle=orthogonalEdgeStyle;shape=connector;rounded=0;orthogonalLoop=1;jettySize=auto;html=1;exitX=0;exitY=0.5;exitDx=0;exitDy=0;exitPerimeter=0;strokeColor=default;align=center;verticalAlign=middle;fontFamily=Helvetica;fontSize=11;fontColor=default;labelBackgroundColor=default;startFill=1;endArrow=oval;endSize=4;startSize=4;startArrow=oval;endFill=1;" parent="qrl5ms6JGWwzDxshBv7--317" source="qrl5ms6JGWwzDxshBv7--318" edge="1">
          <mxGeometry relative="1" as="geometry">
            <mxPoint x="50" as="targetPoint" />
            <Array as="points">
              <mxPoint x="30" />
              <mxPoint x="30" />
            </Array>
          </mxGeometry>
        </mxCell>
        <mxCell id="qrl5ms6JGWwzDxshBv7--318" value="" style="pointerEvents=1;verticalLabelPosition=bottom;shadow=0;dashed=0;align=center;html=1;verticalAlign=top;shape=mxgraph.electrical.capacitors.capacitor_1;fontFamily=Helvetica;fontSize=11;fontColor=default;labelBackgroundColor=default;direction=south;" parent="qrl5ms6JGWwzDxshBv7--317" vertex="1">
          <mxGeometry width="20" height="50" as="geometry" />
        </mxCell>
        <mxCell id="qrl5ms6JGWwzDxshBv7--319" style="edgeStyle=orthogonalEdgeStyle;shape=connector;rounded=0;orthogonalLoop=1;jettySize=auto;html=1;exitX=0;exitY=0.5;exitDx=0;exitDy=0;exitPerimeter=0;strokeColor=default;align=center;verticalAlign=middle;fontFamily=Helvetica;fontSize=11;fontColor=default;labelBackgroundColor=default;startFill=0;endArrow=oval;endFill=0;endSize=4;" parent="qrl5ms6JGWwzDxshBv7--317" edge="1">
          <mxGeometry relative="1" as="geometry">
            <mxPoint x="10" y="60" as="targetPoint" />
            <mxPoint x="10" y="50" as="sourcePoint" />
          </mxGeometry>
        </mxCell>
        <mxCell id="qrl5ms6JGWwzDxshBv7--320" value="" style="group" parent="1" vertex="1" connectable="0">
          <mxGeometry x="-610" y="290" width="20" height="60" as="geometry" />
        </mxCell>
        <mxCell id="qrl5ms6JGWwzDxshBv7--321" value="" style="pointerEvents=1;verticalLabelPosition=bottom;shadow=0;dashed=0;align=center;html=1;verticalAlign=top;shape=mxgraph.electrical.capacitors.capacitor_1;fontFamily=Helvetica;fontSize=11;fontColor=default;labelBackgroundColor=default;direction=south;" parent="qrl5ms6JGWwzDxshBv7--320" vertex="1">
          <mxGeometry width="20" height="50" as="geometry" />
        </mxCell>
        <mxCell id="qrl5ms6JGWwzDxshBv7--322" style="edgeStyle=orthogonalEdgeStyle;shape=connector;rounded=0;orthogonalLoop=1;jettySize=auto;html=1;exitX=0;exitY=0.5;exitDx=0;exitDy=0;exitPerimeter=0;strokeColor=default;align=center;verticalAlign=middle;fontFamily=Helvetica;fontSize=11;fontColor=default;labelBackgroundColor=default;startFill=0;endArrow=oval;endFill=0;endSize=4;" parent="qrl5ms6JGWwzDxshBv7--320" edge="1">
          <mxGeometry relative="1" as="geometry">
            <mxPoint x="10" y="60" as="targetPoint" />
            <mxPoint x="10" y="50" as="sourcePoint" />
          </mxGeometry>
        </mxCell>
        <mxCell id="qrl5ms6JGWwzDxshBv7--323" value="" style="endArrow=none;html=1;rounded=0;strokeColor=default;align=center;verticalAlign=middle;fontFamily=Helvetica;fontSize=11;fontColor=default;labelBackgroundColor=default;" parent="1" edge="1">
          <mxGeometry width="50" height="50" relative="1" as="geometry">
            <mxPoint x="-409" y="368" as="sourcePoint" />
            <mxPoint x="-401" y="352" as="targetPoint" />
          </mxGeometry>
        </mxCell>
        <mxCell id="qrl5ms6JGWwzDxshBv7--324" value="" style="endArrow=none;html=1;rounded=0;strokeColor=default;align=center;verticalAlign=middle;fontFamily=Helvetica;fontSize=11;fontColor=default;labelBackgroundColor=default;" parent="1" edge="1">
          <mxGeometry width="50" height="50" relative="1" as="geometry">
            <mxPoint x="-449" y="368" as="sourcePoint" />
            <mxPoint x="-441" y="352" as="targetPoint" />
          </mxGeometry>
        </mxCell>
        <mxCell id="qrl5ms6JGWwzDxshBv7--325" value="" style="endArrow=none;html=1;rounded=0;strokeColor=default;align=center;verticalAlign=middle;fontFamily=Helvetica;fontSize=11;fontColor=default;labelBackgroundColor=default;" parent="1" edge="1">
          <mxGeometry width="50" height="50" relative="1" as="geometry">
            <mxPoint x="-489" y="368" as="sourcePoint" />
            <mxPoint x="-481" y="352" as="targetPoint" />
          </mxGeometry>
        </mxCell>
        <mxCell id="qrl5ms6JGWwzDxshBv7--326" value="" style="endArrow=none;html=1;rounded=0;strokeColor=default;align=center;verticalAlign=middle;fontFamily=Helvetica;fontSize=11;fontColor=default;labelBackgroundColor=default;" parent="1" edge="1">
          <mxGeometry width="50" height="50" relative="1" as="geometry">
            <mxPoint x="-529" y="368" as="sourcePoint" />
            <mxPoint x="-521" y="352" as="targetPoint" />
          </mxGeometry>
        </mxCell>
        <mxCell id="qrl5ms6JGWwzDxshBv7--327" value="" style="endArrow=none;html=1;rounded=0;strokeColor=default;align=center;verticalAlign=middle;fontFamily=Helvetica;fontSize=11;fontColor=default;labelBackgroundColor=default;" parent="1" edge="1">
          <mxGeometry width="50" height="50" relative="1" as="geometry">
            <mxPoint x="-569" y="368" as="sourcePoint" />
            <mxPoint x="-561" y="352" as="targetPoint" />
          </mxGeometry>
        </mxCell>
        <mxCell id="qrl5ms6JGWwzDxshBv7--328" value="" style="endArrow=none;html=1;rounded=0;strokeColor=default;align=center;verticalAlign=middle;fontFamily=Helvetica;fontSize=11;fontColor=default;labelBackgroundColor=default;" parent="1" edge="1">
          <mxGeometry width="50" height="50" relative="1" as="geometry">
            <mxPoint x="-609" y="368" as="sourcePoint" />
            <mxPoint x="-601" y="352" as="targetPoint" />
          </mxGeometry>
        </mxCell>
        <mxCell id="qrl5ms6JGWwzDxshBv7--329" style="edgeStyle=orthogonalEdgeStyle;shape=connector;rounded=0;orthogonalLoop=1;jettySize=auto;html=1;exitX=0;exitY=0.5;exitDx=0;exitDy=0;exitPerimeter=0;strokeColor=default;align=center;verticalAlign=middle;fontFamily=Helvetica;fontSize=11;fontColor=default;labelBackgroundColor=default;startFill=1;endArrow=oval;endSize=4;startSize=4;endFill=1;startArrow=oval;" parent="1" edge="1">
          <mxGeometry relative="1" as="geometry">
            <mxPoint x="-360.03910614525125" y="479.9967039106146" as="targetPoint" />
            <mxPoint x="-400" y="289.79" as="sourcePoint" />
            <Array as="points">
              <mxPoint x="-360" y="290" />
            </Array>
          </mxGeometry>
        </mxCell>
        <mxCell id="qrl5ms6JGWwzDxshBv7--332" style="edgeStyle=orthogonalEdgeStyle;shape=connector;rounded=0;orthogonalLoop=1;jettySize=auto;html=1;exitX=0;exitY=0.5;exitDx=0;exitDy=0;exitPerimeter=0;entryX=0;entryY=0.5;entryDx=0;entryDy=0;entryPerimeter=0;strokeColor=default;align=center;verticalAlign=middle;fontFamily=Helvetica;fontSize=11;fontColor=default;labelBackgroundColor=default;startFill=1;endArrow=oval;endSize=4;startSize=4;startArrow=oval;endFill=1;" parent="1" source="qrl5ms6JGWwzDxshBv7--312" target="qrl5ms6JGWwzDxshBv7--309" edge="1">
          <mxGeometry relative="1" as="geometry">
            <Array as="points">
              <mxPoint x="-460" y="290" />
              <mxPoint x="-460" y="290" />
            </Array>
          </mxGeometry>
        </mxCell>
        <mxCell id="qrl5ms6JGWwzDxshBv7--333" style="edgeStyle=orthogonalEdgeStyle;shape=connector;rounded=0;orthogonalLoop=1;jettySize=auto;html=1;exitX=0;exitY=0.5;exitDx=0;exitDy=0;exitPerimeter=0;entryX=0;entryY=0.5;entryDx=0;entryDy=0;entryPerimeter=0;strokeColor=default;align=center;verticalAlign=middle;fontFamily=Helvetica;fontSize=11;fontColor=default;labelBackgroundColor=default;startFill=1;endArrow=oval;endSize=4;startSize=4;startArrow=oval;endFill=1;" parent="1" source="qrl5ms6JGWwzDxshBv7--315" target="qrl5ms6JGWwzDxshBv7--312" edge="1">
          <mxGeometry relative="1" as="geometry">
            <Array as="points">
              <mxPoint x="-500" y="290" />
              <mxPoint x="-500" y="290" />
            </Array>
          </mxGeometry>
        </mxCell>
        <mxCell id="qrl5ms6JGWwzDxshBv7--336" style="edgeStyle=orthogonalEdgeStyle;shape=connector;rounded=0;orthogonalLoop=1;jettySize=auto;html=1;exitX=0;exitY=0.5;exitDx=0;exitDy=0;exitPerimeter=0;entryX=0;entryY=0.5;entryDx=0;entryDy=0;entryPerimeter=0;strokeColor=default;align=center;verticalAlign=middle;fontFamily=Helvetica;fontSize=11;fontColor=default;labelBackgroundColor=default;startFill=1;endArrow=oval;endSize=4;startSize=4;startArrow=oval;endFill=1;" parent="1" source="qrl5ms6JGWwzDxshBv7--321" target="qrl5ms6JGWwzDxshBv7--318" edge="1">
          <mxGeometry relative="1" as="geometry">
            <Array as="points">
              <mxPoint x="-580" y="290" />
              <mxPoint x="-580" y="290" />
            </Array>
          </mxGeometry>
        </mxCell>
        <mxCell id="qrl5ms6JGWwzDxshBv7--338" style="edgeStyle=orthogonalEdgeStyle;shape=connector;rounded=0;orthogonalLoop=1;jettySize=auto;html=1;exitX=0;exitY=0.5;exitDx=0;exitDy=0;strokeColor=default;align=center;verticalAlign=middle;fontFamily=Helvetica;fontSize=11;fontColor=default;labelBackgroundColor=default;startFill=0;endArrow=blockThin;endFill=1;" parent="1" source="qrl5ms6JGWwzDxshBv7--337" edge="1">
          <mxGeometry relative="1" as="geometry">
            <mxPoint x="-360" y="380.19047619047615" as="targetPoint" />
          </mxGeometry>
        </mxCell>
        <mxCell id="qrl5ms6JGWwzDxshBv7--337" value="Switch&lt;div&gt;Control&lt;/div&gt;" style="rounded=0;whiteSpace=wrap;html=1;fontFamily=Times New Roman;fontSize=14;" parent="1" vertex="1">
          <mxGeometry x="-310" y="340" width="80" height="80" as="geometry" />
        </mxCell>
        <mxCell id="qrl5ms6JGWwzDxshBv7--341" style="edgeStyle=orthogonalEdgeStyle;shape=connector;rounded=0;orthogonalLoop=1;jettySize=auto;html=1;exitX=0;exitY=0.5;exitDx=0;exitDy=0;exitPerimeter=0;strokeColor=default;align=center;verticalAlign=middle;fontFamily=Helvetica;fontSize=11;fontColor=default;labelBackgroundColor=default;startFill=0;endArrow=oval;endFill=0;endSize=4;" parent="1" source="qrl5ms6JGWwzDxshBv7--342" edge="1">
          <mxGeometry relative="1" as="geometry">
            <mxPoint x="-400" y="750" as="targetPoint" />
          </mxGeometry>
        </mxCell>
        <mxCell id="qrl5ms6JGWwzDxshBv7--359" style="edgeStyle=orthogonalEdgeStyle;shape=connector;rounded=0;orthogonalLoop=1;jettySize=auto;html=1;exitX=1;exitY=0.5;exitDx=0;exitDy=0;exitPerimeter=0;strokeColor=default;align=center;verticalAlign=middle;fontFamily=Helvetica;fontSize=11;fontColor=default;labelBackgroundColor=default;startFill=0;endArrow=oval;endFill=1;endSize=4;" parent="1" source="qrl5ms6JGWwzDxshBv7--342" edge="1">
          <mxGeometry relative="1" as="geometry">
            <mxPoint x="-360" y="620" as="targetPoint" />
            <Array as="points">
              <mxPoint x="-360" y="810" />
            </Array>
          </mxGeometry>
        </mxCell>
        <mxCell id="qrl5ms6JGWwzDxshBv7--342" value="" style="pointerEvents=1;verticalLabelPosition=bottom;shadow=0;dashed=0;align=center;html=1;verticalAlign=top;shape=mxgraph.electrical.capacitors.capacitor_1;fontFamily=Helvetica;fontSize=11;fontColor=default;labelBackgroundColor=default;direction=south;" parent="1" vertex="1">
          <mxGeometry x="-410" y="760" width="20" height="50" as="geometry" />
        </mxCell>
        <mxCell id="qrl5ms6JGWwzDxshBv7--343" style="edgeStyle=orthogonalEdgeStyle;shape=connector;rounded=0;orthogonalLoop=1;jettySize=auto;html=1;exitX=0;exitY=0.5;exitDx=0;exitDy=0;exitPerimeter=0;strokeColor=default;align=center;verticalAlign=middle;fontFamily=Helvetica;fontSize=11;fontColor=default;labelBackgroundColor=default;startFill=0;endArrow=oval;endFill=0;endSize=4;" parent="1" source="qrl5ms6JGWwzDxshBv7--344" edge="1">
          <mxGeometry relative="1" as="geometry">
            <mxPoint x="-440" y="750" as="targetPoint" />
          </mxGeometry>
        </mxCell>
        <mxCell id="qrl5ms6JGWwzDxshBv7--344" value="" style="pointerEvents=1;verticalLabelPosition=bottom;shadow=0;dashed=0;align=center;html=1;verticalAlign=top;shape=mxgraph.electrical.capacitors.capacitor_1;fontFamily=Helvetica;fontSize=11;fontColor=default;labelBackgroundColor=default;direction=south;" parent="1" vertex="1">
          <mxGeometry x="-450" y="760" width="20" height="50" as="geometry" />
        </mxCell>
        <mxCell id="qrl5ms6JGWwzDxshBv7--345" style="edgeStyle=orthogonalEdgeStyle;shape=connector;rounded=0;orthogonalLoop=1;jettySize=auto;html=1;exitX=0;exitY=0.5;exitDx=0;exitDy=0;exitPerimeter=0;strokeColor=default;align=center;verticalAlign=middle;fontFamily=Helvetica;fontSize=11;fontColor=default;labelBackgroundColor=default;startFill=0;endArrow=oval;endFill=0;endSize=4;" parent="1" source="qrl5ms6JGWwzDxshBv7--346" edge="1">
          <mxGeometry relative="1" as="geometry">
            <mxPoint x="-480" y="750" as="targetPoint" />
          </mxGeometry>
        </mxCell>
        <mxCell id="qrl5ms6JGWwzDxshBv7--346" value="" style="pointerEvents=1;verticalLabelPosition=bottom;shadow=0;dashed=0;align=center;html=1;verticalAlign=top;shape=mxgraph.electrical.capacitors.capacitor_1;fontFamily=Helvetica;fontSize=11;fontColor=default;labelBackgroundColor=default;direction=south;" parent="1" vertex="1">
          <mxGeometry x="-490" y="760" width="20" height="50" as="geometry" />
        </mxCell>
        <mxCell id="qrl5ms6JGWwzDxshBv7--347" style="edgeStyle=orthogonalEdgeStyle;shape=connector;rounded=0;orthogonalLoop=1;jettySize=auto;html=1;exitX=0;exitY=0.5;exitDx=0;exitDy=0;exitPerimeter=0;strokeColor=default;align=center;verticalAlign=middle;fontFamily=Helvetica;fontSize=11;fontColor=default;labelBackgroundColor=default;startFill=0;endArrow=oval;endFill=0;endSize=4;" parent="1" source="qrl5ms6JGWwzDxshBv7--348" edge="1">
          <mxGeometry relative="1" as="geometry">
            <mxPoint x="-520" y="750" as="targetPoint" />
          </mxGeometry>
        </mxCell>
        <mxCell id="qrl5ms6JGWwzDxshBv7--348" value="" style="pointerEvents=1;verticalLabelPosition=bottom;shadow=0;dashed=0;align=center;html=1;verticalAlign=top;shape=mxgraph.electrical.capacitors.capacitor_1;fontFamily=Helvetica;fontSize=11;fontColor=default;labelBackgroundColor=default;direction=south;" parent="1" vertex="1">
          <mxGeometry x="-530" y="760" width="20" height="50" as="geometry" />
        </mxCell>
        <mxCell id="qrl5ms6JGWwzDxshBv7--349" style="edgeStyle=orthogonalEdgeStyle;shape=connector;rounded=0;orthogonalLoop=1;jettySize=auto;html=1;exitX=0;exitY=0.5;exitDx=0;exitDy=0;exitPerimeter=0;strokeColor=default;align=center;verticalAlign=middle;fontFamily=Helvetica;fontSize=11;fontColor=default;labelBackgroundColor=default;startFill=0;endArrow=oval;endFill=0;endSize=4;" parent="1" source="qrl5ms6JGWwzDxshBv7--350" edge="1">
          <mxGeometry relative="1" as="geometry">
            <mxPoint x="-560" y="750" as="targetPoint" />
          </mxGeometry>
        </mxCell>
        <mxCell id="qrl5ms6JGWwzDxshBv7--350" value="" style="pointerEvents=1;verticalLabelPosition=bottom;shadow=0;dashed=0;align=center;html=1;verticalAlign=top;shape=mxgraph.electrical.capacitors.capacitor_1;fontFamily=Helvetica;fontSize=11;fontColor=default;labelBackgroundColor=default;direction=south;" parent="1" vertex="1">
          <mxGeometry x="-570" y="760" width="20" height="50" as="geometry" />
        </mxCell>
        <mxCell id="qrl5ms6JGWwzDxshBv7--351" style="edgeStyle=orthogonalEdgeStyle;shape=connector;rounded=0;orthogonalLoop=1;jettySize=auto;html=1;exitX=0;exitY=0.5;exitDx=0;exitDy=0;exitPerimeter=0;strokeColor=default;align=center;verticalAlign=middle;fontFamily=Helvetica;fontSize=11;fontColor=default;labelBackgroundColor=default;startFill=0;endArrow=oval;endFill=0;endSize=4;" parent="1" source="qrl5ms6JGWwzDxshBv7--352" edge="1">
          <mxGeometry relative="1" as="geometry">
            <mxPoint x="-600" y="750" as="targetPoint" />
          </mxGeometry>
        </mxCell>
        <mxCell id="qrl5ms6JGWwzDxshBv7--352" value="" style="pointerEvents=1;verticalLabelPosition=bottom;shadow=0;dashed=0;align=center;html=1;verticalAlign=top;shape=mxgraph.electrical.capacitors.capacitor_1;fontFamily=Helvetica;fontSize=11;fontColor=default;labelBackgroundColor=default;direction=south;" parent="1" vertex="1">
          <mxGeometry x="-610" y="760" width="20" height="50" as="geometry" />
        </mxCell>
        <mxCell id="qrl5ms6JGWwzDxshBv7--353" style="edgeStyle=orthogonalEdgeStyle;shape=connector;rounded=0;orthogonalLoop=1;jettySize=auto;html=1;exitX=0;exitY=0.5;exitDx=0;exitDy=0;exitPerimeter=0;strokeColor=default;align=center;verticalAlign=middle;fontFamily=Helvetica;fontSize=11;fontColor=default;labelBackgroundColor=default;startFill=1;endArrow=oval;endSize=4;startSize=4;startArrow=oval;endFill=1;" parent="1" edge="1">
          <mxGeometry relative="1" as="geometry">
            <mxPoint x="-560" y="810" as="targetPoint" />
            <mxPoint x="-600" y="810" as="sourcePoint" />
            <Array as="points">
              <mxPoint x="-560" y="810" />
              <mxPoint x="-560" y="810" />
            </Array>
          </mxGeometry>
        </mxCell>
        <mxCell id="qrl5ms6JGWwzDxshBv7--354" style="edgeStyle=orthogonalEdgeStyle;shape=connector;rounded=0;orthogonalLoop=1;jettySize=auto;html=1;exitX=0;exitY=0.5;exitDx=0;exitDy=0;exitPerimeter=0;strokeColor=default;align=center;verticalAlign=middle;fontFamily=Helvetica;fontSize=11;fontColor=default;labelBackgroundColor=default;startFill=1;endArrow=oval;endSize=4;startSize=4;startArrow=oval;endFill=1;" parent="1" edge="1">
          <mxGeometry relative="1" as="geometry">
            <mxPoint x="-520" y="810.01" as="targetPoint" />
            <mxPoint x="-560" y="810.01" as="sourcePoint" />
            <Array as="points">
              <mxPoint x="-520" y="810.01" />
              <mxPoint x="-520" y="810.01" />
            </Array>
          </mxGeometry>
        </mxCell>
        <mxCell id="qrl5ms6JGWwzDxshBv7--355" style="edgeStyle=orthogonalEdgeStyle;shape=connector;rounded=0;orthogonalLoop=1;jettySize=auto;html=1;exitX=0;exitY=0.5;exitDx=0;exitDy=0;exitPerimeter=0;strokeColor=default;align=center;verticalAlign=middle;fontFamily=Helvetica;fontSize=11;fontColor=default;labelBackgroundColor=default;startFill=1;endArrow=oval;endSize=4;startSize=4;startArrow=oval;endFill=1;" parent="1" edge="1">
          <mxGeometry relative="1" as="geometry">
            <mxPoint x="-480" y="810.01" as="targetPoint" />
            <mxPoint x="-520" y="810.01" as="sourcePoint" />
            <Array as="points">
              <mxPoint x="-480" y="810.01" />
              <mxPoint x="-480" y="810.01" />
            </Array>
          </mxGeometry>
        </mxCell>
        <mxCell id="qrl5ms6JGWwzDxshBv7--356" style="edgeStyle=orthogonalEdgeStyle;shape=connector;rounded=0;orthogonalLoop=1;jettySize=auto;html=1;exitX=0;exitY=0.5;exitDx=0;exitDy=0;exitPerimeter=0;strokeColor=default;align=center;verticalAlign=middle;fontFamily=Helvetica;fontSize=11;fontColor=default;labelBackgroundColor=default;startFill=1;endArrow=oval;endSize=4;startSize=4;startArrow=oval;endFill=1;" parent="1" edge="1">
          <mxGeometry relative="1" as="geometry">
            <mxPoint x="-440" y="810.01" as="targetPoint" />
            <mxPoint x="-480" y="810.01" as="sourcePoint" />
            <Array as="points">
              <mxPoint x="-440" y="810.01" />
              <mxPoint x="-440" y="810.01" />
            </Array>
          </mxGeometry>
        </mxCell>
        <mxCell id="qrl5ms6JGWwzDxshBv7--357" style="edgeStyle=orthogonalEdgeStyle;shape=connector;rounded=0;orthogonalLoop=1;jettySize=auto;html=1;exitX=0;exitY=0.5;exitDx=0;exitDy=0;exitPerimeter=0;strokeColor=default;align=center;verticalAlign=middle;fontFamily=Helvetica;fontSize=11;fontColor=default;labelBackgroundColor=default;startFill=1;endArrow=oval;endSize=4;startSize=4;startArrow=oval;endFill=1;" parent="1" edge="1">
          <mxGeometry relative="1" as="geometry">
            <mxPoint x="-400" y="810.01" as="targetPoint" />
            <mxPoint x="-440" y="810.01" as="sourcePoint" />
            <Array as="points">
              <mxPoint x="-400" y="810.01" />
              <mxPoint x="-400" y="810.01" />
            </Array>
          </mxGeometry>
        </mxCell>
        <mxCell id="qrl5ms6JGWwzDxshBv7--360" value="" style="endArrow=none;html=1;rounded=0;strokeColor=default;align=center;verticalAlign=middle;fontFamily=Helvetica;fontSize=11;fontColor=default;labelBackgroundColor=default;" parent="1" edge="1">
          <mxGeometry width="50" height="50" relative="1" as="geometry">
            <mxPoint x="-401.00000000000045" y="748" as="sourcePoint" />
            <mxPoint x="-409.00000000000045" y="732" as="targetPoint" />
          </mxGeometry>
        </mxCell>
        <mxCell id="qrl5ms6JGWwzDxshBv7--361" value="" style="endArrow=none;html=1;rounded=0;strokeColor=default;align=center;verticalAlign=middle;fontFamily=Helvetica;fontSize=11;fontColor=default;labelBackgroundColor=default;" parent="1" edge="1">
          <mxGeometry width="50" height="50" relative="1" as="geometry">
            <mxPoint x="-441.00000000000045" y="748" as="sourcePoint" />
            <mxPoint x="-449.00000000000045" y="732" as="targetPoint" />
          </mxGeometry>
        </mxCell>
        <mxCell id="qrl5ms6JGWwzDxshBv7--362" value="" style="endArrow=none;html=1;rounded=0;strokeColor=default;align=center;verticalAlign=middle;fontFamily=Helvetica;fontSize=11;fontColor=default;labelBackgroundColor=default;" parent="1" edge="1">
          <mxGeometry width="50" height="50" relative="1" as="geometry">
            <mxPoint x="-481.00000000000045" y="748" as="sourcePoint" />
            <mxPoint x="-489.00000000000045" y="732" as="targetPoint" />
          </mxGeometry>
        </mxCell>
        <mxCell id="qrl5ms6JGWwzDxshBv7--363" value="" style="endArrow=none;html=1;rounded=0;strokeColor=default;align=center;verticalAlign=middle;fontFamily=Helvetica;fontSize=11;fontColor=default;labelBackgroundColor=default;" parent="1" edge="1">
          <mxGeometry width="50" height="50" relative="1" as="geometry">
            <mxPoint x="-521.0000000000005" y="748" as="sourcePoint" />
            <mxPoint x="-529.0000000000005" y="732" as="targetPoint" />
          </mxGeometry>
        </mxCell>
        <mxCell id="qrl5ms6JGWwzDxshBv7--364" value="" style="endArrow=none;html=1;rounded=0;strokeColor=default;align=center;verticalAlign=middle;fontFamily=Helvetica;fontSize=11;fontColor=default;labelBackgroundColor=default;" parent="1" edge="1">
          <mxGeometry width="50" height="50" relative="1" as="geometry">
            <mxPoint x="-561.0000000000005" y="748" as="sourcePoint" />
            <mxPoint x="-569.0000000000005" y="732" as="targetPoint" />
          </mxGeometry>
        </mxCell>
        <mxCell id="qrl5ms6JGWwzDxshBv7--365" value="" style="endArrow=none;html=1;rounded=0;strokeColor=default;align=center;verticalAlign=middle;fontFamily=Helvetica;fontSize=11;fontColor=default;labelBackgroundColor=default;" parent="1" edge="1">
          <mxGeometry width="50" height="50" relative="1" as="geometry">
            <mxPoint x="-601.0000000000005" y="748" as="sourcePoint" />
            <mxPoint x="-609.0000000000005" y="732" as="targetPoint" />
          </mxGeometry>
        </mxCell>
        <mxCell id="qrl5ms6JGWwzDxshBv7--367" style="edgeStyle=orthogonalEdgeStyle;shape=connector;rounded=0;orthogonalLoop=1;jettySize=auto;html=1;exitX=0;exitY=0.5;exitDx=0;exitDy=0;strokeColor=default;align=center;verticalAlign=middle;fontFamily=Helvetica;fontSize=11;fontColor=default;labelBackgroundColor=default;startFill=0;endArrow=blockThin;endFill=1;" parent="1" source="qrl5ms6JGWwzDxshBv7--366" edge="1">
          <mxGeometry relative="1" as="geometry">
            <mxPoint x="-360" y="710" as="targetPoint" />
          </mxGeometry>
        </mxCell>
        <mxCell id="qrl5ms6JGWwzDxshBv7--368" style="edgeStyle=orthogonalEdgeStyle;shape=connector;rounded=0;orthogonalLoop=1;jettySize=auto;html=1;exitX=1;exitY=0.5;exitDx=0;exitDy=0;entryX=0.5;entryY=1;entryDx=0;entryDy=0;strokeColor=default;align=center;verticalAlign=middle;fontFamily=Helvetica;fontSize=11;fontColor=default;labelBackgroundColor=default;startFill=1;endArrow=none;startArrow=blockThin;" parent="1" source="qrl5ms6JGWwzDxshBv7--366" target="qrl5ms6JGWwzDxshBv7--7" edge="1">
          <mxGeometry relative="1" as="geometry" />
        </mxCell>
        <mxCell id="qrl5ms6JGWwzDxshBv7--366" value="Switch&lt;div&gt;Control&lt;/div&gt;" style="rounded=0;whiteSpace=wrap;html=1;fontFamily=Times New Roman;fontSize=14;" parent="1" vertex="1">
          <mxGeometry x="-310" y="670" width="80" height="80" as="geometry" />
        </mxCell>
        <mxCell id="qrl5ms6JGWwzDxshBv7--369" value="" style="shape=offPageConnector;whiteSpace=wrap;html=1;fontFamily=Helvetica;fontSize=11;fontColor=default;labelBackgroundColor=default;direction=north;" parent="1" vertex="1">
          <mxGeometry x="-920" y="707.5" width="10" height="5" as="geometry" />
        </mxCell>
        <mxCell id="qrl5ms6JGWwzDxshBv7--370" value="" style="shape=offPageConnector;whiteSpace=wrap;html=1;fontFamily=Helvetica;fontSize=11;fontColor=default;labelBackgroundColor=default;direction=north;" parent="1" vertex="1">
          <mxGeometry x="-920" y="717.5" width="10" height="5" as="geometry" />
        </mxCell>
        <mxCell id="qrl5ms6JGWwzDxshBv7--371" value="" style="shape=offPageConnector;whiteSpace=wrap;html=1;fontFamily=Helvetica;fontSize=11;fontColor=default;labelBackgroundColor=default;direction=north;" parent="1" vertex="1">
          <mxGeometry x="-920" y="377.5" width="10" height="5" as="geometry" />
        </mxCell>
        <mxCell id="qrl5ms6JGWwzDxshBv7--372" value="" style="shape=offPageConnector;whiteSpace=wrap;html=1;fontFamily=Helvetica;fontSize=11;fontColor=default;labelBackgroundColor=default;direction=north;" parent="1" vertex="1">
          <mxGeometry x="-920" y="387.5" width="10" height="5" as="geometry" />
        </mxCell>
        <mxCell id="qrl5ms6JGWwzDxshBv7--378" style="edgeStyle=orthogonalEdgeStyle;shape=connector;rounded=0;orthogonalLoop=1;jettySize=auto;html=1;exitX=0.5;exitY=1;exitDx=0;exitDy=0;strokeColor=default;align=center;verticalAlign=middle;fontFamily=Helvetica;fontSize=11;fontColor=default;labelBackgroundColor=default;startFill=0;endArrow=oval;endFill=0;endSize=4;" parent="1" source="qrl5ms6JGWwzDxshBv7--376" edge="1">
          <mxGeometry relative="1" as="geometry">
            <mxPoint x="-840" y="516.5813953488372" as="targetPoint" />
          </mxGeometry>
        </mxCell>
        <mxCell id="qrl5ms6JGWwzDxshBv7--376" value="" style="shape=offPageConnector;whiteSpace=wrap;html=1;fontFamily=Helvetica;fontSize=11;fontColor=default;labelBackgroundColor=default;direction=north;" parent="1" vertex="1">
          <mxGeometry x="-914" y="514" width="10" height="5" as="geometry" />
        </mxCell>
        <mxCell id="qrl5ms6JGWwzDxshBv7--379" style="edgeStyle=orthogonalEdgeStyle;shape=connector;rounded=0;orthogonalLoop=1;jettySize=auto;html=1;exitX=0.5;exitY=1;exitDx=0;exitDy=0;strokeColor=default;align=center;verticalAlign=middle;fontFamily=Helvetica;fontSize=11;fontColor=default;labelBackgroundColor=default;startFill=0;endArrow=oval;endFill=0;endSize=4;" parent="1" source="qrl5ms6JGWwzDxshBv7--380" edge="1">
          <mxGeometry relative="1" as="geometry">
            <mxPoint x="-840" y="582.5813953488372" as="targetPoint" />
          </mxGeometry>
        </mxCell>
        <mxCell id="qrl5ms6JGWwzDxshBv7--380" value="" style="shape=offPageConnector;whiteSpace=wrap;html=1;fontFamily=Helvetica;fontSize=11;fontColor=default;labelBackgroundColor=default;direction=north;" parent="1" vertex="1">
          <mxGeometry x="-914" y="580" width="10" height="5" as="geometry" />
        </mxCell>
        <mxCell id="qrl5ms6JGWwzDxshBv7--382" value="" style="endArrow=none;html=1;rounded=0;strokeColor=default;align=center;verticalAlign=middle;fontFamily=Helvetica;fontSize=11;fontColor=default;labelBackgroundColor=default;" parent="1" edge="1">
          <mxGeometry width="50" height="50" relative="1" as="geometry">
            <mxPoint x="-839" y="581" as="sourcePoint" />
            <mxPoint x="-825" y="576" as="targetPoint" />
          </mxGeometry>
        </mxCell>
        <mxCell id="qrl5ms6JGWwzDxshBv7--383" value="" style="endArrow=none;html=1;rounded=0;strokeColor=default;align=center;verticalAlign=middle;fontFamily=Helvetica;fontSize=11;fontColor=default;labelBackgroundColor=default;" parent="1" edge="1">
          <mxGeometry width="50" height="50" relative="1" as="geometry">
            <mxPoint x="-825" y="524" as="sourcePoint" />
            <mxPoint x="-839" y="518" as="targetPoint" />
          </mxGeometry>
        </mxCell>
        <mxCell id="qrl5ms6JGWwzDxshBv7--384" value="$$C_{dl}$$" style="text;html=1;align=center;verticalAlign=middle;whiteSpace=wrap;rounded=0;fontFamily=Helvetica;fontSize=11;fontColor=default;labelBackgroundColor=none;" parent="1" vertex="1">
          <mxGeometry x="-921" y="454" width="60" height="30" as="geometry" />
        </mxCell>
        <mxCell id="qrl5ms6JGWwzDxshBv7--385" value="$$C_{1}$$" style="text;html=1;align=center;verticalAlign=middle;whiteSpace=wrap;rounded=0;fontFamily=Helvetica;fontSize=11;fontColor=default;labelBackgroundColor=none;" parent="1" vertex="1">
          <mxGeometry x="-875" y="454" width="60" height="30" as="geometry" />
        </mxCell>
        <mxCell id="qrl5ms6JGWwzDxshBv7--386" value="$$C_{2}$$" style="text;html=1;align=center;verticalAlign=middle;whiteSpace=wrap;rounded=0;fontFamily=Helvetica;fontSize=11;fontColor=default;labelBackgroundColor=none;" parent="1" vertex="1">
          <mxGeometry x="-834" y="454" width="60" height="30" as="geometry" />
        </mxCell>
        <mxCell id="qrl5ms6JGWwzDxshBv7--387" value="$$C_{3}$$" style="text;html=1;align=center;verticalAlign=middle;whiteSpace=wrap;rounded=0;fontFamily=Helvetica;fontSize=11;fontColor=default;labelBackgroundColor=none;" parent="1" vertex="1">
          <mxGeometry x="-794" y="454" width="60" height="30" as="geometry" />
        </mxCell>
        <mxCell id="qrl5ms6JGWwzDxshBv7--388" value="$$C_{4}$$" style="text;html=1;align=center;verticalAlign=middle;whiteSpace=wrap;rounded=0;fontFamily=Helvetica;fontSize=11;fontColor=default;labelBackgroundColor=none;" parent="1" vertex="1">
          <mxGeometry x="-753" y="454" width="60" height="30" as="geometry" />
        </mxCell>
        <mxCell id="qrl5ms6JGWwzDxshBv7--389" value="$$C_{B}$$" style="text;html=1;align=center;verticalAlign=middle;whiteSpace=wrap;rounded=0;fontFamily=Helvetica;fontSize=11;fontColor=default;labelBackgroundColor=none;" parent="1" vertex="1">
          <mxGeometry x="-706" y="442" width="60" height="30" as="geometry" />
        </mxCell>
        <mxCell id="qrl5ms6JGWwzDxshBv7--390" value="$$C_{5}$$" style="text;html=1;align=center;verticalAlign=middle;whiteSpace=wrap;rounded=0;fontFamily=Helvetica;fontSize=11;fontColor=default;labelBackgroundColor=none;" parent="1" vertex="1">
          <mxGeometry x="-683" y="454" width="60" height="30" as="geometry" />
        </mxCell>
        <mxCell id="qrl5ms6JGWwzDxshBv7--391" value="$$C_{6a}$$" style="text;html=1;align=center;verticalAlign=middle;whiteSpace=wrap;rounded=0;fontFamily=Helvetica;fontSize=11;fontColor=default;labelBackgroundColor=none;" parent="1" vertex="1">
          <mxGeometry x="-644" y="454" width="60" height="30" as="geometry" />
        </mxCell>
        <mxCell id="qrl5ms6JGWwzDxshBv7--392" value="$$C_{7a}$$" style="text;html=1;align=center;verticalAlign=middle;whiteSpace=wrap;rounded=0;fontFamily=Helvetica;fontSize=11;fontColor=default;labelBackgroundColor=none;" parent="1" vertex="1">
          <mxGeometry x="-605" y="454" width="60" height="30" as="geometry" />
        </mxCell>
        <mxCell id="qrl5ms6JGWwzDxshBv7--393" value="$$C_{8a}$$" style="text;html=1;align=center;verticalAlign=middle;whiteSpace=wrap;rounded=0;fontFamily=Helvetica;fontSize=11;fontColor=default;labelBackgroundColor=none;" parent="1" vertex="1">
          <mxGeometry x="-565" y="454" width="60" height="30" as="geometry" />
        </mxCell>
        <mxCell id="qrl5ms6JGWwzDxshBv7--394" value="$$C_{9a}$$" style="text;html=1;align=center;verticalAlign=middle;whiteSpace=wrap;rounded=0;fontFamily=Helvetica;fontSize=11;fontColor=default;labelBackgroundColor=none;" parent="1" vertex="1">
          <mxGeometry x="-525" y="454" width="60" height="30" as="geometry" />
        </mxCell>
        <mxCell id="qrl5ms6JGWwzDxshBv7--395" value="$$C_{10a}$$" style="text;html=1;align=center;verticalAlign=middle;whiteSpace=wrap;rounded=0;fontFamily=Helvetica;fontSize=11;fontColor=default;labelBackgroundColor=none;" parent="1" vertex="1">
          <mxGeometry x="-487" y="454" width="60" height="30" as="geometry" />
        </mxCell>
        <mxCell id="qrl5ms6JGWwzDxshBv7--396" value="$$C_{11a}$$" style="text;html=1;align=center;verticalAlign=middle;whiteSpace=wrap;rounded=0;fontFamily=Helvetica;fontSize=11;fontColor=default;labelBackgroundColor=none;" parent="1" vertex="1">
          <mxGeometry x="-448" y="454" width="60" height="30" as="geometry" />
        </mxCell>
        <mxCell id="qrl5ms6JGWwzDxshBv7--397" value="$$C_{dl}$$" style="text;html=1;align=center;verticalAlign=middle;whiteSpace=wrap;rounded=0;fontFamily=Helvetica;fontSize=11;fontColor=default;labelBackgroundColor=none;" parent="1" vertex="1">
          <mxGeometry x="-923" y="615" width="60" height="30" as="geometry" />
        </mxCell>
        <mxCell id="qrl5ms6JGWwzDxshBv7--398" value="$$C_{1}$$" style="text;html=1;align=center;verticalAlign=middle;whiteSpace=wrap;rounded=0;fontFamily=Helvetica;fontSize=11;fontColor=default;labelBackgroundColor=none;" parent="1" vertex="1">
          <mxGeometry x="-874" y="615" width="60" height="30" as="geometry" />
        </mxCell>
        <mxCell id="qrl5ms6JGWwzDxshBv7--399" value="$$C_{2}$$" style="text;html=1;align=center;verticalAlign=middle;whiteSpace=wrap;rounded=0;fontFamily=Helvetica;fontSize=11;fontColor=default;labelBackgroundColor=none;" parent="1" vertex="1">
          <mxGeometry x="-833" y="615" width="60" height="30" as="geometry" />
        </mxCell>
        <mxCell id="qrl5ms6JGWwzDxshBv7--400" value="$$C_{3}$$" style="text;html=1;align=center;verticalAlign=middle;whiteSpace=wrap;rounded=0;fontFamily=Helvetica;fontSize=11;fontColor=default;labelBackgroundColor=none;" parent="1" vertex="1">
          <mxGeometry x="-793" y="615" width="60" height="30" as="geometry" />
        </mxCell>
        <mxCell id="qrl5ms6JGWwzDxshBv7--401" value="$$C_{4}$$" style="text;html=1;align=center;verticalAlign=middle;whiteSpace=wrap;rounded=0;fontFamily=Helvetica;fontSize=11;fontColor=default;labelBackgroundColor=none;" parent="1" vertex="1">
          <mxGeometry x="-752" y="615" width="60" height="30" as="geometry" />
        </mxCell>
        <mxCell id="qrl5ms6JGWwzDxshBv7--402" value="$$C_{5}$$" style="text;html=1;align=center;verticalAlign=middle;whiteSpace=wrap;rounded=0;fontFamily=Helvetica;fontSize=11;fontColor=default;labelBackgroundColor=none;" parent="1" vertex="1">
          <mxGeometry x="-682" y="615" width="60" height="30" as="geometry" />
        </mxCell>
        <mxCell id="qrl5ms6JGWwzDxshBv7--403" value="$$C_{6a}$$" style="text;html=1;align=center;verticalAlign=middle;whiteSpace=wrap;rounded=0;fontFamily=Helvetica;fontSize=11;fontColor=default;labelBackgroundColor=none;" parent="1" vertex="1">
          <mxGeometry x="-643" y="615" width="60" height="30" as="geometry" />
        </mxCell>
        <mxCell id="qrl5ms6JGWwzDxshBv7--404" value="$$C_{7a}$$" style="text;html=1;align=center;verticalAlign=middle;whiteSpace=wrap;rounded=0;fontFamily=Helvetica;fontSize=11;fontColor=default;labelBackgroundColor=none;" parent="1" vertex="1">
          <mxGeometry x="-604" y="615" width="60" height="30" as="geometry" />
        </mxCell>
        <mxCell id="qrl5ms6JGWwzDxshBv7--405" value="$$C_{8a}$$" style="text;html=1;align=center;verticalAlign=middle;whiteSpace=wrap;rounded=0;fontFamily=Helvetica;fontSize=11;fontColor=default;labelBackgroundColor=none;" parent="1" vertex="1">
          <mxGeometry x="-564" y="615" width="60" height="30" as="geometry" />
        </mxCell>
        <mxCell id="qrl5ms6JGWwzDxshBv7--406" value="$$C_{9a}$$" style="text;html=1;align=center;verticalAlign=middle;whiteSpace=wrap;rounded=0;fontFamily=Helvetica;fontSize=11;fontColor=default;labelBackgroundColor=none;" parent="1" vertex="1">
          <mxGeometry x="-524" y="615" width="60" height="30" as="geometry" />
        </mxCell>
        <mxCell id="qrl5ms6JGWwzDxshBv7--407" value="$$C_{10a}$$" style="text;html=1;align=center;verticalAlign=middle;whiteSpace=wrap;rounded=0;fontFamily=Helvetica;fontSize=11;fontColor=default;labelBackgroundColor=none;" parent="1" vertex="1">
          <mxGeometry x="-487" y="615" width="60" height="30" as="geometry" />
        </mxCell>
        <mxCell id="qrl5ms6JGWwzDxshBv7--408" value="$$C_{11a}$$" style="text;html=1;align=center;verticalAlign=middle;whiteSpace=wrap;rounded=0;fontFamily=Helvetica;fontSize=11;fontColor=default;labelBackgroundColor=none;" parent="1" vertex="1">
          <mxGeometry x="-447" y="615" width="60" height="30" as="geometry" />
        </mxCell>
        <mxCell id="qrl5ms6JGWwzDxshBv7--409" value="$$V_{REFP}$$" style="text;html=1;align=center;verticalAlign=middle;whiteSpace=wrap;rounded=0;fontFamily=Helvetica;fontSize=7;fontColor=default;labelBackgroundColor=none;" parent="1" vertex="1">
          <mxGeometry x="-969" y="363" width="60" height="30" as="geometry" />
        </mxCell>
        <mxCell id="qrl5ms6JGWwzDxshBv7--410" value="$$V_{REFN}$$" style="text;html=1;align=center;verticalAlign=middle;whiteSpace=wrap;rounded=0;fontFamily=Helvetica;fontSize=7;fontColor=default;labelBackgroundColor=none;" parent="1" vertex="1">
          <mxGeometry x="-970" y="376" width="60" height="25" as="geometry" />
        </mxCell>
        <mxCell id="qrl5ms6JGWwzDxshBv7--411" value="$$V_{REFN}$$" style="text;html=1;align=center;verticalAlign=middle;whiteSpace=wrap;rounded=0;fontFamily=Helvetica;fontSize=7;fontColor=default;labelBackgroundColor=none;" parent="1" vertex="1">
          <mxGeometry x="-969" y="693" width="60" height="30" as="geometry" />
        </mxCell>
        <mxCell id="qrl5ms6JGWwzDxshBv7--412" value="$$V_{REFP}$$" style="text;html=1;align=center;verticalAlign=middle;whiteSpace=wrap;rounded=0;fontFamily=Helvetica;fontSize=7;fontColor=default;labelBackgroundColor=none;" parent="1" vertex="1">
          <mxGeometry x="-970" y="706" width="60" height="25" as="geometry" />
        </mxCell>
        <mxCell id="qrl5ms6JGWwzDxshBv7--413" value="$$V_{IN}$$" style="text;html=1;align=center;verticalAlign=middle;whiteSpace=wrap;rounded=0;fontFamily=Helvetica;fontSize=7;fontColor=default;labelBackgroundColor=none;" parent="1" vertex="1">
          <mxGeometry x="-956" y="567" width="60" height="25" as="geometry" />
        </mxCell>
        <mxCell id="qrl5ms6JGWwzDxshBv7--414" value="$$V_{IP}$$" style="text;html=1;align=center;verticalAlign=middle;whiteSpace=wrap;rounded=0;fontFamily=Helvetica;fontSize=7;fontColor=default;labelBackgroundColor=none;" parent="1" vertex="1">
          <mxGeometry x="-955" y="501" width="60" height="25" as="geometry" />
        </mxCell>
        <mxCell id="qrl5ms6JGWwzDxshBv7--415" value="$$S_{1}$$" style="text;html=1;align=center;verticalAlign=middle;whiteSpace=wrap;rounded=0;fontFamily=Helvetica;fontSize=11;fontColor=default;labelBackgroundColor=none;" parent="1" vertex="1">
          <mxGeometry x="-846" y="664" width="60" height="30" as="geometry" />
        </mxCell>
        <mxCell id="qrl5ms6JGWwzDxshBv7--416" value="$$S_{2}$$" style="text;html=1;align=center;verticalAlign=middle;whiteSpace=wrap;rounded=0;fontFamily=Helvetica;fontSize=11;fontColor=default;labelBackgroundColor=none;" parent="1" vertex="1">
          <mxGeometry x="-805" y="664" width="60" height="30" as="geometry" />
        </mxCell>
        <mxCell id="qrl5ms6JGWwzDxshBv7--417" value="$$S_{3}$$" style="text;html=1;align=center;verticalAlign=middle;whiteSpace=wrap;rounded=0;fontFamily=Helvetica;fontSize=11;fontColor=default;labelBackgroundColor=none;" parent="1" vertex="1">
          <mxGeometry x="-764" y="664" width="60" height="30" as="geometry" />
        </mxCell>
        <mxCell id="qrl5ms6JGWwzDxshBv7--418" value="$$S_{4}$$" style="text;html=1;align=center;verticalAlign=middle;whiteSpace=wrap;rounded=0;fontFamily=Helvetica;fontSize=11;fontColor=default;labelBackgroundColor=none;" parent="1" vertex="1">
          <mxGeometry x="-725" y="664" width="60" height="30" as="geometry" />
        </mxCell>
        <mxCell id="qrl5ms6JGWwzDxshBv7--419" value="$$S_{5}$$" style="text;html=1;align=center;verticalAlign=middle;whiteSpace=wrap;rounded=0;fontFamily=Helvetica;fontSize=11;fontColor=default;labelBackgroundColor=none;" parent="1" vertex="1">
          <mxGeometry x="-655" y="664" width="60" height="30" as="geometry" />
        </mxCell>
        <mxCell id="qrl5ms6JGWwzDxshBv7--420" value="$$S_{6a}$$" style="text;html=1;align=center;verticalAlign=middle;whiteSpace=wrap;rounded=0;fontFamily=Helvetica;fontSize=11;fontColor=default;labelBackgroundColor=none;" parent="1" vertex="1">
          <mxGeometry x="-617" y="664" width="60" height="30" as="geometry" />
        </mxCell>
        <mxCell id="qrl5ms6JGWwzDxshBv7--421" value="$$S_{7a}$$" style="text;html=1;align=center;verticalAlign=middle;whiteSpace=wrap;rounded=0;fontFamily=Helvetica;fontSize=11;fontColor=default;labelBackgroundColor=none;" parent="1" vertex="1">
          <mxGeometry x="-574" y="664" width="60" height="30" as="geometry" />
        </mxCell>
        <mxCell id="qrl5ms6JGWwzDxshBv7--422" value="$$S_{8a}$$" style="text;html=1;align=center;verticalAlign=middle;whiteSpace=wrap;rounded=0;fontFamily=Helvetica;fontSize=11;fontColor=default;labelBackgroundColor=none;" parent="1" vertex="1">
          <mxGeometry x="-533" y="664" width="60" height="30" as="geometry" />
        </mxCell>
        <mxCell id="qrl5ms6JGWwzDxshBv7--423" value="$$S_{9a}$$" style="text;html=1;align=center;verticalAlign=middle;whiteSpace=wrap;rounded=0;fontFamily=Helvetica;fontSize=11;fontColor=default;labelBackgroundColor=none;" parent="1" vertex="1">
          <mxGeometry x="-494" y="664" width="60" height="30" as="geometry" />
        </mxCell>
        <mxCell id="qrl5ms6JGWwzDxshBv7--424" value="$$S_{10a}$$" style="text;html=1;align=center;verticalAlign=middle;whiteSpace=wrap;rounded=0;fontFamily=Helvetica;fontSize=11;fontColor=default;labelBackgroundColor=none;" parent="1" vertex="1">
          <mxGeometry x="-454" y="664" width="60" height="30" as="geometry" />
        </mxCell>
        <mxCell id="qrl5ms6JGWwzDxshBv7--425" value="$$S_{11a}$$" style="text;html=1;align=center;verticalAlign=middle;whiteSpace=wrap;rounded=0;fontFamily=Helvetica;fontSize=11;fontColor=default;labelBackgroundColor=none;" parent="1" vertex="1">
          <mxGeometry x="-413" y="664" width="60" height="30" as="geometry" />
        </mxCell>
        <mxCell id="qrl5ms6JGWwzDxshBv7--426" value="$$S_{1}$$" style="text;html=1;align=center;verticalAlign=middle;whiteSpace=wrap;rounded=0;fontFamily=Helvetica;fontSize=11;fontColor=default;labelBackgroundColor=none;" parent="1" vertex="1">
          <mxGeometry x="-844" y="400" width="60" height="30" as="geometry" />
        </mxCell>
        <mxCell id="qrl5ms6JGWwzDxshBv7--427" value="$$S_{2}$$" style="text;html=1;align=center;verticalAlign=middle;whiteSpace=wrap;rounded=0;fontFamily=Helvetica;fontSize=11;fontColor=default;labelBackgroundColor=none;" parent="1" vertex="1">
          <mxGeometry x="-803" y="400" width="60" height="30" as="geometry" />
        </mxCell>
        <mxCell id="qrl5ms6JGWwzDxshBv7--428" value="$$S_{3}$$" style="text;html=1;align=center;verticalAlign=middle;whiteSpace=wrap;rounded=0;fontFamily=Helvetica;fontSize=11;fontColor=default;labelBackgroundColor=none;" parent="1" vertex="1">
          <mxGeometry x="-762" y="400" width="60" height="30" as="geometry" />
        </mxCell>
        <mxCell id="qrl5ms6JGWwzDxshBv7--429" value="$$S_{4}$$" style="text;html=1;align=center;verticalAlign=middle;whiteSpace=wrap;rounded=0;fontFamily=Helvetica;fontSize=11;fontColor=default;labelBackgroundColor=none;" parent="1" vertex="1">
          <mxGeometry x="-723" y="400" width="60" height="30" as="geometry" />
        </mxCell>
        <mxCell id="qrl5ms6JGWwzDxshBv7--430" value="$$S_{5}$$" style="text;html=1;align=center;verticalAlign=middle;whiteSpace=wrap;rounded=0;fontFamily=Helvetica;fontSize=11;fontColor=default;labelBackgroundColor=none;" parent="1" vertex="1">
          <mxGeometry x="-653" y="400" width="60" height="30" as="geometry" />
        </mxCell>
        <mxCell id="qrl5ms6JGWwzDxshBv7--431" value="$$S_{6a}$$" style="text;html=1;align=center;verticalAlign=middle;whiteSpace=wrap;rounded=0;fontFamily=Helvetica;fontSize=11;fontColor=default;labelBackgroundColor=none;" parent="1" vertex="1">
          <mxGeometry x="-615" y="400" width="60" height="30" as="geometry" />
        </mxCell>
        <mxCell id="qrl5ms6JGWwzDxshBv7--432" value="$$S_{7a}$$" style="text;html=1;align=center;verticalAlign=middle;whiteSpace=wrap;rounded=0;fontFamily=Helvetica;fontSize=11;fontColor=default;labelBackgroundColor=none;" parent="1" vertex="1">
          <mxGeometry x="-572" y="400" width="60" height="30" as="geometry" />
        </mxCell>
        <mxCell id="qrl5ms6JGWwzDxshBv7--433" value="$$S_{8a}$$" style="text;html=1;align=center;verticalAlign=middle;whiteSpace=wrap;rounded=0;fontFamily=Helvetica;fontSize=11;fontColor=default;labelBackgroundColor=none;" parent="1" vertex="1">
          <mxGeometry x="-531" y="400" width="60" height="30" as="geometry" />
        </mxCell>
        <mxCell id="qrl5ms6JGWwzDxshBv7--434" value="$$S_{9a}$$" style="text;html=1;align=center;verticalAlign=middle;whiteSpace=wrap;rounded=0;fontFamily=Helvetica;fontSize=11;fontColor=default;labelBackgroundColor=none;" parent="1" vertex="1">
          <mxGeometry x="-492" y="400" width="60" height="30" as="geometry" />
        </mxCell>
        <mxCell id="qrl5ms6JGWwzDxshBv7--435" value="$$S_{10a}$$" style="text;html=1;align=center;verticalAlign=middle;whiteSpace=wrap;rounded=0;fontFamily=Helvetica;fontSize=11;fontColor=default;labelBackgroundColor=none;" parent="1" vertex="1">
          <mxGeometry x="-452" y="400" width="60" height="30" as="geometry" />
        </mxCell>
        <mxCell id="qrl5ms6JGWwzDxshBv7--436" value="$$S_{11a}$$" style="text;html=1;align=center;verticalAlign=middle;whiteSpace=wrap;rounded=0;fontFamily=Helvetica;fontSize=11;fontColor=default;labelBackgroundColor=none;" parent="1" vertex="1">
          <mxGeometry x="-409" y="400" width="60" height="30" as="geometry" />
        </mxCell>
        <mxCell id="qrl5ms6JGWwzDxshBv7--449" value="$$C_{6b}$$" style="text;html=1;align=center;verticalAlign=middle;whiteSpace=wrap;rounded=0;fontFamily=Helvetica;fontSize=11;fontColor=default;labelBackgroundColor=none;" parent="1" vertex="1">
          <mxGeometry x="-643" y="785" width="60" height="30" as="geometry" />
        </mxCell>
        <mxCell id="qrl5ms6JGWwzDxshBv7--450" value="$$C_{7b}$$" style="text;html=1;align=center;verticalAlign=middle;whiteSpace=wrap;rounded=0;fontFamily=Helvetica;fontSize=11;fontColor=default;labelBackgroundColor=none;" parent="1" vertex="1">
          <mxGeometry x="-604" y="785" width="60" height="30" as="geometry" />
        </mxCell>
        <mxCell id="qrl5ms6JGWwzDxshBv7--451" value="$$C_{8b}$$" style="text;html=1;align=center;verticalAlign=middle;whiteSpace=wrap;rounded=0;fontFamily=Helvetica;fontSize=11;fontColor=default;labelBackgroundColor=none;" parent="1" vertex="1">
          <mxGeometry x="-564" y="785" width="60" height="30" as="geometry" />
        </mxCell>
        <mxCell id="qrl5ms6JGWwzDxshBv7--452" value="$$C_{9b}$$" style="text;html=1;align=center;verticalAlign=middle;whiteSpace=wrap;rounded=0;fontFamily=Helvetica;fontSize=11;fontColor=default;labelBackgroundColor=none;" parent="1" vertex="1">
          <mxGeometry x="-524" y="785" width="60" height="30" as="geometry" />
        </mxCell>
        <mxCell id="qrl5ms6JGWwzDxshBv7--453" value="$$C_{10b}$$" style="text;html=1;align=center;verticalAlign=middle;whiteSpace=wrap;rounded=0;fontFamily=Helvetica;fontSize=11;fontColor=default;labelBackgroundColor=none;" parent="1" vertex="1">
          <mxGeometry x="-486" y="785" width="60" height="30" as="geometry" />
        </mxCell>
        <mxCell id="qrl5ms6JGWwzDxshBv7--454" value="$$C_{11b}$$" style="text;html=1;align=center;verticalAlign=middle;whiteSpace=wrap;rounded=0;fontFamily=Helvetica;fontSize=11;fontColor=default;labelBackgroundColor=none;" parent="1" vertex="1">
          <mxGeometry x="-447" y="785" width="60" height="30" as="geometry" />
        </mxCell>
        <mxCell id="qrl5ms6JGWwzDxshBv7--455" value="$$S_{6b}$$" style="text;html=1;align=center;verticalAlign=middle;whiteSpace=wrap;rounded=0;fontFamily=Helvetica;fontSize=11;fontColor=default;labelBackgroundColor=none;" parent="1" vertex="1">
          <mxGeometry x="-614" y="735" width="60" height="30" as="geometry" />
        </mxCell>
        <mxCell id="qrl5ms6JGWwzDxshBv7--456" value="$$S_{7b}$$" style="text;html=1;align=center;verticalAlign=middle;whiteSpace=wrap;rounded=0;fontFamily=Helvetica;fontSize=11;fontColor=default;labelBackgroundColor=none;" parent="1" vertex="1">
          <mxGeometry x="-571" y="735" width="60" height="30" as="geometry" />
        </mxCell>
        <mxCell id="qrl5ms6JGWwzDxshBv7--457" value="$$S_{8b}$$" style="text;html=1;align=center;verticalAlign=middle;whiteSpace=wrap;rounded=0;fontFamily=Helvetica;fontSize=11;fontColor=default;labelBackgroundColor=none;" parent="1" vertex="1">
          <mxGeometry x="-530" y="735" width="60" height="30" as="geometry" />
        </mxCell>
        <mxCell id="qrl5ms6JGWwzDxshBv7--458" value="$$S_{9b}$$" style="text;html=1;align=center;verticalAlign=middle;whiteSpace=wrap;rounded=0;fontFamily=Helvetica;fontSize=11;fontColor=default;labelBackgroundColor=none;" parent="1" vertex="1">
          <mxGeometry x="-491" y="735" width="60" height="30" as="geometry" />
        </mxCell>
        <mxCell id="qrl5ms6JGWwzDxshBv7--459" value="$$S_{10b}$$" style="text;html=1;align=center;verticalAlign=middle;whiteSpace=wrap;rounded=0;fontFamily=Helvetica;fontSize=11;fontColor=default;labelBackgroundColor=none;" parent="1" vertex="1">
          <mxGeometry x="-451" y="735" width="60" height="30" as="geometry" />
        </mxCell>
        <mxCell id="qrl5ms6JGWwzDxshBv7--460" value="$$S_{11b}$$" style="text;html=1;align=center;verticalAlign=middle;whiteSpace=wrap;rounded=0;fontFamily=Helvetica;fontSize=11;fontColor=default;labelBackgroundColor=none;" parent="1" vertex="1">
          <mxGeometry x="-412" y="735" width="60" height="30" as="geometry" />
        </mxCell>
        <mxCell id="qrl5ms6JGWwzDxshBv7--463" value="$$V_{XP}$$" style="text;html=1;align=center;verticalAlign=middle;whiteSpace=wrap;rounded=0;fontFamily=Helvetica;fontSize=7;fontColor=default;labelBackgroundColor=none;" parent="1" vertex="1">
          <mxGeometry x="-384" y="517" width="60" height="25" as="geometry" />
        </mxCell>
        <mxCell id="qrl5ms6JGWwzDxshBv7--464" value="$$V_{XN}$$" style="text;html=1;align=center;verticalAlign=middle;whiteSpace=wrap;rounded=0;fontFamily=Helvetica;fontSize=7;fontColor=default;labelBackgroundColor=none;" parent="1" vertex="1">
          <mxGeometry x="-384" y="556" width="60" height="25" as="geometry" />
        </mxCell>
        <mxCell id="qrl5ms6JGWwzDxshBv7--465" value="$$CDAC_{N}$$" style="text;html=1;align=center;verticalAlign=middle;whiteSpace=wrap;rounded=0;fontFamily=Helvetica;fontSize=9;fontColor=default;labelBackgroundColor=none;" parent="1" vertex="1">
          <mxGeometry x="-933" y="659" width="60" height="25" as="geometry" />
        </mxCell>
        <mxCell id="qrl5ms6JGWwzDxshBv7--466" value="$$CDAC_{P}$$" style="text;html=1;align=center;verticalAlign=middle;whiteSpace=wrap;rounded=0;fontFamily=Helvetica;fontSize=9;fontColor=default;labelBackgroundColor=none;" parent="1" vertex="1">
          <mxGeometry x="-933" y="416" width="60" height="25" as="geometry" />
        </mxCell>
        <mxCell id="qrl5ms6JGWwzDxshBv7--467" value="$$C_{B}$$" style="text;html=1;align=center;verticalAlign=middle;whiteSpace=wrap;rounded=0;fontFamily=Helvetica;fontSize=11;fontColor=default;labelBackgroundColor=none;" parent="1" vertex="1">
          <mxGeometry x="-705" y="626" width="60" height="30" as="geometry" />
        </mxCell>
        <mxCell id="qrl5ms6JGWwzDxshBv7--469" value="$$CKC$$" style="text;html=1;align=center;verticalAlign=middle;whiteSpace=wrap;rounded=0;fontFamily=Helvetica;fontSize=7;fontColor=default;labelBackgroundColor=none;" parent="1" vertex="1">
          <mxGeometry x="-345" y="610" width="60" height="25" as="geometry" />
        </mxCell>
        <mxCell id="qrl5ms6JGWwzDxshBv7--470" value="$$OUT_P$$" style="text;html=1;align=center;verticalAlign=middle;whiteSpace=wrap;rounded=0;fontFamily=Helvetica;fontSize=7;fontColor=default;labelBackgroundColor=none;" parent="1" vertex="1">
          <mxGeometry x="-270" y="490" width="60" height="25" as="geometry" />
        </mxCell>
        <mxCell id="qrl5ms6JGWwzDxshBv7--471" value="$$OUT_N$$" style="text;html=1;align=center;verticalAlign=middle;whiteSpace=wrap;rounded=0;fontFamily=Helvetica;fontSize=7;fontColor=default;labelBackgroundColor=none;" parent="1" vertex="1">
          <mxGeometry x="-270" y="586" width="60" height="25" as="geometry" />
        </mxCell>
        <mxCell id="qrl5ms6JGWwzDxshBv7--472" value="$$D_{out}$$" style="text;html=1;align=center;verticalAlign=middle;whiteSpace=wrap;rounded=0;fontFamily=Helvetica;fontSize=9;fontColor=default;labelBackgroundColor=none;" parent="1" vertex="1">
          <mxGeometry x="-126" y="522" width="60" height="25" as="geometry" />
        </mxCell>
      </root>
    </mxGraphModel>
  </diagram>
</mxfile>
